%TF.GenerationSoftware,KiCad,Pcbnew,10.0.6-10.0.6~ubuntu24.04.1*%
%TF.CreationDate,2026-09-22T17:23:16+05:30*%
%TF.ProjectId,EAS_ERM_Driver,4541535f-4552-44d5-9f44-72697665722e,rev?*%
%TF.SameCoordinates,Original*%
%TF.FileFunction,Copper,L1,Top*%
%TF.FilePolarity,Positive*%
%FSLAX46Y46*%
G04 Gerber Fmt 4.6, Leading zero omitted, Abs format (unit mm)*
G04 Created by KiCad (PCBNEW 10.0.6-10.0.6~ubuntu24.04.1) date 2026-09-22 17:23:16*
%MOMM*%
%LPD*%
G01*
G04 APERTURE LIST*
G04 Aperture macros list*
%AMRoundRect*
0 Rectangle with rounded corners*
0 $1 Rounding radius*
0 $2 $3 $4 $5 $6 $7 $8 $9 X,Y pos of 4 corners*
0 Add a 4 corners polygon primitive as box body*
4,1,4,$2,$3,$4,$5,$6,$7,$8,$9,$2,$3,0*
0 Add four circle primitives for the rounded corners*
1,1,$1+$1,$2,$3*
1,1,$1+$1,$4,$5*
1,1,$1+$1,$6,$7*
1,1,$1+$1,$8,$9*
0 Add four rect primitives between the rounded corners*
20,1,$1+$1,$2,$3,$4,$5,0*
20,1,$1+$1,$4,$5,$6,$7,0*
20,1,$1+$1,$6,$7,$8,$9,0*
20,1,$1+$1,$8,$9,$2,$3,0*%
%AMFreePoly0*
4,1,9,5.362500,-0.866500,1.512500,-0.866500,1.512500,-0.450000,-1.237500,-0.450000,-1.237500,0.450000,1.512500,0.450000,1.512500,0.866500,5.362500,0.866500,5.362500,-0.866500,5.362500,-0.866500,$1*%
G04 Aperture macros list end*
%TA.AperFunction,SMDPad,CuDef*%
%ADD10R,2.500000X2.500000*%
%TD*%
%TA.AperFunction,SMDPad,CuDef*%
%ADD11R,3.000000X2.500000*%
%TD*%
%TA.AperFunction,SMDPad,CuDef*%
%ADD12RoundRect,0.250000X-0.650000X0.412500X-0.650000X-0.412500X0.650000X-0.412500X0.650000X0.412500X0*%
%TD*%
%TA.AperFunction,SMDPad,CuDef*%
%ADD13RoundRect,0.225000X-0.375000X0.225000X-0.375000X-0.225000X0.375000X-0.225000X0.375000X0.225000X0*%
%TD*%
%TA.AperFunction,SMDPad,CuDef*%
%ADD14R,2.000000X2.000000*%
%TD*%
%TA.AperFunction,SMDPad,CuDef*%
%ADD15RoundRect,0.250000X-0.400000X-0.625000X0.400000X-0.625000X0.400000X0.625000X-0.400000X0.625000X0*%
%TD*%
%TA.AperFunction,SMDPad,CuDef*%
%ADD16RoundRect,0.200000X0.750000X0.200000X-0.750000X0.200000X-0.750000X-0.200000X0.750000X-0.200000X0*%
%TD*%
%TA.AperFunction,SMDPad,CuDef*%
%ADD17RoundRect,0.250000X1.250000X0.550000X-1.250000X0.550000X-1.250000X-0.550000X1.250000X-0.550000X0*%
%TD*%
%TA.AperFunction,SMDPad,CuDef*%
%ADD18R,2.500000X7.000000*%
%TD*%
%TA.AperFunction,SMDPad,CuDef*%
%ADD19RoundRect,0.250000X-0.625000X0.400000X-0.625000X-0.400000X0.625000X-0.400000X0.625000X0.400000X0*%
%TD*%
%TA.AperFunction,SMDPad,CuDef*%
%ADD20RoundRect,0.225000X0.925000X0.225000X-0.925000X0.225000X-0.925000X-0.225000X0.925000X-0.225000X0*%
%TD*%
%TA.AperFunction,SMDPad,CuDef*%
%ADD21FreePoly0,180.000000*%
%TD*%
%TA.AperFunction,SMDPad,CuDef*%
%ADD22RoundRect,0.250000X0.412500X0.650000X-0.412500X0.650000X-0.412500X-0.650000X0.412500X-0.650000X0*%
%TD*%
%TA.AperFunction,SMDPad,CuDef*%
%ADD23RoundRect,0.250000X-0.412500X-0.650000X0.412500X-0.650000X0.412500X0.650000X-0.412500X0.650000X0*%
%TD*%
%TA.AperFunction,SMDPad,CuDef*%
%ADD24RoundRect,0.225000X0.225000X-0.925000X0.225000X0.925000X-0.225000X0.925000X-0.225000X-0.925000X0*%
%TD*%
%TA.AperFunction,SMDPad,CuDef*%
%ADD25FreePoly0,90.000000*%
%TD*%
%TA.AperFunction,SMDPad,CuDef*%
%ADD26R,7.000000X2.500000*%
%TD*%
%TA.AperFunction,Conductor*%
%ADD27C,0.800000*%
%TD*%
%TA.AperFunction,Conductor*%
%ADD28C,1.500000*%
%TD*%
%TA.AperFunction,Conductor*%
%ADD29C,1.000000*%
%TD*%
%TA.AperFunction,Conductor*%
%ADD30C,0.500000*%
%TD*%
G04 APERTURE END LIST*
D10*
%TO.P,J17,1*%
%TO.N,M5-*%
X164500000Y-89950000D03*
%TD*%
%TO.P,J13,1*%
%TO.N,M2-*%
X126200000Y-89950000D03*
%TD*%
D11*
%TO.P,J1,1*%
%TO.N,SWITCHED_SYSTEM+*%
X102500000Y-96750000D03*
%TD*%
D12*
%TO.P,C18,1*%
%TO.N,HAPTIC_3V3_B*%
X159590000Y-84062500D03*
%TO.P,C18,2*%
%TO.N,GND*%
X159590000Y-87187500D03*
%TD*%
%TO.P,C9,1*%
%TO.N,HAPTIC_3V3_A*%
X116509999Y-84062500D03*
%TO.P,C9,2*%
%TO.N,M1-*%
X116509999Y-87187500D03*
%TD*%
D13*
%TO.P,D2,1*%
%TO.N,HAPTIC_3V3_A*%
X128350000Y-83850000D03*
%TO.P,D2,2*%
%TO.N,M2-*%
X128350000Y-87150000D03*
%TD*%
D14*
%TO.P,J5,1*%
%TO.N,PWM1*%
X116680000Y-94900000D03*
%TD*%
%TO.P,J3,1*%
%TO.N,SWITCHED_SYSTEM+*%
X102000000Y-94250000D03*
%TD*%
D10*
%TO.P,J14,1*%
%TO.N,M3-*%
X135650000Y-89950000D03*
%TD*%
D12*
%TO.P,C14,1*%
%TO.N,HAPTIC_3V3_B*%
X173709999Y-84062500D03*
%TO.P,C14,2*%
%TO.N,M6-*%
X173709999Y-87187500D03*
%TD*%
%TO.P,C20,1*%
%TO.N,HAPTIC_3V3_B*%
X178490000Y-84062500D03*
%TO.P,C20,2*%
%TO.N,GND*%
X178490000Y-87187500D03*
%TD*%
%TO.P,C5,1*%
%TO.N,HAPTIC_3V3_A*%
X110600000Y-84287500D03*
%TO.P,C5,2*%
%TO.N,GND*%
X110600000Y-87412500D03*
%TD*%
D15*
%TO.P,R5,1*%
%TO.N,PWM5*%
X164430000Y-92920000D03*
%TO.P,R5,2*%
%TO.N,GATE5*%
X167530000Y-92920000D03*
%TD*%
D16*
%TO.P,Q5,1*%
%TO.N,GATE5*%
X169649999Y-90900000D03*
%TO.P,Q5,2*%
%TO.N,GND*%
X169649999Y-89000000D03*
%TO.P,Q5,3*%
%TO.N,M5-*%
X166649999Y-89950000D03*
%TD*%
D17*
%TO.P,C7,1*%
%TO.N,HAPTIC_3V3_A*%
X113350000Y-91350000D03*
%TO.P,C7,2*%
%TO.N,GND*%
X108950000Y-91350000D03*
%TD*%
D12*
%TO.P,C15,1*%
%TO.N,HAPTIC_3V3_A*%
X121289999Y-84062500D03*
%TO.P,C15,2*%
%TO.N,GND*%
X121289999Y-87187500D03*
%TD*%
D16*
%TO.P,Q4,1*%
%TO.N,GATE4*%
X160200000Y-90900000D03*
%TO.P,Q4,2*%
%TO.N,GND*%
X160200000Y-89000000D03*
%TO.P,Q4,3*%
%TO.N,M4-*%
X157200000Y-89950000D03*
%TD*%
%TO.P,Q2,1*%
%TO.N,GATE2*%
X131350000Y-90900000D03*
%TO.P,Q2,2*%
%TO.N,GND*%
X131350000Y-89000000D03*
%TO.P,Q2,3*%
%TO.N,M2-*%
X128350000Y-89950000D03*
%TD*%
D15*
%TO.P,R2,1*%
%TO.N,PWM2*%
X126130000Y-92920000D03*
%TO.P,R2,2*%
%TO.N,GATE2*%
X129230000Y-92920000D03*
%TD*%
D14*
%TO.P,J4,1*%
%TO.N,GND*%
X109200000Y-97000000D03*
%TD*%
%TO.P,J10,1*%
%TO.N,PWM6*%
X173880000Y-94900000D03*
%TD*%
D10*
%TO.P,J16,1*%
%TO.N,M4-*%
X155050000Y-89950000D03*
%TD*%
D12*
%TO.P,C11,1*%
%TO.N,HAPTIC_3V3_A*%
X135410000Y-84062500D03*
%TO.P,C11,2*%
%TO.N,M3-*%
X135410000Y-87187500D03*
%TD*%
D13*
%TO.P,D4,1*%
%TO.N,HAPTIC_3V3_B*%
X157200000Y-83850000D03*
%TO.P,D4,2*%
%TO.N,M4-*%
X157200000Y-87150000D03*
%TD*%
%TO.P,D5,1*%
%TO.N,HAPTIC_3V3_B*%
X166649999Y-83850000D03*
%TO.P,D5,2*%
%TO.N,M5-*%
X166649999Y-87150000D03*
%TD*%
D18*
%TO.P,J11,1*%
%TO.N,HAPTIC_3V3_A*%
X113450000Y-86700000D03*
%TD*%
D12*
%TO.P,C19,1*%
%TO.N,HAPTIC_3V3_B*%
X169040000Y-84062500D03*
%TO.P,C19,2*%
%TO.N,GND*%
X169040000Y-87187500D03*
%TD*%
D19*
%TO.P,R7,1*%
%TO.N,GATE1*%
X121900000Y-92690000D03*
%TO.P,R7,2*%
%TO.N,GND*%
X121900000Y-95790000D03*
%TD*%
D14*
%TO.P,J8,1*%
%TO.N,PWM4*%
X154980000Y-94900000D03*
%TD*%
D20*
%TO.P,U1,1*%
%TO.N,GND*%
X107950000Y-87350000D03*
D21*
%TO.P,U1,2*%
%TO.N,SWITCHED_SYSTEM+*%
X107862500Y-85850000D03*
D20*
%TO.P,U1,3*%
%TO.N,HAPTIC_3V3_A*%
X107950000Y-84350000D03*
%TD*%
D16*
%TO.P,Q6,1*%
%TO.N,GATE6*%
X179100000Y-90900000D03*
%TO.P,Q6,2*%
%TO.N,GND*%
X179100000Y-89000000D03*
%TO.P,Q6,3*%
%TO.N,M6-*%
X176100000Y-89950000D03*
%TD*%
D22*
%TO.P,C6,1*%
%TO.N,HAPTIC_3V3_B*%
X150412500Y-90600000D03*
%TO.P,C6,2*%
%TO.N,GND*%
X147287500Y-90600000D03*
%TD*%
D15*
%TO.P,R6,1*%
%TO.N,PWM6*%
X173880000Y-92920000D03*
%TO.P,R6,2*%
%TO.N,GATE6*%
X176980000Y-92920000D03*
%TD*%
D13*
%TO.P,D1,1*%
%TO.N,HAPTIC_3V3_A*%
X118900000Y-83850000D03*
%TO.P,D1,2*%
%TO.N,M1-*%
X118900000Y-87150000D03*
%TD*%
D11*
%TO.P,J2,1*%
%TO.N,GND*%
X106200000Y-96750000D03*
%TD*%
D14*
%TO.P,J9,1*%
%TO.N,PWM5*%
X164430000Y-94900000D03*
%TD*%
D15*
%TO.P,R3,1*%
%TO.N,PWM3*%
X135580000Y-92920000D03*
%TO.P,R3,2*%
%TO.N,GATE3*%
X138680000Y-92920000D03*
%TD*%
D19*
%TO.P,R8,1*%
%TO.N,GATE2*%
X131350000Y-92690000D03*
%TO.P,R8,2*%
%TO.N,GND*%
X131350000Y-95790000D03*
%TD*%
%TO.P,R10,1*%
%TO.N,GATE4*%
X160200000Y-92690000D03*
%TO.P,R10,2*%
%TO.N,GND*%
X160200000Y-95790000D03*
%TD*%
D12*
%TO.P,C10,1*%
%TO.N,HAPTIC_3V3_A*%
X125960000Y-84062500D03*
%TO.P,C10,2*%
%TO.N,M2-*%
X125960000Y-87187500D03*
%TD*%
%TO.P,C17,1*%
%TO.N,HAPTIC_3V3_A*%
X140190000Y-84062500D03*
%TO.P,C17,2*%
%TO.N,GND*%
X140190000Y-87187500D03*
%TD*%
D23*
%TO.P,C3,1*%
%TO.N,SWITCHED_SYSTEM+*%
X102537500Y-92000000D03*
%TO.P,C3,2*%
%TO.N,GND*%
X105662500Y-92000000D03*
%TD*%
D15*
%TO.P,R4,1*%
%TO.N,PWM4*%
X154980000Y-92920000D03*
%TO.P,R4,2*%
%TO.N,GATE4*%
X158080000Y-92920000D03*
%TD*%
D24*
%TO.P,U2,1*%
%TO.N,GND*%
X147350000Y-87950000D03*
D25*
%TO.P,U2,2*%
%TO.N,SWITCHED_SYSTEM+*%
X148850000Y-87862500D03*
D24*
%TO.P,U2,3*%
%TO.N,HAPTIC_3V3_B*%
X150350000Y-87950000D03*
%TD*%
D12*
%TO.P,C12,1*%
%TO.N,HAPTIC_3V3_B*%
X154810000Y-84062500D03*
%TO.P,C12,2*%
%TO.N,M4-*%
X154810000Y-87187500D03*
%TD*%
D13*
%TO.P,D6,1*%
%TO.N,HAPTIC_3V3_B*%
X176100000Y-83850000D03*
%TO.P,D6,2*%
%TO.N,M6-*%
X176100000Y-87150000D03*
%TD*%
D14*
%TO.P,J7,1*%
%TO.N,PWM3*%
X135579999Y-94900000D03*
%TD*%
D19*
%TO.P,R12,1*%
%TO.N,GATE6*%
X179100000Y-92690000D03*
%TO.P,R12,2*%
%TO.N,GND*%
X179100000Y-95790000D03*
%TD*%
%TO.P,R9,1*%
%TO.N,GATE3*%
X140800000Y-92690000D03*
%TO.P,R9,2*%
%TO.N,GND*%
X140800000Y-95790000D03*
%TD*%
D26*
%TO.P,J15,1*%
%TO.N,HAPTIC_3V3_B*%
X159700000Y-82250000D03*
%TD*%
D14*
%TO.P,J6,1*%
%TO.N,PWM2*%
X126130000Y-94900000D03*
%TD*%
D12*
%TO.P,C4,1*%
%TO.N,SWITCHED_SYSTEM+*%
X145090000Y-83162500D03*
%TO.P,C4,2*%
%TO.N,GND*%
X145090000Y-86287500D03*
%TD*%
D15*
%TO.P,R1,1*%
%TO.N,PWM1*%
X116679999Y-92920000D03*
%TO.P,R1,2*%
%TO.N,GATE1*%
X119779999Y-92920000D03*
%TD*%
D16*
%TO.P,Q3,1*%
%TO.N,GATE3*%
X140800000Y-90900000D03*
%TO.P,Q3,2*%
%TO.N,GND*%
X140800000Y-89000000D03*
%TO.P,Q3,3*%
%TO.N,M3-*%
X137800000Y-89950000D03*
%TD*%
D13*
%TO.P,D3,1*%
%TO.N,HAPTIC_3V3_A*%
X137800000Y-83850000D03*
%TO.P,D3,2*%
%TO.N,M3-*%
X137800000Y-87150000D03*
%TD*%
D12*
%TO.P,C2,1*%
%TO.N,SWITCHED_SYSTEM+*%
X142700000Y-83162500D03*
%TO.P,C2,2*%
%TO.N,GND*%
X142700000Y-86287500D03*
%TD*%
D17*
%TO.P,C8,1*%
%TO.N,HAPTIC_3V3_B*%
X151849999Y-94750000D03*
%TO.P,C8,2*%
%TO.N,GND*%
X147449999Y-94750000D03*
%TD*%
D12*
%TO.P,C13,1*%
%TO.N,HAPTIC_3V3_B*%
X164260000Y-84062500D03*
%TO.P,C13,2*%
%TO.N,M5-*%
X164260000Y-87187500D03*
%TD*%
D10*
%TO.P,J12,1*%
%TO.N,M1-*%
X116750000Y-89950000D03*
%TD*%
D19*
%TO.P,R11,1*%
%TO.N,GATE5*%
X169649999Y-92690000D03*
%TO.P,R11,2*%
%TO.N,GND*%
X169649999Y-95790000D03*
%TD*%
D23*
%TO.P,C1,1*%
%TO.N,SWITCHED_SYSTEM+*%
X102537500Y-89600000D03*
%TO.P,C1,2*%
%TO.N,GND*%
X105662500Y-89600000D03*
%TD*%
D12*
%TO.P,C16,1*%
%TO.N,HAPTIC_3V3_A*%
X130740000Y-84062500D03*
%TO.P,C16,2*%
%TO.N,GND*%
X130740000Y-87187500D03*
%TD*%
D16*
%TO.P,Q1,1*%
%TO.N,GATE1*%
X121900000Y-90900000D03*
%TO.P,Q1,2*%
%TO.N,GND*%
X121900000Y-89000000D03*
%TO.P,Q1,3*%
%TO.N,M1-*%
X118900000Y-89950000D03*
%TD*%
D10*
%TO.P,J18,1*%
%TO.N,M6-*%
X173950000Y-89950000D03*
%TD*%
%TO.N,M5-*%
D27*
X166650000Y-87150000D02*
X166650000Y-89950000D01*
X166650000Y-89950000D02*
X164500000Y-89950000D01*
X164260000Y-87187500D02*
X164260000Y-89950000D01*
%TO.N,M2-*%
X128350000Y-89950000D02*
X126200000Y-89950000D01*
X128350000Y-87150000D02*
X128350000Y-89950000D01*
X125960000Y-87187500D02*
X125960000Y-89950000D01*
%TO.N,SWITCHED_SYSTEM+*%
D28*
X101750000Y-85850000D02*
X101750000Y-81750000D01*
X142700000Y-81750000D02*
X145090000Y-81750000D01*
X101750000Y-96750000D02*
X101750000Y-94250000D01*
X102500000Y-96750000D02*
X101750000Y-96750000D01*
X101750000Y-94250000D02*
X102000000Y-94250000D01*
X101750000Y-85850000D02*
X104000000Y-85850000D01*
X101750000Y-92000000D02*
X101750000Y-89600000D01*
D27*
X142700000Y-81750000D02*
X142700000Y-83162500D01*
D28*
X101750000Y-94250000D02*
X101750000Y-92000000D01*
X145090000Y-81750000D02*
X148850000Y-81750000D01*
X148850000Y-81750000D02*
X148850000Y-84000000D01*
X101750000Y-81750000D02*
X142700000Y-81750000D01*
D27*
X101750000Y-92000000D02*
X102537500Y-92000000D01*
D28*
X101750000Y-89600000D02*
X101750000Y-85850000D01*
D27*
X101750000Y-89600000D02*
X102537500Y-89600000D01*
X145090000Y-81750000D02*
X145090000Y-83162500D01*
%TO.N,HAPTIC_3V3_B*%
D29*
X150412500Y-90600000D02*
X151850000Y-90600000D01*
X173709999Y-83400000D02*
X173709999Y-84062500D01*
X159700000Y-83400000D02*
X159700000Y-82250000D01*
X151850000Y-90600000D02*
X151850000Y-94750000D01*
X157200000Y-83400000D02*
X159590000Y-83400000D01*
X178490000Y-83400000D02*
X178490000Y-84062500D01*
X159700000Y-83400000D02*
X164260000Y-83400000D01*
X151850000Y-83400000D02*
X154810000Y-83400000D01*
X164260000Y-83400000D02*
X166650000Y-83400000D01*
X169040000Y-83400000D02*
X173709999Y-83400000D01*
X166650000Y-83400000D02*
X169040000Y-83400000D01*
X173709999Y-83400000D02*
X176100000Y-83400000D01*
X176100000Y-83400000D02*
X178490000Y-83400000D01*
X159590000Y-83400000D02*
X159700000Y-83400000D01*
X151850000Y-90600000D02*
X151850000Y-83400000D01*
X164260000Y-83400000D02*
X164260000Y-84062500D01*
X169040000Y-83400000D02*
X169040000Y-84062500D01*
X166650000Y-83400000D02*
X166650000Y-83850000D01*
X159590000Y-83400000D02*
X159590000Y-84062500D01*
X154810000Y-83400000D02*
X157200000Y-83400000D01*
X157200000Y-83400000D02*
X157200000Y-83850000D01*
X154810000Y-83400000D02*
X154810000Y-84062500D01*
X151850000Y-94750000D02*
X151850000Y-94750000D01*
X176100000Y-83400000D02*
X176100000Y-83850000D01*
X150350000Y-87950000D02*
X150412500Y-90600000D01*
%TO.N,GND*%
D27*
X105662500Y-89600000D02*
X105662500Y-92000000D01*
D28*
X109200000Y-97250000D02*
X109200000Y-97000000D01*
D27*
X121900000Y-89000000D02*
X123800000Y-89000000D01*
D28*
X147287500Y-94750000D02*
X147287500Y-97250000D01*
X133250000Y-97250000D02*
X140800000Y-97250000D01*
D27*
X140190000Y-87187500D02*
X140190000Y-89000000D01*
X169040000Y-87187500D02*
X169040000Y-89000000D01*
D29*
X181000000Y-89000000D02*
X181000000Y-97250000D01*
D28*
X131350000Y-97250000D02*
X133250000Y-97250000D01*
X121900000Y-97250000D02*
X123800000Y-97250000D01*
D27*
X140190000Y-89000000D02*
X140800000Y-89000000D01*
X147350000Y-87200000D02*
X147350000Y-87950000D01*
D28*
X142700000Y-97250000D02*
X147287500Y-97250000D01*
X147287500Y-97250000D02*
X160200000Y-97250000D01*
X171550000Y-97250000D02*
X179100000Y-97250000D01*
D27*
X169650000Y-95789999D02*
X169650000Y-97250000D01*
X145090000Y-86287500D02*
X145090000Y-87200000D01*
D29*
X142700000Y-89000000D02*
X142700000Y-97250000D01*
D28*
X123800000Y-97250000D02*
X131350000Y-97250000D01*
D27*
X169650000Y-89000000D02*
X171550000Y-89000000D01*
X160200000Y-95789999D02*
X160200000Y-97250000D01*
X145090000Y-87200000D02*
X147350000Y-87200000D01*
X159590000Y-87187500D02*
X159590000Y-89000000D01*
X107950000Y-87350000D02*
X110600000Y-87350000D01*
X159590000Y-89000000D02*
X160200000Y-89000000D01*
X105662500Y-92000000D02*
X108950000Y-92000000D01*
X121900000Y-95789999D02*
X121900000Y-97250000D01*
D29*
X123800000Y-89000000D02*
X123800000Y-97250000D01*
D27*
X179100000Y-95789999D02*
X179100000Y-97250000D01*
X140800000Y-89000000D02*
X142700000Y-89000000D01*
X140800000Y-95789999D02*
X140800000Y-97250000D01*
X131350000Y-89000000D02*
X133250000Y-89000000D01*
D28*
X140800000Y-97250000D02*
X142700000Y-97250000D01*
D27*
X178490000Y-87187500D02*
X178490000Y-89000000D01*
X121289999Y-89000000D02*
X121900000Y-89000000D01*
X178490000Y-89000000D02*
X179100000Y-89000000D01*
D29*
X142700000Y-86287500D02*
X142700000Y-89000000D01*
D27*
X142700000Y-86287500D02*
X145090000Y-86287500D01*
D28*
X108950000Y-97250000D02*
X109200000Y-97250000D01*
D27*
X130740000Y-89000000D02*
X131350000Y-89000000D01*
D28*
X162100000Y-97250000D02*
X169650000Y-97250000D01*
D27*
X107950000Y-87350000D02*
X107950000Y-91350000D01*
X160200000Y-89000000D02*
X162100000Y-89000000D01*
D29*
X162100000Y-89000000D02*
X162100000Y-97250000D01*
D27*
X169040000Y-89000000D02*
X169650000Y-89000000D01*
X147287500Y-90600000D02*
X147287500Y-94750000D01*
D29*
X171550000Y-89000000D02*
X171550000Y-97250000D01*
D28*
X105662500Y-92000000D02*
X105662500Y-96750000D01*
X179100000Y-97250000D02*
X181000000Y-97250000D01*
X160200000Y-97250000D02*
X162100000Y-97250000D01*
D27*
X130740000Y-87187500D02*
X130740000Y-89000000D01*
D28*
X108950000Y-91350000D02*
X108950000Y-97250000D01*
D27*
X147350000Y-87950000D02*
X147287500Y-90600000D01*
D28*
X169650000Y-97250000D02*
X171550000Y-97250000D01*
D29*
X133250000Y-89000000D02*
X133250000Y-97250000D01*
D28*
X109200000Y-97250000D02*
X121900000Y-97250000D01*
D27*
X179100000Y-89000000D02*
X181000000Y-89000000D01*
D28*
X106200000Y-96750000D02*
X108950000Y-97250000D01*
D27*
X131350000Y-95789999D02*
X131350000Y-97250000D01*
X121289999Y-87187500D02*
X121289999Y-89000000D01*
%TO.N,HAPTIC_3V3_A*%
D29*
X135410000Y-83400000D02*
X137800000Y-83400000D01*
X125960000Y-83400000D02*
X125960000Y-84062500D01*
X121289999Y-83400000D02*
X121289999Y-84062500D01*
X130740000Y-83400000D02*
X135410000Y-83400000D01*
X116510000Y-83400000D02*
X116510000Y-84062500D01*
X107950000Y-84350000D02*
X110600000Y-84350000D01*
X113450000Y-86700000D02*
X113450000Y-91350000D01*
X113450000Y-83400000D02*
X113450000Y-86700000D01*
X135410000Y-83400000D02*
X135410000Y-84062500D01*
X107950000Y-83400000D02*
X107950000Y-84350000D01*
X118900000Y-83400000D02*
X121289999Y-83400000D01*
X110600000Y-83400000D02*
X113450000Y-83400000D01*
X137800000Y-83400000D02*
X137800000Y-83850000D01*
X140190000Y-83400000D02*
X140190000Y-84062500D01*
X137800000Y-83400000D02*
X140190000Y-83400000D01*
X128350000Y-83400000D02*
X130740000Y-83400000D01*
X113450000Y-83400000D02*
X116510000Y-83400000D01*
X125960000Y-83400000D02*
X128350000Y-83400000D01*
X110600000Y-83400000D02*
X110600000Y-84287500D01*
X121289999Y-83400000D02*
X125960000Y-83400000D01*
X107950000Y-83400000D02*
X110600000Y-83400000D01*
X130740000Y-83400000D02*
X130740000Y-84062500D01*
X113450000Y-91350000D02*
X113350000Y-91350000D01*
X128350000Y-83400000D02*
X128350000Y-83850000D01*
X116510000Y-83400000D02*
X118900000Y-83400000D01*
X118900000Y-83400000D02*
X118900000Y-83850000D01*
%TO.N,M1-*%
D27*
X118900000Y-89950000D02*
X116750000Y-89950000D01*
X116510000Y-87187500D02*
X116510000Y-89950000D01*
X118900000Y-87150000D02*
X118900000Y-89950000D01*
%TO.N,PWM1*%
D30*
X116680000Y-92920000D02*
X116680000Y-94900000D01*
%TO.N,M3-*%
D27*
X137800000Y-89950000D02*
X135650000Y-89950000D01*
X135410000Y-87187500D02*
X135410000Y-89950000D01*
X137800000Y-87150000D02*
X137800000Y-89950000D01*
%TO.N,M6-*%
X173709999Y-87187500D02*
X173709999Y-89950000D01*
X176100000Y-89950000D02*
X173950000Y-89950000D01*
X176100000Y-87150000D02*
X176100000Y-89950000D01*
%TO.N,PWM5*%
D30*
X164430000Y-92920000D02*
X164430000Y-94900000D01*
%TO.N,GATE5*%
X167530000Y-92920000D02*
X167530000Y-92690000D01*
X169650000Y-90900000D02*
X169650000Y-92690000D01*
X167530000Y-92690000D02*
X169650000Y-92690000D01*
%TO.N,GATE4*%
X158079999Y-92920000D02*
X158079999Y-92690000D01*
X160200000Y-90900000D02*
X160200000Y-92690000D01*
X158079999Y-92690000D02*
X160200000Y-92690000D01*
%TO.N,M4-*%
D27*
X157200000Y-89950000D02*
X155050000Y-89950000D01*
X154810000Y-87187500D02*
X154810000Y-89950000D01*
X157200000Y-87150000D02*
X157200000Y-89950000D01*
%TO.N,GATE2*%
D30*
X129229999Y-92690000D02*
X131350000Y-92690000D01*
X131350000Y-90900000D02*
X131350000Y-92690000D01*
X129229999Y-92920000D02*
X129229999Y-92690000D01*
%TO.N,PWM2*%
X126130000Y-92920000D02*
X126130000Y-94900000D01*
%TO.N,PWM6*%
X173880000Y-92920000D02*
X173880000Y-94900000D01*
%TO.N,GATE1*%
X119780000Y-92920000D02*
X119780000Y-92690000D01*
X121900000Y-90900000D02*
X121900000Y-92690000D01*
X119780000Y-92690000D02*
X121900000Y-92690000D01*
%TO.N,PWM4*%
X154980000Y-92920000D02*
X154980000Y-94900000D01*
%TO.N,GATE6*%
X176980000Y-92920000D02*
X176980000Y-92690000D01*
X176980000Y-92690000D02*
X179100000Y-92690000D01*
X179100000Y-90900000D02*
X179100000Y-92690000D01*
%TO.N,PWM3*%
X135579999Y-92920000D02*
X135579999Y-94900000D01*
%TO.N,GATE3*%
X140800000Y-90900000D02*
X140800000Y-92690000D01*
X138680000Y-92920000D02*
X138680000Y-92690000D01*
X138680000Y-92690000D02*
X140800000Y-92690000D01*
%TD*%
%TA.AperFunction,Conductor*%
%TO.N,SWITCHED_SYSTEM+*%
G36*
X150696288Y-81019454D02*
G01*
X150777070Y-81073430D01*
X150831046Y-81154212D01*
X150850000Y-81249500D01*
X150850000Y-83284149D01*
X150849500Y-83294330D01*
X150849500Y-85751000D01*
X150830546Y-85846288D01*
X150776570Y-85927070D01*
X150695788Y-85981046D01*
X150600500Y-86000000D01*
X146898999Y-86000000D01*
X146803711Y-85981046D01*
X146722929Y-85927070D01*
X146668953Y-85846288D01*
X146649999Y-85751000D01*
X146649999Y-81249500D01*
X146668953Y-81154212D01*
X146722929Y-81073430D01*
X146803711Y-81019454D01*
X146898999Y-81000500D01*
X150601000Y-81000500D01*
X150696288Y-81019454D01*
G37*
%TD.AperFunction*%
%TD*%
%TA.AperFunction,Conductor*%
%TO.N,GND*%
G36*
X124345968Y-84405282D02*
G01*
X124367621Y-84409589D01*
X124457379Y-84446767D01*
X124526079Y-84515465D01*
X124526099Y-84515495D01*
X124528109Y-84518504D01*
X124562481Y-84595866D01*
X124565720Y-84608696D01*
X124567087Y-84615968D01*
X124567317Y-84615917D01*
X124570001Y-84627799D01*
X124625184Y-84794330D01*
X124625186Y-84794334D01*
X124717287Y-84943655D01*
X124724734Y-84951102D01*
X124755692Y-84988825D01*
X124768525Y-85008030D01*
X124805706Y-85097789D01*
X124805707Y-85097792D01*
X124810215Y-85120454D01*
X124815000Y-85169034D01*
X124815000Y-86080964D01*
X124810215Y-86129544D01*
X124805707Y-86152206D01*
X124768526Y-86241965D01*
X124755694Y-86261169D01*
X124724735Y-86298895D01*
X124717292Y-86306338D01*
X124717284Y-86306348D01*
X124625185Y-86455664D01*
X124625182Y-86455670D01*
X124570003Y-86622191D01*
X124569999Y-86622220D01*
X124559501Y-86724968D01*
X124559500Y-86724995D01*
X124559500Y-87650009D01*
X124562600Y-87680351D01*
X124570001Y-87752800D01*
X124597498Y-87835780D01*
X124600500Y-87844839D01*
X124602772Y-87863128D01*
X124637683Y-87956908D01*
X124653163Y-88052822D01*
X124630760Y-88147359D01*
X124630758Y-88147363D01*
X124629252Y-88150655D01*
X124581436Y-88220555D01*
X124573724Y-88228495D01*
X124546694Y-88252551D01*
X124521731Y-88271706D01*
X124521719Y-88271716D01*
X124521716Y-88271719D01*
X124521707Y-88271729D01*
X124428329Y-88393422D01*
X124428327Y-88393426D01*
X124425466Y-88397155D01*
X124425464Y-88397158D01*
X124425464Y-88397159D01*
X124408858Y-88437249D01*
X124407730Y-88439970D01*
X124407711Y-88440015D01*
X124364954Y-88543240D01*
X124349500Y-88660635D01*
X124349500Y-91242877D01*
X124351143Y-91251839D01*
X124364954Y-91356760D01*
X124364955Y-91356761D01*
X124378560Y-91389606D01*
X124378559Y-91389606D01*
X124425464Y-91502842D01*
X124432013Y-91511929D01*
X124435403Y-91515794D01*
X124476318Y-91569117D01*
X124517043Y-91622190D01*
X124521718Y-91628282D01*
X124521722Y-91628285D01*
X124521723Y-91628286D01*
X124558619Y-91656597D01*
X124558639Y-91656613D01*
X124586589Y-91678059D01*
X124586590Y-91678060D01*
X124647159Y-91724536D01*
X124727846Y-91757957D01*
X124740602Y-91766481D01*
X124776222Y-91778572D01*
X124791468Y-91784311D01*
X124793238Y-91785044D01*
X124793248Y-91785045D01*
X124795044Y-91785527D01*
X124810676Y-91790268D01*
X124839560Y-91800073D01*
X124923698Y-91848651D01*
X124982842Y-91925730D01*
X125007987Y-92019574D01*
X125008549Y-92028149D01*
X124996446Y-92122747D01*
X124990003Y-92142190D01*
X124990000Y-92142205D01*
X124989948Y-92142516D01*
X124989758Y-92144575D01*
X124988306Y-92158781D01*
X124987375Y-92167900D01*
X124979500Y-92244988D01*
X124979500Y-92244991D01*
X124979500Y-93121458D01*
X124974715Y-93170039D01*
X124970408Y-93191690D01*
X124933227Y-93281449D01*
X124864531Y-93350144D01*
X124786607Y-93402211D01*
X124770192Y-93419174D01*
X124701726Y-93471710D01*
X124701719Y-93471716D01*
X124701716Y-93471719D01*
X124701707Y-93471729D01*
X124605469Y-93597150D01*
X124604073Y-93599243D01*
X124600757Y-93608521D01*
X124587468Y-93640601D01*
X124583113Y-93651117D01*
X124569017Y-93685146D01*
X124544954Y-93743239D01*
X124529500Y-93860635D01*
X124529500Y-95942877D01*
X124531143Y-95951839D01*
X124544954Y-96056757D01*
X124544954Y-96056758D01*
X124544954Y-96056760D01*
X124544955Y-96056761D01*
X124553690Y-96077848D01*
X124562967Y-96100244D01*
X124562967Y-96100245D01*
X124605460Y-96202832D01*
X124605464Y-96202842D01*
X124612013Y-96211928D01*
X124615398Y-96215788D01*
X124679247Y-96298998D01*
X124679248Y-96298999D01*
X124679247Y-96298999D01*
X124701721Y-96328287D01*
X124701750Y-96328316D01*
X124702804Y-96329116D01*
X124827156Y-96424534D01*
X124827158Y-96424536D01*
X124973235Y-96485044D01*
X125014209Y-96490437D01*
X125090639Y-96500500D01*
X127169360Y-96500499D01*
X127286762Y-96485044D01*
X127432841Y-96424536D01*
X127558282Y-96328282D01*
X127654536Y-96202841D01*
X127715044Y-96056762D01*
X127730500Y-95939361D01*
X127730499Y-94318520D01*
X127735282Y-94269951D01*
X127739352Y-94249488D01*
X127776530Y-94159734D01*
X127845228Y-94091034D01*
X127934988Y-94053854D01*
X127934991Y-94053853D01*
X127942901Y-94052279D01*
X127955455Y-94049783D01*
X128004026Y-94045000D01*
X128140966Y-94045000D01*
X128189546Y-94049785D01*
X128212208Y-94054293D01*
X128277320Y-94076979D01*
X128290060Y-94083517D01*
X128341559Y-94117927D01*
X128361344Y-94137712D01*
X128510666Y-94229814D01*
X128510669Y-94229815D01*
X128510667Y-94229815D01*
X128674310Y-94284040D01*
X128677203Y-94284999D01*
X128779991Y-94295500D01*
X129680008Y-94295499D01*
X129782797Y-94284999D01*
X129874399Y-94254644D01*
X129922015Y-94243906D01*
X129942721Y-94241333D01*
X130039618Y-94248396D01*
X130126438Y-94292002D01*
X130189921Y-94365441D01*
X130190188Y-94365911D01*
X130219503Y-94449227D01*
X130221818Y-94463575D01*
X130221819Y-94463577D01*
X130225000Y-94503253D01*
X130225000Y-94701671D01*
X130220215Y-94750251D01*
X130215707Y-94772913D01*
X130178528Y-94862670D01*
X130165695Y-94881876D01*
X130134729Y-94919609D01*
X130132684Y-94921653D01*
X130132683Y-94921655D01*
X130055919Y-95046108D01*
X130040639Y-95070880D01*
X129985496Y-95237292D01*
X129985492Y-95237319D01*
X129975001Y-95340000D01*
X129975000Y-95340013D01*
X129975000Y-95340018D01*
X129975000Y-95539999D01*
X129975001Y-95540000D01*
X129975002Y-95540000D01*
X129982341Y-95543040D01*
X130000054Y-95544785D01*
X130005081Y-95545785D01*
X130094840Y-95582966D01*
X130163538Y-95651666D01*
X130200716Y-95741426D01*
X130200715Y-95838581D01*
X130163534Y-95928340D01*
X130094834Y-95997038D01*
X130005081Y-96034215D01*
X130000054Y-96035215D01*
X129982342Y-96036959D01*
X129975003Y-96039999D01*
X129975002Y-96040000D01*
X129975001Y-96040001D01*
X129975001Y-96239984D01*
X129977144Y-96260968D01*
X129985493Y-96342697D01*
X129985494Y-96342701D01*
X129985495Y-96342702D01*
X129985634Y-96343121D01*
X130037949Y-96501000D01*
X130040640Y-96509119D01*
X130040641Y-96509121D01*
X130132681Y-96658341D01*
X130132684Y-96658345D01*
X130256654Y-96782315D01*
X130256658Y-96782318D01*
X130381107Y-96859079D01*
X130381108Y-96859080D01*
X130395412Y-96867902D01*
X130405878Y-96874358D01*
X130405879Y-96874359D01*
X130572298Y-96929504D01*
X130572305Y-96929505D01*
X130675023Y-96939999D01*
X131099999Y-96939999D01*
X131100000Y-96939999D01*
X131100000Y-96939997D01*
X131102023Y-96937974D01*
X131104783Y-96909956D01*
X131105783Y-96904928D01*
X131142961Y-96815167D01*
X131211658Y-96746467D01*
X131301416Y-96709285D01*
X131398571Y-96709282D01*
X131488332Y-96746460D01*
X131557032Y-96815157D01*
X131594214Y-96904915D01*
X131594217Y-96904928D01*
X131595217Y-96909956D01*
X131597606Y-96934219D01*
X131599999Y-96939996D01*
X131600000Y-96939997D01*
X131600000Y-96939998D01*
X131600001Y-96939999D01*
X132024957Y-96939999D01*
X132024968Y-96939999D01*
X132024984Y-96939998D01*
X132127699Y-96929505D01*
X132127702Y-96929504D01*
X132294119Y-96874359D01*
X132294121Y-96874358D01*
X132443341Y-96782318D01*
X132443345Y-96782315D01*
X132567315Y-96658345D01*
X132567318Y-96658341D01*
X132659358Y-96509121D01*
X132659359Y-96509120D01*
X132714504Y-96342701D01*
X132714505Y-96342694D01*
X132723518Y-96254481D01*
X132724994Y-96240036D01*
X132725000Y-96239977D01*
X132725000Y-96040002D01*
X132725000Y-96040001D01*
X132724999Y-96040000D01*
X132724998Y-96040000D01*
X132724997Y-96039999D01*
X132717660Y-96036960D01*
X132699956Y-96035217D01*
X132694928Y-96034217D01*
X132605167Y-95997039D01*
X132536467Y-95928342D01*
X132499285Y-95838584D01*
X132499282Y-95741429D01*
X132536460Y-95651668D01*
X132605157Y-95582968D01*
X132694915Y-95545786D01*
X132694928Y-95545783D01*
X132699956Y-95544783D01*
X132717659Y-95543039D01*
X132724996Y-95540000D01*
X132724998Y-95540000D01*
X132724999Y-95539999D01*
X132724999Y-95340032D01*
X132724998Y-95340015D01*
X132714505Y-95237300D01*
X132714504Y-95237297D01*
X132659359Y-95070880D01*
X132659358Y-95070878D01*
X132567318Y-94921658D01*
X132567315Y-94921654D01*
X132565267Y-94919606D01*
X132534306Y-94881879D01*
X132521471Y-94862670D01*
X132484291Y-94772910D01*
X132484290Y-94772903D01*
X132479783Y-94750241D01*
X132475000Y-94701671D01*
X132475000Y-93779034D01*
X132479785Y-93730456D01*
X132484293Y-93707793D01*
X132521465Y-93618044D01*
X132534300Y-93598833D01*
X132565276Y-93561090D01*
X132567712Y-93558656D01*
X132659814Y-93409334D01*
X132714999Y-93242797D01*
X132725500Y-93140009D01*
X132725499Y-92239992D01*
X132714999Y-92137203D01*
X132659814Y-91970666D01*
X132608251Y-91887070D01*
X132586827Y-91843223D01*
X132579125Y-91822530D01*
X132563649Y-91726622D01*
X132586052Y-91632090D01*
X132590583Y-91622188D01*
X132640939Y-91549716D01*
X132655472Y-91535185D01*
X132743478Y-91389606D01*
X132794086Y-91227196D01*
X132800500Y-91156616D01*
X132800500Y-90643384D01*
X132800499Y-90643369D01*
X132794087Y-90572811D01*
X132794086Y-90572808D01*
X132794086Y-90572804D01*
X132743478Y-90410394D01*
X132743477Y-90410393D01*
X132743477Y-90410391D01*
X132655471Y-90264813D01*
X132617929Y-90227271D01*
X132591472Y-90187674D01*
X132554291Y-90097915D01*
X132554289Y-90097905D01*
X132549783Y-90075248D01*
X132545000Y-90026678D01*
X132545000Y-89872615D01*
X132549783Y-89824045D01*
X132554290Y-89801383D01*
X132591467Y-89711623D01*
X132604310Y-89692401D01*
X132635268Y-89654678D01*
X132655077Y-89634870D01*
X132743016Y-89489402D01*
X132743018Y-89489397D01*
X132793591Y-89327101D01*
X132799998Y-89256591D01*
X132800000Y-89256567D01*
X132800000Y-89250001D01*
X132799999Y-89250000D01*
X132799998Y-89250000D01*
X132799997Y-89249999D01*
X132794220Y-89247606D01*
X132769956Y-89245217D01*
X132764928Y-89244217D01*
X132675167Y-89207039D01*
X132606467Y-89138342D01*
X132569285Y-89048584D01*
X132569282Y-88951429D01*
X132606460Y-88861668D01*
X132675157Y-88792968D01*
X132764915Y-88755786D01*
X132764928Y-88755783D01*
X132769956Y-88754783D01*
X132794219Y-88752393D01*
X132799996Y-88750000D01*
X132799998Y-88750000D01*
X132799999Y-88749999D01*
X132799999Y-88743431D01*
X132793590Y-88672894D01*
X132743018Y-88510602D01*
X132743016Y-88510597D01*
X132655075Y-88365126D01*
X132635264Y-88345315D01*
X132630170Y-88339107D01*
X132627330Y-88337381D01*
X132617929Y-88327979D01*
X132563953Y-88247197D01*
X132558181Y-88218182D01*
X132545000Y-88205001D01*
X132545000Y-88205000D01*
X132544999Y-88205000D01*
X132538244Y-88205000D01*
X132442956Y-88186046D01*
X132409427Y-88169090D01*
X132389398Y-88156982D01*
X132389396Y-88156981D01*
X132274421Y-88121153D01*
X132247675Y-88106596D01*
X132247670Y-88106593D01*
X132238128Y-88101400D01*
X132234566Y-88099461D01*
X132159934Y-88037267D01*
X132114780Y-87951242D01*
X132105984Y-87854490D01*
X132107970Y-87835778D01*
X132119218Y-87783741D01*
X132129505Y-87752697D01*
X132129505Y-87752694D01*
X132129505Y-87752685D01*
X132130449Y-87746844D01*
X132130794Y-87740077D01*
X132133034Y-87718149D01*
X132139999Y-87649981D01*
X132140000Y-87649971D01*
X132140000Y-87437501D01*
X132139999Y-87437500D01*
X132139998Y-87437500D01*
X132139997Y-87437499D01*
X132134220Y-87435106D01*
X132109956Y-87432717D01*
X132104928Y-87431717D01*
X132015167Y-87394539D01*
X131946467Y-87325842D01*
X131909285Y-87236084D01*
X131909282Y-87138929D01*
X131946460Y-87049168D01*
X132015157Y-86980468D01*
X132104915Y-86943286D01*
X132104928Y-86943283D01*
X132109956Y-86942283D01*
X132134219Y-86939893D01*
X132139996Y-86937500D01*
X132139998Y-86937500D01*
X132139999Y-86937499D01*
X132139999Y-86725032D01*
X132139998Y-86725015D01*
X132129505Y-86622300D01*
X132129504Y-86622297D01*
X132074359Y-86455880D01*
X132074358Y-86455878D01*
X131982318Y-86306658D01*
X131982315Y-86306654D01*
X131981999Y-86306338D01*
X131975266Y-86299604D01*
X131944309Y-86261883D01*
X131939811Y-86255152D01*
X131931473Y-86242672D01*
X131894293Y-86152916D01*
X131894290Y-86152903D01*
X131889783Y-86130241D01*
X131885000Y-86081671D01*
X131885000Y-85169034D01*
X131889785Y-85120456D01*
X131894293Y-85097793D01*
X131931464Y-85008047D01*
X131933430Y-85005103D01*
X131957927Y-84968440D01*
X131982712Y-84943656D01*
X132074814Y-84794334D01*
X132129999Y-84627797D01*
X132130012Y-84627662D01*
X132130368Y-84624191D01*
X132131694Y-84619874D01*
X132132845Y-84614501D01*
X132133315Y-84614601D01*
X132144057Y-84579647D01*
X132190167Y-84494134D01*
X132265487Y-84432777D01*
X132268699Y-84431075D01*
X132349188Y-84404731D01*
X132360136Y-84403127D01*
X132396216Y-84400500D01*
X133747396Y-84400500D01*
X133795968Y-84405282D01*
X133817621Y-84409589D01*
X133907379Y-84446767D01*
X133976079Y-84515465D01*
X133976099Y-84515495D01*
X133978109Y-84518504D01*
X134012481Y-84595866D01*
X134015720Y-84608696D01*
X134017087Y-84615968D01*
X134017317Y-84615917D01*
X134020001Y-84627799D01*
X134075184Y-84794330D01*
X134075186Y-84794334D01*
X134167287Y-84943655D01*
X134174734Y-84951102D01*
X134205692Y-84988825D01*
X134218525Y-85008030D01*
X134255706Y-85097789D01*
X134255707Y-85097792D01*
X134260215Y-85120454D01*
X134265000Y-85169034D01*
X134265000Y-86080964D01*
X134260215Y-86129544D01*
X134255707Y-86152206D01*
X134218526Y-86241965D01*
X134205694Y-86261169D01*
X134174735Y-86298895D01*
X134167292Y-86306338D01*
X134167284Y-86306348D01*
X134075185Y-86455664D01*
X134075182Y-86455670D01*
X134020003Y-86622191D01*
X134019999Y-86622220D01*
X134009501Y-86724968D01*
X134009500Y-86724995D01*
X134009500Y-87650009D01*
X134012600Y-87680351D01*
X134020001Y-87752800D01*
X134047498Y-87835780D01*
X134050500Y-87844839D01*
X134052772Y-87863128D01*
X134087683Y-87956908D01*
X134103163Y-88052822D01*
X134080760Y-88147359D01*
X134080758Y-88147363D01*
X134079252Y-88150655D01*
X134031436Y-88220555D01*
X134023724Y-88228495D01*
X133996694Y-88252551D01*
X133971731Y-88271706D01*
X133971719Y-88271716D01*
X133971716Y-88271719D01*
X133971707Y-88271729D01*
X133878329Y-88393422D01*
X133878327Y-88393426D01*
X133875466Y-88397155D01*
X133875464Y-88397158D01*
X133875464Y-88397159D01*
X133858858Y-88437249D01*
X133857730Y-88439970D01*
X133857711Y-88440015D01*
X133814954Y-88543240D01*
X133799500Y-88660635D01*
X133799500Y-91242877D01*
X133801143Y-91251839D01*
X133814954Y-91356760D01*
X133814955Y-91356761D01*
X133828560Y-91389606D01*
X133828559Y-91389606D01*
X133875464Y-91502842D01*
X133882013Y-91511929D01*
X133885403Y-91515794D01*
X133926318Y-91569117D01*
X133967043Y-91622190D01*
X133971718Y-91628282D01*
X133971722Y-91628285D01*
X133971723Y-91628286D01*
X134008619Y-91656597D01*
X134008639Y-91656613D01*
X134036589Y-91678059D01*
X134036590Y-91678060D01*
X134097159Y-91724536D01*
X134177846Y-91757957D01*
X134190602Y-91766481D01*
X134226222Y-91778572D01*
X134241468Y-91784311D01*
X134243238Y-91785044D01*
X134243248Y-91785045D01*
X134245044Y-91785527D01*
X134260676Y-91790268D01*
X134289560Y-91800073D01*
X134373698Y-91848651D01*
X134432842Y-91925730D01*
X134457987Y-92019574D01*
X134458549Y-92028149D01*
X134446446Y-92122747D01*
X134440003Y-92142190D01*
X134440000Y-92142205D01*
X134439948Y-92142516D01*
X134439758Y-92144575D01*
X134438306Y-92158781D01*
X134437375Y-92167900D01*
X134429500Y-92244988D01*
X134429500Y-92244991D01*
X134429500Y-93121457D01*
X134424713Y-93170045D01*
X134420405Y-93191698D01*
X134383222Y-93281456D01*
X134314534Y-93350143D01*
X134236613Y-93402210D01*
X134220206Y-93419163D01*
X134151724Y-93471711D01*
X134151718Y-93471716D01*
X134151715Y-93471719D01*
X134151706Y-93471729D01*
X134055468Y-93597150D01*
X134054072Y-93599243D01*
X134050756Y-93608521D01*
X134037467Y-93640601D01*
X134033112Y-93651117D01*
X134019016Y-93685146D01*
X133994953Y-93743239D01*
X133979499Y-93860635D01*
X133979499Y-95942877D01*
X133981142Y-95951839D01*
X133994953Y-96056757D01*
X133994953Y-96056758D01*
X133994953Y-96056760D01*
X133994954Y-96056761D01*
X134003689Y-96077848D01*
X134012966Y-96100244D01*
X134012966Y-96100245D01*
X134055459Y-96202832D01*
X134055463Y-96202842D01*
X134062012Y-96211928D01*
X134065397Y-96215788D01*
X134129246Y-96298998D01*
X134129247Y-96298999D01*
X134129246Y-96298999D01*
X134151720Y-96328287D01*
X134151749Y-96328316D01*
X134152803Y-96329116D01*
X134277155Y-96424534D01*
X134277157Y-96424536D01*
X134423234Y-96485044D01*
X134464208Y-96490437D01*
X134540638Y-96500500D01*
X136619359Y-96500499D01*
X136736761Y-96485044D01*
X136882840Y-96424536D01*
X137008281Y-96328282D01*
X137104535Y-96202841D01*
X137165043Y-96056762D01*
X137180499Y-95939361D01*
X137180498Y-94318520D01*
X137185281Y-94269951D01*
X137189351Y-94249488D01*
X137226529Y-94159734D01*
X137295227Y-94091034D01*
X137384987Y-94053854D01*
X137384990Y-94053853D01*
X137392900Y-94052279D01*
X137405454Y-94049783D01*
X137454025Y-94045000D01*
X137590966Y-94045000D01*
X137639546Y-94049785D01*
X137662208Y-94054293D01*
X137727320Y-94076979D01*
X137740060Y-94083517D01*
X137791559Y-94117927D01*
X137811344Y-94137712D01*
X137960666Y-94229814D01*
X137960669Y-94229815D01*
X137960667Y-94229815D01*
X138124310Y-94284040D01*
X138127203Y-94284999D01*
X138229991Y-94295500D01*
X139130008Y-94295499D01*
X139232797Y-94284999D01*
X139324399Y-94254644D01*
X139372015Y-94243906D01*
X139392721Y-94241333D01*
X139489618Y-94248396D01*
X139576438Y-94292002D01*
X139639921Y-94365441D01*
X139640188Y-94365911D01*
X139669503Y-94449227D01*
X139671818Y-94463575D01*
X139671819Y-94463577D01*
X139675000Y-94503253D01*
X139675000Y-94701671D01*
X139670215Y-94750251D01*
X139665707Y-94772913D01*
X139628528Y-94862670D01*
X139615695Y-94881876D01*
X139584729Y-94919609D01*
X139582684Y-94921653D01*
X139582683Y-94921655D01*
X139505919Y-95046108D01*
X139490639Y-95070880D01*
X139435496Y-95237292D01*
X139435492Y-95237319D01*
X139425001Y-95340000D01*
X139425000Y-95340013D01*
X139425000Y-95340018D01*
X139425000Y-95539999D01*
X139425001Y-95540000D01*
X139425002Y-95540000D01*
X139432341Y-95543040D01*
X139450054Y-95544785D01*
X139455081Y-95545785D01*
X139544840Y-95582966D01*
X139613538Y-95651666D01*
X139650716Y-95741426D01*
X139650715Y-95838581D01*
X139613534Y-95928340D01*
X139544834Y-95997038D01*
X139455081Y-96034215D01*
X139450054Y-96035215D01*
X139432342Y-96036959D01*
X139425003Y-96039999D01*
X139425002Y-96040000D01*
X139425001Y-96040001D01*
X139425001Y-96239984D01*
X139427144Y-96260968D01*
X139435493Y-96342697D01*
X139435494Y-96342701D01*
X139435495Y-96342702D01*
X139435634Y-96343121D01*
X139487949Y-96501000D01*
X139490640Y-96509119D01*
X139490641Y-96509121D01*
X139582681Y-96658341D01*
X139582684Y-96658345D01*
X139706654Y-96782315D01*
X139706658Y-96782318D01*
X139831107Y-96859079D01*
X139831108Y-96859080D01*
X139845412Y-96867902D01*
X139855878Y-96874358D01*
X139855879Y-96874359D01*
X140022298Y-96929504D01*
X140022305Y-96929505D01*
X140125023Y-96939999D01*
X140549999Y-96939999D01*
X140550000Y-96939999D01*
X140550000Y-96939997D01*
X140552023Y-96937974D01*
X140554783Y-96909956D01*
X140555783Y-96904928D01*
X140592961Y-96815167D01*
X140661658Y-96746467D01*
X140751416Y-96709285D01*
X140848571Y-96709282D01*
X140938332Y-96746460D01*
X141007032Y-96815157D01*
X141044214Y-96904915D01*
X141044217Y-96904928D01*
X141045217Y-96909956D01*
X141047606Y-96934219D01*
X141049999Y-96939996D01*
X141050000Y-96939997D01*
X141050000Y-96939998D01*
X141050001Y-96939999D01*
X141474957Y-96939999D01*
X141474968Y-96939999D01*
X141474984Y-96939998D01*
X141577699Y-96929505D01*
X141577702Y-96929504D01*
X141744119Y-96874359D01*
X141744121Y-96874358D01*
X141893341Y-96782318D01*
X141893345Y-96782315D01*
X142017315Y-96658345D01*
X142017318Y-96658341D01*
X142109358Y-96509121D01*
X142109359Y-96509120D01*
X142164504Y-96342701D01*
X142164505Y-96342694D01*
X142173518Y-96254481D01*
X142174994Y-96240036D01*
X142175000Y-96239977D01*
X142175000Y-96040002D01*
X142175000Y-96040001D01*
X142174999Y-96040000D01*
X142174998Y-96040000D01*
X142174997Y-96039999D01*
X142167660Y-96036960D01*
X142149956Y-96035217D01*
X142144928Y-96034217D01*
X142055167Y-95997039D01*
X141986467Y-95928342D01*
X141949285Y-95838584D01*
X141949282Y-95741429D01*
X141986460Y-95651668D01*
X142055157Y-95582968D01*
X142144915Y-95545786D01*
X142144928Y-95545783D01*
X142149956Y-95544783D01*
X142167659Y-95543039D01*
X142174996Y-95540000D01*
X142174998Y-95540000D01*
X142174999Y-95539999D01*
X142174999Y-95340032D01*
X142174998Y-95340015D01*
X142164505Y-95237300D01*
X142164504Y-95237297D01*
X142109359Y-95070880D01*
X142109358Y-95070878D01*
X142017318Y-94921658D01*
X142017315Y-94921654D01*
X142015267Y-94919606D01*
X141984306Y-94881879D01*
X141971471Y-94862670D01*
X141934291Y-94772910D01*
X141934290Y-94772903D01*
X141929783Y-94750241D01*
X141925000Y-94701671D01*
X141925000Y-93779034D01*
X141929785Y-93730456D01*
X141934293Y-93707793D01*
X141971465Y-93618044D01*
X141984300Y-93598833D01*
X142015276Y-93561090D01*
X142017712Y-93558656D01*
X142109814Y-93409334D01*
X142164999Y-93242797D01*
X142175500Y-93140009D01*
X142175499Y-92239992D01*
X142164999Y-92137203D01*
X142109814Y-91970666D01*
X142058251Y-91887070D01*
X142036827Y-91843223D01*
X142029125Y-91822530D01*
X142013649Y-91726622D01*
X142036052Y-91632090D01*
X142040583Y-91622188D01*
X142090939Y-91549716D01*
X142105472Y-91535185D01*
X142193478Y-91389606D01*
X142244086Y-91227196D01*
X142250500Y-91156616D01*
X142250500Y-90643384D01*
X142250499Y-90643369D01*
X142244087Y-90572811D01*
X142244086Y-90572808D01*
X142244086Y-90572804D01*
X142193478Y-90410394D01*
X142193477Y-90410393D01*
X142193477Y-90410391D01*
X142105471Y-90264813D01*
X142067929Y-90227271D01*
X142041472Y-90187674D01*
X142004291Y-90097915D01*
X142004289Y-90097905D01*
X141999783Y-90075248D01*
X141995000Y-90026678D01*
X141995000Y-89872615D01*
X141999783Y-89824045D01*
X142004290Y-89801383D01*
X142041467Y-89711623D01*
X142054310Y-89692401D01*
X142085268Y-89654678D01*
X142105077Y-89634870D01*
X142193016Y-89489402D01*
X142193018Y-89489397D01*
X142243591Y-89327101D01*
X142249998Y-89256591D01*
X142250000Y-89256567D01*
X142250000Y-89250001D01*
X142249999Y-89250000D01*
X142249998Y-89250000D01*
X142249997Y-89249999D01*
X142244220Y-89247606D01*
X142219956Y-89245217D01*
X142214928Y-89244217D01*
X142125167Y-89207039D01*
X142056467Y-89138342D01*
X142019285Y-89048584D01*
X142019282Y-88951429D01*
X142056460Y-88861668D01*
X142125157Y-88792968D01*
X142214915Y-88755786D01*
X142214928Y-88755783D01*
X142219956Y-88754783D01*
X142244219Y-88752393D01*
X142249996Y-88750000D01*
X142249998Y-88750000D01*
X142249999Y-88749999D01*
X142249999Y-88743431D01*
X142243590Y-88672894D01*
X142193018Y-88510602D01*
X142193016Y-88510597D01*
X142105075Y-88365126D01*
X142085264Y-88345315D01*
X142080170Y-88339107D01*
X142077330Y-88337381D01*
X142067929Y-88327979D01*
X142013953Y-88247197D01*
X142008181Y-88218182D01*
X141995000Y-88205001D01*
X141995000Y-88205000D01*
X141994999Y-88205000D01*
X141988244Y-88205000D01*
X141892956Y-88186046D01*
X141859427Y-88169090D01*
X141839398Y-88156982D01*
X141839396Y-88156981D01*
X141724421Y-88121153D01*
X141697675Y-88106596D01*
X141697670Y-88106593D01*
X141688128Y-88101400D01*
X141684566Y-88099461D01*
X141609934Y-88037267D01*
X141564780Y-87951242D01*
X141555984Y-87854490D01*
X141557970Y-87835778D01*
X141569218Y-87783741D01*
X141579505Y-87752697D01*
X141579505Y-87752693D01*
X141579505Y-87752687D01*
X141580448Y-87746847D01*
X141580794Y-87740077D01*
X141586897Y-87680338D01*
X141596589Y-87632523D01*
X141602720Y-87612572D01*
X141648826Y-87527061D01*
X141724151Y-87465698D01*
X141817215Y-87437833D01*
X141829334Y-87436684D01*
X141891627Y-87438610D01*
X141897294Y-87439503D01*
X141897304Y-87439505D01*
X142000023Y-87449999D01*
X142449999Y-87449999D01*
X142450000Y-87449999D01*
X142450000Y-87449997D01*
X142452570Y-87447427D01*
X142454783Y-87424956D01*
X142455783Y-87419928D01*
X142492961Y-87330167D01*
X142561658Y-87261467D01*
X142651416Y-87224285D01*
X142748571Y-87224282D01*
X142838332Y-87261460D01*
X142907032Y-87330157D01*
X142944214Y-87419915D01*
X142944217Y-87419928D01*
X142945217Y-87424956D01*
X142946960Y-87442659D01*
X142949999Y-87449996D01*
X142950000Y-87449997D01*
X142950000Y-87449998D01*
X142950001Y-87449999D01*
X143399957Y-87449999D01*
X143399968Y-87449999D01*
X143399984Y-87449998D01*
X143502699Y-87439505D01*
X143502702Y-87439504D01*
X143669119Y-87384359D01*
X143669120Y-87384358D01*
X143743410Y-87338535D01*
X143787251Y-87317112D01*
X143808916Y-87309048D01*
X143904806Y-87293570D01*
X143907600Y-87293672D01*
X143993845Y-87312460D01*
X144007278Y-87318024D01*
X144042704Y-87336139D01*
X144071194Y-87353712D01*
X144078723Y-87358356D01*
X144098832Y-87377053D01*
X144120879Y-87384358D01*
X144120879Y-87384359D01*
X144287298Y-87439504D01*
X144287305Y-87439505D01*
X144390023Y-87449999D01*
X144839999Y-87449999D01*
X144840000Y-87449999D01*
X144840000Y-87449997D01*
X144842570Y-87447427D01*
X144844783Y-87424956D01*
X144845783Y-87419928D01*
X144882961Y-87330167D01*
X144951658Y-87261467D01*
X145041416Y-87224285D01*
X145138571Y-87224282D01*
X145228332Y-87261460D01*
X145297032Y-87330157D01*
X145334214Y-87419915D01*
X145334217Y-87419928D01*
X145335217Y-87424956D01*
X145336960Y-87442659D01*
X145339999Y-87449996D01*
X145340000Y-87449997D01*
X145340000Y-87449998D01*
X145340001Y-87449999D01*
X145789957Y-87449999D01*
X145789968Y-87449999D01*
X145789984Y-87449998D01*
X145892699Y-87439505D01*
X146049404Y-87387577D01*
X146097000Y-87376843D01*
X146117712Y-87374269D01*
X146214603Y-87381326D01*
X146301425Y-87424927D01*
X146364946Y-87498423D01*
X146365214Y-87498895D01*
X146394502Y-87582161D01*
X146396818Y-87596509D01*
X146400000Y-87636188D01*
X146400000Y-87699999D01*
X146400001Y-87700000D01*
X147076473Y-87700000D01*
X147125045Y-87704783D01*
X147130786Y-87705924D01*
X147147707Y-87709290D01*
X147169096Y-87718149D01*
X147191855Y-87722414D01*
X147237454Y-87746463D01*
X147237466Y-87746468D01*
X147237470Y-87746471D01*
X147237475Y-87746474D01*
X147256270Y-87759033D01*
X147294701Y-87790702D01*
X147317740Y-87813926D01*
X147327311Y-87828375D01*
X147485573Y-87983152D01*
X147486513Y-87984526D01*
X147487897Y-87985455D01*
X147514276Y-88012047D01*
X147544532Y-88049065D01*
X147553526Y-88062525D01*
X147590707Y-88152284D01*
X147590707Y-88152285D01*
X147595215Y-88174947D01*
X147600000Y-88223527D01*
X147600000Y-89181472D01*
X147595214Y-89230057D01*
X147591144Y-89250515D01*
X147553962Y-89340273D01*
X147485261Y-89408970D01*
X147395517Y-89446144D01*
X147375060Y-89450214D01*
X147326473Y-89455000D01*
X147311027Y-89455000D01*
X147262442Y-89450214D01*
X147241984Y-89446144D01*
X147152226Y-89408962D01*
X147083529Y-89340261D01*
X147046353Y-89250503D01*
X147042284Y-89230045D01*
X147037500Y-89181472D01*
X147037500Y-89135166D01*
X147042283Y-89086598D01*
X147046790Y-89063935D01*
X147083962Y-88974181D01*
X147100000Y-88950178D01*
X147100000Y-88301553D01*
X146999259Y-88200000D01*
X146995051Y-88200000D01*
X146400003Y-88200000D01*
X146400002Y-88200000D01*
X146400001Y-88200001D01*
X146400001Y-88200002D01*
X146400001Y-88923318D01*
X146410144Y-89022609D01*
X146410147Y-89022618D01*
X146410284Y-89023031D01*
X146436649Y-89102596D01*
X146447388Y-89150218D01*
X146450236Y-89173141D01*
X146443195Y-89269969D01*
X146442454Y-89272659D01*
X146404265Y-89352303D01*
X146395760Y-89364081D01*
X146369959Y-89394379D01*
X146282684Y-89481654D01*
X146282681Y-89481658D01*
X146277904Y-89489403D01*
X146205919Y-89606108D01*
X146190639Y-89630880D01*
X146135496Y-89797292D01*
X146135492Y-89797319D01*
X146125001Y-89900000D01*
X146125000Y-89900013D01*
X146125000Y-89900018D01*
X146125000Y-90349999D01*
X146125001Y-90350000D01*
X146125002Y-90350000D01*
X146132341Y-90353040D01*
X146150054Y-90354785D01*
X146155081Y-90355785D01*
X146244840Y-90392966D01*
X146313538Y-90461666D01*
X146350716Y-90551426D01*
X146350715Y-90648581D01*
X146313534Y-90738340D01*
X146244834Y-90807038D01*
X146155081Y-90844215D01*
X146150054Y-90845215D01*
X146132342Y-90846959D01*
X146125003Y-90849999D01*
X146125002Y-90850000D01*
X146125001Y-90850001D01*
X146125001Y-90850002D01*
X146125001Y-91299982D01*
X146135493Y-91402697D01*
X146135494Y-91402701D01*
X146135495Y-91402702D01*
X146135634Y-91403121D01*
X146187425Y-91559419D01*
X146190640Y-91569119D01*
X146190641Y-91569121D01*
X146282681Y-91718341D01*
X146282684Y-91718345D01*
X146406654Y-91842315D01*
X146406658Y-91842318D01*
X146555878Y-91934358D01*
X146561034Y-91936066D01*
X146605639Y-91955886D01*
X146624837Y-91966784D01*
X146698348Y-92030308D01*
X146741951Y-92117123D01*
X146746036Y-92131934D01*
X146754999Y-92198138D01*
X146754999Y-93176472D01*
X146750214Y-93225055D01*
X146746144Y-93245514D01*
X146708962Y-93335272D01*
X146640262Y-93403970D01*
X146550518Y-93441144D01*
X146535917Y-93444048D01*
X146530064Y-93445213D01*
X146481478Y-93450000D01*
X146150015Y-93450000D01*
X146047301Y-93460493D01*
X146047292Y-93460495D01*
X146046957Y-93460607D01*
X145880881Y-93515639D01*
X145880873Y-93515643D01*
X145731663Y-93607677D01*
X145731655Y-93607682D01*
X145607681Y-93731656D01*
X145530918Y-93856108D01*
X145515638Y-93880880D01*
X145460495Y-94047292D01*
X145460491Y-94047319D01*
X145450000Y-94150000D01*
X145449999Y-94150013D01*
X145449999Y-94150018D01*
X145449999Y-94499999D01*
X145450000Y-94500000D01*
X145450001Y-94500000D01*
X145455780Y-94502394D01*
X145480053Y-94504785D01*
X145485080Y-94505785D01*
X145574839Y-94542966D01*
X145643537Y-94611666D01*
X145680715Y-94701426D01*
X145680714Y-94798581D01*
X145643533Y-94888340D01*
X145574833Y-94957038D01*
X145485080Y-94994215D01*
X145480053Y-94995215D01*
X145455781Y-94997605D01*
X145450002Y-94999999D01*
X145450001Y-95000000D01*
X145450000Y-95000001D01*
X145450000Y-95000002D01*
X145450000Y-95349982D01*
X145460492Y-95452697D01*
X145460493Y-95452701D01*
X145460494Y-95452702D01*
X145460633Y-95453121D01*
X145494937Y-95556646D01*
X145515639Y-95619119D01*
X145515640Y-95619121D01*
X145607680Y-95768341D01*
X145607683Y-95768345D01*
X145731653Y-95892315D01*
X145731657Y-95892318D01*
X145852849Y-95967070D01*
X145856106Y-95969079D01*
X145856107Y-95969080D01*
X145870411Y-95977902D01*
X145880877Y-95984358D01*
X145880878Y-95984359D01*
X146047297Y-96039504D01*
X146047304Y-96039505D01*
X146150022Y-96049999D01*
X146481472Y-96049999D01*
X146530048Y-96054783D01*
X146550505Y-96058852D01*
X146640265Y-96096031D01*
X146708964Y-96164730D01*
X146746143Y-96254481D01*
X146750213Y-96274938D01*
X146754999Y-96323525D01*
X146754999Y-97737842D01*
X146750211Y-97786440D01*
X146748502Y-97795028D01*
X146711314Y-97884784D01*
X146642610Y-97953477D01*
X146552877Y-97990644D01*
X146532420Y-97994714D01*
X146483833Y-97999500D01*
X110973527Y-97999500D01*
X110924942Y-97994714D01*
X110904484Y-97990644D01*
X110814726Y-97953462D01*
X110746029Y-97884761D01*
X110708853Y-97795003D01*
X110704784Y-97774545D01*
X110700000Y-97725972D01*
X110700000Y-97250002D01*
X110700000Y-97250001D01*
X110699999Y-97250000D01*
X110699998Y-97250000D01*
X109473527Y-97250000D01*
X109424947Y-97245215D01*
X109402285Y-97240707D01*
X109380974Y-97231879D01*
X109358297Y-97227646D01*
X109312524Y-97203525D01*
X109293729Y-97190966D01*
X109255298Y-97159297D01*
X109232258Y-97136072D01*
X109222815Y-97121817D01*
X109073357Y-96975844D01*
X109072225Y-96974192D01*
X109070564Y-96973073D01*
X109035726Y-96937955D01*
X109005461Y-96900925D01*
X108996469Y-96887467D01*
X108959291Y-96797707D01*
X108959290Y-96797704D01*
X108954783Y-96775042D01*
X108950000Y-96726472D01*
X108950000Y-95500002D01*
X108950000Y-95500001D01*
X109450000Y-95500001D01*
X109450000Y-96648446D01*
X109550741Y-96750000D01*
X110699998Y-96750000D01*
X110699999Y-96750000D01*
X110700000Y-96749999D01*
X110700000Y-95952175D01*
X110700000Y-95952169D01*
X110699979Y-95951839D01*
X110699784Y-95950175D01*
X110693598Y-95892628D01*
X110693596Y-95892621D01*
X110643353Y-95757912D01*
X110563819Y-95651668D01*
X110557192Y-95642815D01*
X110557190Y-95642813D01*
X110557189Y-95642812D01*
X110557187Y-95642810D01*
X110557185Y-95642808D01*
X110557183Y-95642806D01*
X110442088Y-95556647D01*
X110442087Y-95556646D01*
X110307378Y-95506403D01*
X110307379Y-95506403D01*
X110307373Y-95506401D01*
X110307371Y-95506401D01*
X110247836Y-95500000D01*
X110247832Y-95500000D01*
X109450001Y-95500000D01*
X109450000Y-95500001D01*
X108950000Y-95500001D01*
X108949999Y-95500000D01*
X108949998Y-95500000D01*
X108431058Y-95500000D01*
X108382477Y-95495215D01*
X108360826Y-95490908D01*
X108271067Y-95453727D01*
X108202369Y-95385027D01*
X108202363Y-95385018D01*
X108192216Y-95369830D01*
X108165961Y-95318524D01*
X108143355Y-95257917D01*
X108143350Y-95257909D01*
X108057195Y-95142819D01*
X108057187Y-95142810D01*
X108057184Y-95142808D01*
X108057183Y-95142806D01*
X107942088Y-95056647D01*
X107942087Y-95056646D01*
X107807378Y-95006403D01*
X107807379Y-95006403D01*
X107807373Y-95006401D01*
X107807371Y-95006401D01*
X107747836Y-95000000D01*
X107747832Y-95000000D01*
X106450001Y-95000000D01*
X106450000Y-95000001D01*
X106450000Y-95000002D01*
X106450000Y-96476472D01*
X106445217Y-96525043D01*
X106444217Y-96530071D01*
X106407039Y-96619832D01*
X106338342Y-96688532D01*
X106248584Y-96725714D01*
X106151429Y-96725717D01*
X106061668Y-96688539D01*
X105992968Y-96619842D01*
X105955786Y-96530084D01*
X105955783Y-96530071D01*
X105954783Y-96525043D01*
X105950000Y-96476472D01*
X105950000Y-95000002D01*
X105950000Y-95000001D01*
X105949999Y-95000000D01*
X105949998Y-95000000D01*
X104652172Y-95000000D01*
X104652167Y-95000000D01*
X104614955Y-95004000D01*
X104592625Y-95006401D01*
X104592623Y-95006401D01*
X104576926Y-95012256D01*
X104529738Y-95024747D01*
X104506930Y-95028442D01*
X104409855Y-95024975D01*
X104403863Y-95023559D01*
X104401296Y-95022952D01*
X104330208Y-94994000D01*
X104327415Y-94992320D01*
X104304183Y-94976494D01*
X104302838Y-94975462D01*
X104164921Y-94918335D01*
X104159056Y-94915658D01*
X104156760Y-94914955D01*
X104039362Y-94899500D01*
X104039361Y-94899500D01*
X103874026Y-94899500D01*
X103825441Y-94894714D01*
X103804983Y-94890644D01*
X103715225Y-94853462D01*
X103646528Y-94784761D01*
X103609352Y-94695003D01*
X103605283Y-94674545D01*
X103600499Y-94625972D01*
X103600499Y-93418527D01*
X103605283Y-93369954D01*
X103609352Y-93349496D01*
X103646530Y-93259735D01*
X103715228Y-93191035D01*
X103804985Y-93153854D01*
X103804988Y-93153853D01*
X103804995Y-93153853D01*
X103825453Y-93149784D01*
X103874026Y-93145000D01*
X104556672Y-93145000D01*
X104605244Y-93149783D01*
X104610985Y-93150924D01*
X104627906Y-93154290D01*
X104717665Y-93191468D01*
X104725882Y-93196958D01*
X104736883Y-93204309D01*
X104774604Y-93235266D01*
X104780612Y-93241273D01*
X104781654Y-93242315D01*
X104781658Y-93242318D01*
X104898623Y-93314463D01*
X104906107Y-93319079D01*
X104906108Y-93319080D01*
X104910933Y-93322056D01*
X104930878Y-93334358D01*
X104930879Y-93334359D01*
X105097298Y-93389504D01*
X105097305Y-93389505D01*
X105200023Y-93399999D01*
X105412499Y-93399999D01*
X105412500Y-93399999D01*
X105412500Y-93399997D01*
X105414523Y-93397974D01*
X105417283Y-93369956D01*
X105418283Y-93364928D01*
X105455461Y-93275167D01*
X105524158Y-93206467D01*
X105613916Y-93169285D01*
X105711071Y-93169282D01*
X105800832Y-93206460D01*
X105869532Y-93275157D01*
X105906714Y-93364915D01*
X105906717Y-93364928D01*
X105907717Y-93369956D01*
X105910106Y-93394219D01*
X105912499Y-93399996D01*
X105912500Y-93399997D01*
X105912500Y-93399998D01*
X105912501Y-93399999D01*
X106124957Y-93399999D01*
X106124968Y-93399999D01*
X106124984Y-93399998D01*
X106227699Y-93389505D01*
X106227702Y-93389504D01*
X106394119Y-93334359D01*
X106394121Y-93334358D01*
X106543341Y-93242318D01*
X106543345Y-93242315D01*
X106667315Y-93118345D01*
X106667318Y-93118341D01*
X106759358Y-92969121D01*
X106759359Y-92969120D01*
X106814504Y-92802701D01*
X106814505Y-92802694D01*
X106824999Y-92699981D01*
X106824999Y-92699949D01*
X106825093Y-92698117D01*
X106825640Y-92693712D01*
X106825644Y-92693674D01*
X106829554Y-92662201D01*
X106833540Y-92642156D01*
X106870714Y-92552394D01*
X106939409Y-92483691D01*
X107029166Y-92446506D01*
X107126291Y-92446495D01*
X107128012Y-92446837D01*
X107205530Y-92476324D01*
X107217263Y-92483211D01*
X107226249Y-92488982D01*
X107231656Y-92492317D01*
X107380878Y-92584358D01*
X107380879Y-92584359D01*
X107547298Y-92639504D01*
X107547305Y-92639505D01*
X107650023Y-92649999D01*
X107981473Y-92649999D01*
X108030049Y-92654783D01*
X108050506Y-92658852D01*
X108140266Y-92696031D01*
X108208965Y-92764730D01*
X108246144Y-92854481D01*
X108250214Y-92874938D01*
X108255000Y-92923525D01*
X108255000Y-94245000D01*
X108255001Y-94245000D01*
X112897927Y-94245000D01*
X112897928Y-94245000D01*
X114045000Y-93097928D01*
X114045000Y-92924026D01*
X114049784Y-92875453D01*
X114053853Y-92854995D01*
X114091031Y-92765234D01*
X114159729Y-92696534D01*
X114249486Y-92659353D01*
X114249489Y-92659352D01*
X114249496Y-92659352D01*
X114269954Y-92655283D01*
X114318527Y-92650499D01*
X114650006Y-92650499D01*
X114650008Y-92650499D01*
X114752797Y-92639999D01*
X114919334Y-92584814D01*
X115068656Y-92492712D01*
X115087090Y-92474277D01*
X115091912Y-92471054D01*
X115124810Y-92443319D01*
X115138863Y-92433929D01*
X115161521Y-92424543D01*
X115167867Y-92420303D01*
X115175350Y-92418814D01*
X115228615Y-92396749D01*
X115325770Y-92396746D01*
X115415531Y-92433922D01*
X115484233Y-92502618D01*
X115521416Y-92592376D01*
X115521416Y-92592377D01*
X115524713Y-92608949D01*
X115529499Y-92657535D01*
X115529499Y-93121458D01*
X115524714Y-93170037D01*
X115520407Y-93191689D01*
X115512272Y-93211328D01*
X115508677Y-93232283D01*
X115493857Y-93255783D01*
X115483227Y-93281448D01*
X115468194Y-93296480D01*
X115456855Y-93314463D01*
X115434173Y-93330501D01*
X115414531Y-93350144D01*
X115336606Y-93402213D01*
X115320191Y-93419175D01*
X115251726Y-93471710D01*
X115251719Y-93471716D01*
X115251716Y-93471719D01*
X115251707Y-93471729D01*
X115155469Y-93597150D01*
X115154073Y-93599243D01*
X115150757Y-93608521D01*
X115137468Y-93640601D01*
X115133113Y-93651117D01*
X115119017Y-93685146D01*
X115094954Y-93743239D01*
X115079500Y-93860635D01*
X115079500Y-95942877D01*
X115081143Y-95951839D01*
X115094954Y-96056757D01*
X115094954Y-96056758D01*
X115094954Y-96056760D01*
X115094955Y-96056761D01*
X115103690Y-96077848D01*
X115112967Y-96100244D01*
X115112967Y-96100245D01*
X115155460Y-96202832D01*
X115155464Y-96202842D01*
X115162013Y-96211928D01*
X115165398Y-96215788D01*
X115229247Y-96298998D01*
X115229248Y-96298999D01*
X115229247Y-96298999D01*
X115251721Y-96328287D01*
X115251750Y-96328316D01*
X115252804Y-96329116D01*
X115377156Y-96424534D01*
X115377158Y-96424536D01*
X115523235Y-96485044D01*
X115564209Y-96490437D01*
X115640639Y-96500500D01*
X117719360Y-96500499D01*
X117836762Y-96485044D01*
X117982841Y-96424536D01*
X118108282Y-96328282D01*
X118204536Y-96202841D01*
X118265044Y-96056762D01*
X118280500Y-95939361D01*
X118280499Y-94318520D01*
X118285282Y-94269951D01*
X118289352Y-94249488D01*
X118326530Y-94159734D01*
X118395228Y-94091034D01*
X118484988Y-94053854D01*
X118484991Y-94053853D01*
X118492901Y-94052279D01*
X118505455Y-94049783D01*
X118554026Y-94045000D01*
X118690965Y-94045000D01*
X118739545Y-94049785D01*
X118762207Y-94054293D01*
X118827319Y-94076979D01*
X118840059Y-94083517D01*
X118891558Y-94117927D01*
X118911343Y-94137712D01*
X119060665Y-94229814D01*
X119060668Y-94229815D01*
X119060666Y-94229815D01*
X119224309Y-94284040D01*
X119227202Y-94284999D01*
X119329990Y-94295500D01*
X120230007Y-94295499D01*
X120332796Y-94284999D01*
X120424393Y-94254645D01*
X120472003Y-94243908D01*
X120487994Y-94241920D01*
X120492704Y-94241335D01*
X120589601Y-94248390D01*
X120676424Y-94291990D01*
X120739919Y-94365437D01*
X120740188Y-94365911D01*
X120769503Y-94449229D01*
X120771819Y-94463579D01*
X120775000Y-94503253D01*
X120775000Y-94701671D01*
X120770215Y-94750251D01*
X120765707Y-94772913D01*
X120728528Y-94862670D01*
X120715695Y-94881876D01*
X120684729Y-94919609D01*
X120682684Y-94921653D01*
X120682683Y-94921655D01*
X120605919Y-95046108D01*
X120590639Y-95070880D01*
X120535496Y-95237292D01*
X120535492Y-95237319D01*
X120525001Y-95340000D01*
X120525000Y-95340013D01*
X120525000Y-95340018D01*
X120525000Y-95539999D01*
X120525001Y-95540000D01*
X120525002Y-95540000D01*
X120532341Y-95543040D01*
X120550054Y-95544785D01*
X120555081Y-95545785D01*
X120644840Y-95582966D01*
X120713538Y-95651666D01*
X120750716Y-95741426D01*
X120750715Y-95838581D01*
X120713534Y-95928340D01*
X120644834Y-95997038D01*
X120555081Y-96034215D01*
X120550054Y-96035215D01*
X120532342Y-96036959D01*
X120525003Y-96039999D01*
X120525002Y-96040000D01*
X120525001Y-96040001D01*
X120525001Y-96239984D01*
X120527144Y-96260968D01*
X120535493Y-96342697D01*
X120535494Y-96342701D01*
X120535495Y-96342702D01*
X120535634Y-96343121D01*
X120587949Y-96501000D01*
X120590640Y-96509119D01*
X120590641Y-96509121D01*
X120682681Y-96658341D01*
X120682684Y-96658345D01*
X120806654Y-96782315D01*
X120806658Y-96782318D01*
X120931107Y-96859079D01*
X120931108Y-96859080D01*
X120945412Y-96867902D01*
X120955878Y-96874358D01*
X120955879Y-96874359D01*
X121122298Y-96929504D01*
X121122305Y-96929505D01*
X121225023Y-96939999D01*
X121649999Y-96939999D01*
X121650000Y-96939999D01*
X121650000Y-96939997D01*
X121652023Y-96937974D01*
X121654783Y-96909956D01*
X121655783Y-96904928D01*
X121692961Y-96815167D01*
X121761658Y-96746467D01*
X121851416Y-96709285D01*
X121948571Y-96709282D01*
X122038332Y-96746460D01*
X122107032Y-96815157D01*
X122144214Y-96904915D01*
X122144217Y-96904928D01*
X122145217Y-96909956D01*
X122147606Y-96934219D01*
X122149999Y-96939996D01*
X122150000Y-96939997D01*
X122150000Y-96939998D01*
X122150001Y-96939999D01*
X122574957Y-96939999D01*
X122574968Y-96939999D01*
X122574984Y-96939998D01*
X122677699Y-96929505D01*
X122677702Y-96929504D01*
X122844119Y-96874359D01*
X122844121Y-96874358D01*
X122993341Y-96782318D01*
X122993345Y-96782315D01*
X123117315Y-96658345D01*
X123117318Y-96658341D01*
X123209358Y-96509121D01*
X123209359Y-96509120D01*
X123264504Y-96342701D01*
X123264505Y-96342694D01*
X123273518Y-96254481D01*
X123274994Y-96240036D01*
X123275000Y-96239977D01*
X123275000Y-96040002D01*
X123275000Y-96040001D01*
X123274999Y-96040000D01*
X123274998Y-96040000D01*
X123274997Y-96039999D01*
X123267660Y-96036960D01*
X123249956Y-96035217D01*
X123244928Y-96034217D01*
X123155167Y-95997039D01*
X123086467Y-95928342D01*
X123049285Y-95838584D01*
X123049282Y-95741429D01*
X123086460Y-95651668D01*
X123155157Y-95582968D01*
X123244915Y-95545786D01*
X123244928Y-95545783D01*
X123249956Y-95544783D01*
X123267659Y-95543039D01*
X123274996Y-95540000D01*
X123274998Y-95540000D01*
X123274999Y-95539999D01*
X123274999Y-95340032D01*
X123274998Y-95340015D01*
X123264505Y-95237300D01*
X123264504Y-95237297D01*
X123209359Y-95070880D01*
X123209358Y-95070878D01*
X123117318Y-94921658D01*
X123117315Y-94921654D01*
X123115267Y-94919606D01*
X123084306Y-94881879D01*
X123071471Y-94862670D01*
X123034291Y-94772910D01*
X123034290Y-94772903D01*
X123029783Y-94750241D01*
X123025000Y-94701671D01*
X123025000Y-93779034D01*
X123029785Y-93730456D01*
X123034293Y-93707793D01*
X123071465Y-93618044D01*
X123084300Y-93598833D01*
X123115276Y-93561090D01*
X123117712Y-93558656D01*
X123209814Y-93409334D01*
X123264999Y-93242797D01*
X123275500Y-93140009D01*
X123275499Y-92239992D01*
X123264999Y-92137203D01*
X123209814Y-91970666D01*
X123158251Y-91887070D01*
X123136827Y-91843223D01*
X123129125Y-91822530D01*
X123113649Y-91726622D01*
X123136052Y-91632090D01*
X123140583Y-91622188D01*
X123190939Y-91549716D01*
X123205472Y-91535185D01*
X123293478Y-91389606D01*
X123344086Y-91227196D01*
X123350500Y-91156616D01*
X123350500Y-90643384D01*
X123350499Y-90643369D01*
X123344087Y-90572811D01*
X123344086Y-90572808D01*
X123344086Y-90572804D01*
X123293478Y-90410394D01*
X123293477Y-90410393D01*
X123293477Y-90410391D01*
X123205471Y-90264813D01*
X123167929Y-90227271D01*
X123141472Y-90187674D01*
X123104291Y-90097915D01*
X123104289Y-90097905D01*
X123099783Y-90075248D01*
X123095000Y-90026678D01*
X123095000Y-89872615D01*
X123099783Y-89824045D01*
X123104290Y-89801383D01*
X123141467Y-89711623D01*
X123154310Y-89692401D01*
X123185268Y-89654678D01*
X123205077Y-89634870D01*
X123293016Y-89489402D01*
X123293018Y-89489397D01*
X123343591Y-89327101D01*
X123349998Y-89256591D01*
X123350000Y-89256567D01*
X123350000Y-89250001D01*
X123349999Y-89250000D01*
X123349998Y-89250000D01*
X123349997Y-89249999D01*
X123344220Y-89247606D01*
X123319956Y-89245217D01*
X123314928Y-89244217D01*
X123225167Y-89207039D01*
X123156467Y-89138342D01*
X123119285Y-89048584D01*
X123119282Y-88951429D01*
X123156460Y-88861668D01*
X123225157Y-88792968D01*
X123314915Y-88755786D01*
X123314928Y-88755783D01*
X123319956Y-88754783D01*
X123344219Y-88752393D01*
X123349996Y-88750000D01*
X123349998Y-88750000D01*
X123349999Y-88749999D01*
X123349999Y-88743431D01*
X123343590Y-88672894D01*
X123293018Y-88510602D01*
X123293016Y-88510597D01*
X123205075Y-88365126D01*
X123185264Y-88345315D01*
X123180172Y-88339110D01*
X123177335Y-88337385D01*
X123167929Y-88327979D01*
X123113953Y-88247197D01*
X123108181Y-88218182D01*
X123095000Y-88205001D01*
X123095000Y-88205000D01*
X123094999Y-88205000D01*
X123088244Y-88205000D01*
X122992956Y-88186046D01*
X122959427Y-88169090D01*
X122939398Y-88156982D01*
X122939396Y-88156981D01*
X122824420Y-88121153D01*
X122784557Y-88099457D01*
X122709925Y-88037258D01*
X122664776Y-87951231D01*
X122655985Y-87854475D01*
X122655985Y-87854471D01*
X122655986Y-87854467D01*
X122657969Y-87835778D01*
X122669217Y-87783741D01*
X122679504Y-87752697D01*
X122679504Y-87752694D01*
X122679504Y-87752685D01*
X122680448Y-87746844D01*
X122680793Y-87740077D01*
X122683033Y-87718149D01*
X122689998Y-87649981D01*
X122689999Y-87649971D01*
X122689999Y-87437501D01*
X122689998Y-87437500D01*
X122689997Y-87437500D01*
X122689996Y-87437499D01*
X122684219Y-87435106D01*
X122659955Y-87432717D01*
X122654927Y-87431717D01*
X122565166Y-87394539D01*
X122496466Y-87325842D01*
X122459284Y-87236084D01*
X122459281Y-87138929D01*
X122496459Y-87049168D01*
X122565156Y-86980468D01*
X122654914Y-86943286D01*
X122654927Y-86943283D01*
X122659955Y-86942283D01*
X122684218Y-86939893D01*
X122689995Y-86937500D01*
X122689997Y-86937500D01*
X122689998Y-86937499D01*
X122689998Y-86725032D01*
X122689997Y-86725015D01*
X122679504Y-86622300D01*
X122679503Y-86622297D01*
X122624358Y-86455880D01*
X122624357Y-86455878D01*
X122532317Y-86306658D01*
X122532314Y-86306654D01*
X122531998Y-86306338D01*
X122525265Y-86299604D01*
X122494308Y-86261883D01*
X122489810Y-86255152D01*
X122481472Y-86242672D01*
X122444292Y-86152916D01*
X122444289Y-86152903D01*
X122439782Y-86130241D01*
X122434999Y-86081671D01*
X122434999Y-85169034D01*
X122439784Y-85120456D01*
X122444292Y-85097793D01*
X122481463Y-85008047D01*
X122483429Y-85005103D01*
X122507926Y-84968440D01*
X122532711Y-84943656D01*
X122624813Y-84794334D01*
X122679998Y-84627797D01*
X122680011Y-84627662D01*
X122680367Y-84624191D01*
X122681693Y-84619874D01*
X122682844Y-84614501D01*
X122683314Y-84614601D01*
X122694056Y-84579647D01*
X122740166Y-84494134D01*
X122815486Y-84432777D01*
X122818698Y-84431075D01*
X122899187Y-84404731D01*
X122910135Y-84403127D01*
X122946215Y-84400500D01*
X124297396Y-84400500D01*
X124345968Y-84405282D01*
G37*
%TD.AperFunction*%
%TA.AperFunction,Conductor*%
G36*
X181524549Y-81005284D02*
G01*
X181545006Y-81009353D01*
X181634766Y-81046532D01*
X181703465Y-81115231D01*
X181740644Y-81204984D01*
X181744714Y-81225442D01*
X181749500Y-81274027D01*
X181749500Y-97725972D01*
X181744714Y-97774557D01*
X181740644Y-97795015D01*
X181703462Y-97884773D01*
X181634761Y-97953470D01*
X181545017Y-97990644D01*
X181524560Y-97994714D01*
X181475973Y-97999500D01*
X151669093Y-97999500D01*
X151620507Y-97994714D01*
X151603935Y-97991417D01*
X151514177Y-97954234D01*
X151445480Y-97885532D01*
X151408304Y-97795772D01*
X151408307Y-97698617D01*
X151445484Y-97608869D01*
X151454871Y-97594819D01*
X151485828Y-97557097D01*
X152544999Y-96497928D01*
X152544999Y-96324026D01*
X152549783Y-96275453D01*
X152553852Y-96254995D01*
X152591030Y-96165234D01*
X152659728Y-96096534D01*
X152749485Y-96059353D01*
X152749488Y-96059352D01*
X152749495Y-96059352D01*
X152769953Y-96055283D01*
X152818526Y-96050499D01*
X153149999Y-96050499D01*
X153150000Y-96050499D01*
X153150007Y-96050499D01*
X153160112Y-96049466D01*
X153173717Y-96048077D01*
X153222528Y-96047899D01*
X153244500Y-96049982D01*
X153337572Y-96077848D01*
X153412893Y-96139206D01*
X153421547Y-96149673D01*
X153445970Y-96190253D01*
X153447721Y-96189256D01*
X153455463Y-96202841D01*
X153455484Y-96202869D01*
X153529247Y-96298999D01*
X153551721Y-96328287D01*
X153551750Y-96328316D01*
X153552804Y-96329116D01*
X153677156Y-96424534D01*
X153677158Y-96424536D01*
X153823235Y-96485044D01*
X153864209Y-96490437D01*
X153940639Y-96500500D01*
X156019360Y-96500499D01*
X156136762Y-96485044D01*
X156282841Y-96424536D01*
X156408282Y-96328282D01*
X156504536Y-96202841D01*
X156565044Y-96056762D01*
X156580500Y-95939361D01*
X156580499Y-94318520D01*
X156585282Y-94269951D01*
X156589352Y-94249488D01*
X156626530Y-94159734D01*
X156695228Y-94091034D01*
X156784988Y-94053854D01*
X156784991Y-94053853D01*
X156792901Y-94052279D01*
X156805455Y-94049783D01*
X156854026Y-94045000D01*
X156990966Y-94045000D01*
X157039546Y-94049785D01*
X157062208Y-94054293D01*
X157127320Y-94076979D01*
X157140060Y-94083517D01*
X157191559Y-94117927D01*
X157211344Y-94137712D01*
X157360666Y-94229814D01*
X157360669Y-94229815D01*
X157360667Y-94229815D01*
X157524310Y-94284040D01*
X157527203Y-94284999D01*
X157629991Y-94295500D01*
X158530008Y-94295499D01*
X158632797Y-94284999D01*
X158724399Y-94254644D01*
X158772015Y-94243906D01*
X158792721Y-94241333D01*
X158889618Y-94248396D01*
X158976438Y-94292002D01*
X159039921Y-94365441D01*
X159040188Y-94365911D01*
X159069503Y-94449227D01*
X159071818Y-94463575D01*
X159071819Y-94463577D01*
X159075000Y-94503253D01*
X159075000Y-94701671D01*
X159070215Y-94750251D01*
X159065707Y-94772913D01*
X159028528Y-94862670D01*
X159015695Y-94881876D01*
X158984729Y-94919609D01*
X158982684Y-94921653D01*
X158982683Y-94921655D01*
X158905919Y-95046108D01*
X158890639Y-95070880D01*
X158835496Y-95237292D01*
X158835492Y-95237319D01*
X158825001Y-95340000D01*
X158825000Y-95340013D01*
X158825000Y-95340018D01*
X158825000Y-95539999D01*
X158825001Y-95540000D01*
X158825002Y-95540000D01*
X158832341Y-95543040D01*
X158850054Y-95544785D01*
X158855081Y-95545785D01*
X158944840Y-95582966D01*
X159013538Y-95651666D01*
X159050716Y-95741426D01*
X159050715Y-95838581D01*
X159013534Y-95928340D01*
X158944834Y-95997038D01*
X158855081Y-96034215D01*
X158850054Y-96035215D01*
X158832342Y-96036959D01*
X158825003Y-96039999D01*
X158825002Y-96040000D01*
X158825001Y-96040001D01*
X158825001Y-96239984D01*
X158827144Y-96260968D01*
X158835493Y-96342697D01*
X158835494Y-96342701D01*
X158835495Y-96342702D01*
X158835634Y-96343121D01*
X158887949Y-96501000D01*
X158890640Y-96509119D01*
X158890641Y-96509121D01*
X158982681Y-96658341D01*
X158982684Y-96658345D01*
X159106654Y-96782315D01*
X159106658Y-96782318D01*
X159231107Y-96859079D01*
X159231108Y-96859080D01*
X159245412Y-96867902D01*
X159255878Y-96874358D01*
X159255879Y-96874359D01*
X159422298Y-96929504D01*
X159422305Y-96929505D01*
X159525023Y-96939999D01*
X159949999Y-96939999D01*
X159950000Y-96939999D01*
X159950000Y-96939997D01*
X159952023Y-96937974D01*
X159954783Y-96909956D01*
X159955783Y-96904928D01*
X159992961Y-96815167D01*
X160061658Y-96746467D01*
X160151416Y-96709285D01*
X160248571Y-96709282D01*
X160338332Y-96746460D01*
X160407032Y-96815157D01*
X160444214Y-96904915D01*
X160444217Y-96904928D01*
X160445217Y-96909956D01*
X160447606Y-96934219D01*
X160449999Y-96939996D01*
X160450000Y-96939997D01*
X160450000Y-96939998D01*
X160450001Y-96939999D01*
X160874957Y-96939999D01*
X160874968Y-96939999D01*
X160874984Y-96939998D01*
X160977699Y-96929505D01*
X160977702Y-96929504D01*
X161144119Y-96874359D01*
X161144121Y-96874358D01*
X161293341Y-96782318D01*
X161293345Y-96782315D01*
X161417315Y-96658345D01*
X161417318Y-96658341D01*
X161509358Y-96509121D01*
X161509359Y-96509120D01*
X161564504Y-96342701D01*
X161564505Y-96342694D01*
X161573518Y-96254481D01*
X161574994Y-96240036D01*
X161575000Y-96239977D01*
X161575000Y-96040002D01*
X161575000Y-96040001D01*
X161574999Y-96040000D01*
X161574998Y-96040000D01*
X161574997Y-96039999D01*
X161567660Y-96036960D01*
X161549956Y-96035217D01*
X161544928Y-96034217D01*
X161455167Y-95997039D01*
X161386467Y-95928342D01*
X161349285Y-95838584D01*
X161349282Y-95741429D01*
X161386460Y-95651668D01*
X161455157Y-95582968D01*
X161544915Y-95545786D01*
X161544928Y-95545783D01*
X161549956Y-95544783D01*
X161567659Y-95543039D01*
X161574996Y-95540000D01*
X161574998Y-95540000D01*
X161574999Y-95539999D01*
X161574999Y-95340032D01*
X161574998Y-95340015D01*
X161564505Y-95237300D01*
X161564504Y-95237297D01*
X161509359Y-95070880D01*
X161509358Y-95070878D01*
X161417318Y-94921658D01*
X161417315Y-94921654D01*
X161415267Y-94919606D01*
X161384306Y-94881879D01*
X161371471Y-94862670D01*
X161334291Y-94772910D01*
X161334290Y-94772903D01*
X161329783Y-94750241D01*
X161325000Y-94701671D01*
X161325000Y-93779034D01*
X161329785Y-93730456D01*
X161334293Y-93707793D01*
X161371465Y-93618044D01*
X161384300Y-93598833D01*
X161415276Y-93561090D01*
X161417712Y-93558656D01*
X161509814Y-93409334D01*
X161564999Y-93242797D01*
X161575500Y-93140009D01*
X161575499Y-92239992D01*
X161564999Y-92137203D01*
X161509814Y-91970666D01*
X161458251Y-91887070D01*
X161436827Y-91843223D01*
X161429125Y-91822530D01*
X161413649Y-91726622D01*
X161436052Y-91632090D01*
X161440583Y-91622188D01*
X161490939Y-91549716D01*
X161505472Y-91535185D01*
X161593478Y-91389606D01*
X161644086Y-91227196D01*
X161650500Y-91156616D01*
X161650500Y-90643384D01*
X161650499Y-90643369D01*
X161644087Y-90572811D01*
X161644086Y-90572808D01*
X161644086Y-90572804D01*
X161593478Y-90410394D01*
X161593477Y-90410393D01*
X161593477Y-90410391D01*
X161505471Y-90264813D01*
X161467929Y-90227271D01*
X161441472Y-90187674D01*
X161404291Y-90097915D01*
X161404289Y-90097905D01*
X161399783Y-90075248D01*
X161395000Y-90026678D01*
X161395000Y-89872615D01*
X161399783Y-89824045D01*
X161404290Y-89801383D01*
X161441467Y-89711623D01*
X161454310Y-89692401D01*
X161485268Y-89654678D01*
X161505077Y-89634870D01*
X161593016Y-89489402D01*
X161593018Y-89489397D01*
X161643591Y-89327101D01*
X161649998Y-89256591D01*
X161650000Y-89256567D01*
X161650000Y-89250001D01*
X161649999Y-89250000D01*
X161649998Y-89250000D01*
X161649997Y-89249999D01*
X161644220Y-89247606D01*
X161619956Y-89245217D01*
X161614928Y-89244217D01*
X161525167Y-89207039D01*
X161456467Y-89138342D01*
X161419285Y-89048584D01*
X161419282Y-88951429D01*
X161456460Y-88861668D01*
X161525157Y-88792968D01*
X161614915Y-88755786D01*
X161614928Y-88755783D01*
X161619956Y-88754783D01*
X161644219Y-88752393D01*
X161649996Y-88750000D01*
X161649998Y-88750000D01*
X161649999Y-88749999D01*
X161649999Y-88743431D01*
X161643590Y-88672894D01*
X161593018Y-88510602D01*
X161593016Y-88510597D01*
X161505075Y-88365126D01*
X161485264Y-88345315D01*
X161480170Y-88339107D01*
X161477330Y-88337381D01*
X161467929Y-88327979D01*
X161413953Y-88247197D01*
X161408181Y-88218182D01*
X161395000Y-88205001D01*
X161395000Y-88205000D01*
X161394999Y-88205000D01*
X161388244Y-88205000D01*
X161292956Y-88186046D01*
X161259427Y-88169090D01*
X161239398Y-88156982D01*
X161239396Y-88156981D01*
X161124421Y-88121153D01*
X161097675Y-88106596D01*
X161097670Y-88106593D01*
X161088128Y-88101400D01*
X161084566Y-88099461D01*
X161009934Y-88037267D01*
X160964780Y-87951242D01*
X160955984Y-87854490D01*
X160957970Y-87835778D01*
X160969218Y-87783741D01*
X160979505Y-87752697D01*
X160979505Y-87752694D01*
X160979505Y-87752685D01*
X160980449Y-87746844D01*
X160980794Y-87740077D01*
X160983034Y-87718149D01*
X160989999Y-87649981D01*
X160990000Y-87649971D01*
X160990000Y-87437501D01*
X160989999Y-87437500D01*
X160989998Y-87437500D01*
X160989997Y-87437499D01*
X160984220Y-87435106D01*
X160959956Y-87432717D01*
X160954928Y-87431717D01*
X160865167Y-87394539D01*
X160796467Y-87325842D01*
X160759285Y-87236084D01*
X160759282Y-87138929D01*
X160796460Y-87049168D01*
X160865157Y-86980468D01*
X160954915Y-86943286D01*
X160954928Y-86943283D01*
X160959956Y-86942283D01*
X160984219Y-86939893D01*
X160989996Y-86937500D01*
X160989998Y-86937500D01*
X160989999Y-86937499D01*
X160989999Y-86725032D01*
X160989998Y-86725015D01*
X160979505Y-86622300D01*
X160979504Y-86622297D01*
X160924359Y-86455880D01*
X160924358Y-86455878D01*
X160832318Y-86306658D01*
X160832315Y-86306654D01*
X160831999Y-86306338D01*
X160825266Y-86299604D01*
X160794309Y-86261883D01*
X160789811Y-86255152D01*
X160781473Y-86242672D01*
X160744293Y-86152916D01*
X160744290Y-86152903D01*
X160739783Y-86130241D01*
X160735000Y-86081671D01*
X160735000Y-85169034D01*
X160739785Y-85120456D01*
X160744293Y-85097793D01*
X160781464Y-85008047D01*
X160783430Y-85005103D01*
X160807927Y-84968440D01*
X160832712Y-84943656D01*
X160924814Y-84794334D01*
X160979999Y-84627797D01*
X160980012Y-84627662D01*
X160980368Y-84624191D01*
X160981694Y-84619874D01*
X160982845Y-84614501D01*
X160983315Y-84614601D01*
X160994057Y-84579647D01*
X161040167Y-84494134D01*
X161115487Y-84432777D01*
X161118699Y-84431075D01*
X161199188Y-84404731D01*
X161210136Y-84403127D01*
X161246216Y-84400500D01*
X162597396Y-84400500D01*
X162645968Y-84405282D01*
X162667621Y-84409589D01*
X162757379Y-84446767D01*
X162826079Y-84515465D01*
X162826099Y-84515495D01*
X162828109Y-84518504D01*
X162862481Y-84595866D01*
X162865720Y-84608696D01*
X162867087Y-84615968D01*
X162867317Y-84615917D01*
X162870001Y-84627799D01*
X162925184Y-84794330D01*
X162925186Y-84794334D01*
X163017287Y-84943655D01*
X163024734Y-84951102D01*
X163055692Y-84988825D01*
X163068525Y-85008030D01*
X163105706Y-85097789D01*
X163105707Y-85097792D01*
X163110215Y-85120454D01*
X163115000Y-85169034D01*
X163115000Y-86080964D01*
X163110215Y-86129544D01*
X163105707Y-86152206D01*
X163068526Y-86241965D01*
X163055694Y-86261169D01*
X163024735Y-86298895D01*
X163017292Y-86306338D01*
X163017284Y-86306348D01*
X162925185Y-86455664D01*
X162925182Y-86455670D01*
X162870003Y-86622191D01*
X162869999Y-86622220D01*
X162859501Y-86724968D01*
X162859500Y-86724995D01*
X162859500Y-87650009D01*
X162862600Y-87680351D01*
X162870001Y-87752800D01*
X162897498Y-87835780D01*
X162900500Y-87844839D01*
X162902772Y-87863128D01*
X162937683Y-87956908D01*
X162953163Y-88052822D01*
X162930760Y-88147359D01*
X162930758Y-88147363D01*
X162929252Y-88150655D01*
X162881436Y-88220555D01*
X162873724Y-88228495D01*
X162846694Y-88252551D01*
X162821731Y-88271706D01*
X162821719Y-88271716D01*
X162821716Y-88271719D01*
X162821707Y-88271729D01*
X162728329Y-88393422D01*
X162728327Y-88393426D01*
X162725466Y-88397155D01*
X162725464Y-88397158D01*
X162725464Y-88397159D01*
X162708858Y-88437249D01*
X162707730Y-88439970D01*
X162707711Y-88440015D01*
X162664954Y-88543240D01*
X162649500Y-88660635D01*
X162649500Y-91242877D01*
X162651143Y-91251839D01*
X162664954Y-91356760D01*
X162664955Y-91356761D01*
X162678560Y-91389606D01*
X162678559Y-91389606D01*
X162725464Y-91502842D01*
X162732013Y-91511929D01*
X162735403Y-91515794D01*
X162776318Y-91569117D01*
X162817043Y-91622190D01*
X162821718Y-91628282D01*
X162821722Y-91628285D01*
X162821723Y-91628286D01*
X162858619Y-91656597D01*
X162858639Y-91656613D01*
X162886589Y-91678059D01*
X162886590Y-91678060D01*
X162947159Y-91724536D01*
X163027846Y-91757957D01*
X163040602Y-91766481D01*
X163076222Y-91778572D01*
X163091468Y-91784311D01*
X163093238Y-91785044D01*
X163093248Y-91785045D01*
X163095044Y-91785527D01*
X163110676Y-91790268D01*
X163139560Y-91800073D01*
X163223698Y-91848651D01*
X163282842Y-91925730D01*
X163307987Y-92019574D01*
X163308549Y-92028149D01*
X163296446Y-92122747D01*
X163290003Y-92142190D01*
X163290000Y-92142205D01*
X163289948Y-92142516D01*
X163289758Y-92144575D01*
X163288306Y-92158781D01*
X163287375Y-92167900D01*
X163279500Y-92244988D01*
X163279500Y-92244991D01*
X163279500Y-93121458D01*
X163274715Y-93170039D01*
X163270408Y-93191690D01*
X163233227Y-93281449D01*
X163164531Y-93350144D01*
X163086607Y-93402211D01*
X163070192Y-93419174D01*
X163001726Y-93471710D01*
X163001719Y-93471716D01*
X163001716Y-93471719D01*
X163001707Y-93471729D01*
X162905469Y-93597150D01*
X162904073Y-93599243D01*
X162900757Y-93608521D01*
X162887468Y-93640601D01*
X162883113Y-93651117D01*
X162869017Y-93685146D01*
X162844954Y-93743239D01*
X162829500Y-93860635D01*
X162829500Y-95942877D01*
X162831143Y-95951839D01*
X162844954Y-96056757D01*
X162844954Y-96056758D01*
X162844954Y-96056760D01*
X162844955Y-96056761D01*
X162853690Y-96077848D01*
X162862967Y-96100244D01*
X162862967Y-96100245D01*
X162905460Y-96202832D01*
X162905464Y-96202842D01*
X162912013Y-96211928D01*
X162915398Y-96215788D01*
X162979247Y-96298998D01*
X162979248Y-96298999D01*
X162979247Y-96298999D01*
X163001721Y-96328287D01*
X163001750Y-96328316D01*
X163002804Y-96329116D01*
X163127156Y-96424534D01*
X163127158Y-96424536D01*
X163273235Y-96485044D01*
X163314209Y-96490437D01*
X163390639Y-96500500D01*
X165469360Y-96500499D01*
X165586762Y-96485044D01*
X165732841Y-96424536D01*
X165858282Y-96328282D01*
X165954536Y-96202841D01*
X166015044Y-96056762D01*
X166030500Y-95939361D01*
X166030499Y-94318520D01*
X166035282Y-94269951D01*
X166039352Y-94249488D01*
X166076530Y-94159734D01*
X166145228Y-94091034D01*
X166234988Y-94053854D01*
X166234991Y-94053853D01*
X166242901Y-94052279D01*
X166255455Y-94049783D01*
X166304026Y-94045000D01*
X166440966Y-94045000D01*
X166489546Y-94049785D01*
X166512208Y-94054293D01*
X166577320Y-94076979D01*
X166590060Y-94083517D01*
X166641559Y-94117927D01*
X166661344Y-94137712D01*
X166810666Y-94229814D01*
X166810669Y-94229815D01*
X166810667Y-94229815D01*
X166974310Y-94284040D01*
X166977203Y-94284999D01*
X167079991Y-94295500D01*
X167980008Y-94295499D01*
X168082797Y-94284999D01*
X168155897Y-94260776D01*
X168174399Y-94254645D01*
X168221996Y-94243909D01*
X168242711Y-94241335D01*
X168339601Y-94248391D01*
X168426423Y-94291992D01*
X168489945Y-94365489D01*
X168490213Y-94365961D01*
X168519501Y-94449227D01*
X168521817Y-94463575D01*
X168524999Y-94503254D01*
X168524999Y-94701671D01*
X168520214Y-94750251D01*
X168515706Y-94772913D01*
X168478527Y-94862670D01*
X168465694Y-94881876D01*
X168434728Y-94919609D01*
X168432683Y-94921653D01*
X168432682Y-94921655D01*
X168355918Y-95046108D01*
X168340638Y-95070880D01*
X168285495Y-95237292D01*
X168285491Y-95237319D01*
X168275000Y-95340000D01*
X168274999Y-95340013D01*
X168274999Y-95340018D01*
X168274999Y-95539999D01*
X168275000Y-95540000D01*
X168275001Y-95540000D01*
X168282340Y-95543040D01*
X168300053Y-95544785D01*
X168305080Y-95545785D01*
X168394839Y-95582966D01*
X168463537Y-95651666D01*
X168500715Y-95741426D01*
X168500714Y-95838581D01*
X168463533Y-95928340D01*
X168394833Y-95997038D01*
X168305080Y-96034215D01*
X168300053Y-96035215D01*
X168282341Y-96036959D01*
X168275002Y-96039999D01*
X168275001Y-96040000D01*
X168275000Y-96040001D01*
X168275000Y-96239984D01*
X168277143Y-96260968D01*
X168285492Y-96342697D01*
X168285493Y-96342701D01*
X168285494Y-96342702D01*
X168285633Y-96343121D01*
X168337948Y-96501000D01*
X168340639Y-96509119D01*
X168340640Y-96509121D01*
X168432680Y-96658341D01*
X168432683Y-96658345D01*
X168556653Y-96782315D01*
X168556657Y-96782318D01*
X168681106Y-96859079D01*
X168681107Y-96859080D01*
X168695411Y-96867902D01*
X168705877Y-96874358D01*
X168705878Y-96874359D01*
X168872297Y-96929504D01*
X168872304Y-96929505D01*
X168975022Y-96939999D01*
X169399998Y-96939999D01*
X169399999Y-96939999D01*
X169399999Y-96939997D01*
X169402022Y-96937974D01*
X169404782Y-96909956D01*
X169405782Y-96904928D01*
X169442960Y-96815167D01*
X169511657Y-96746467D01*
X169601415Y-96709285D01*
X169698570Y-96709282D01*
X169788331Y-96746460D01*
X169857031Y-96815157D01*
X169894213Y-96904915D01*
X169894216Y-96904928D01*
X169895216Y-96909956D01*
X169897605Y-96934219D01*
X169899998Y-96939996D01*
X169899999Y-96939997D01*
X169899999Y-96939998D01*
X169900000Y-96939999D01*
X170324956Y-96939999D01*
X170324967Y-96939999D01*
X170324983Y-96939998D01*
X170427698Y-96929505D01*
X170427701Y-96929504D01*
X170594118Y-96874359D01*
X170594120Y-96874358D01*
X170743340Y-96782318D01*
X170743344Y-96782315D01*
X170867314Y-96658345D01*
X170867317Y-96658341D01*
X170959357Y-96509121D01*
X170959358Y-96509120D01*
X171014503Y-96342701D01*
X171014504Y-96342694D01*
X171023517Y-96254481D01*
X171024993Y-96240036D01*
X171024999Y-96239977D01*
X171024999Y-96040002D01*
X171024999Y-96040001D01*
X171024998Y-96040000D01*
X171024997Y-96040000D01*
X171024996Y-96039999D01*
X171017659Y-96036960D01*
X170999955Y-96035217D01*
X170994927Y-96034217D01*
X170905166Y-95997039D01*
X170836466Y-95928342D01*
X170799284Y-95838584D01*
X170799281Y-95741429D01*
X170836459Y-95651668D01*
X170905156Y-95582968D01*
X170994914Y-95545786D01*
X170994927Y-95545783D01*
X170999955Y-95544783D01*
X171017658Y-95543039D01*
X171024995Y-95540000D01*
X171024997Y-95540000D01*
X171024998Y-95539999D01*
X171024998Y-95340032D01*
X171024997Y-95340015D01*
X171014504Y-95237300D01*
X171014503Y-95237297D01*
X170959358Y-95070880D01*
X170959357Y-95070878D01*
X170867317Y-94921658D01*
X170867314Y-94921654D01*
X170865266Y-94919606D01*
X170834305Y-94881879D01*
X170821470Y-94862670D01*
X170784290Y-94772910D01*
X170784289Y-94772903D01*
X170779782Y-94750241D01*
X170774999Y-94701671D01*
X170774999Y-93779034D01*
X170779784Y-93730456D01*
X170784292Y-93707793D01*
X170821464Y-93618044D01*
X170834299Y-93598833D01*
X170865275Y-93561090D01*
X170867711Y-93558656D01*
X170959813Y-93409334D01*
X171014998Y-93242797D01*
X171025499Y-93140009D01*
X171025498Y-92239992D01*
X171014998Y-92137203D01*
X170959813Y-91970666D01*
X170908250Y-91887070D01*
X170886826Y-91843223D01*
X170879124Y-91822530D01*
X170863648Y-91726622D01*
X170886051Y-91632090D01*
X170890582Y-91622188D01*
X170940938Y-91549716D01*
X170955471Y-91535185D01*
X171043477Y-91389606D01*
X171094085Y-91227196D01*
X171100499Y-91156616D01*
X171100499Y-90643384D01*
X171100498Y-90643369D01*
X171094086Y-90572811D01*
X171094085Y-90572808D01*
X171094085Y-90572804D01*
X171043477Y-90410394D01*
X171043476Y-90410393D01*
X171043476Y-90410391D01*
X170955470Y-90264813D01*
X170917928Y-90227271D01*
X170891471Y-90187674D01*
X170854290Y-90097915D01*
X170854288Y-90097905D01*
X170849782Y-90075248D01*
X170844999Y-90026678D01*
X170844999Y-89872615D01*
X170849782Y-89824045D01*
X170854289Y-89801383D01*
X170891466Y-89711623D01*
X170904309Y-89692401D01*
X170935267Y-89654678D01*
X170955076Y-89634870D01*
X171043015Y-89489402D01*
X171043017Y-89489397D01*
X171093590Y-89327101D01*
X171099997Y-89256591D01*
X171099999Y-89256567D01*
X171099999Y-89250001D01*
X171099998Y-89250000D01*
X171099997Y-89250000D01*
X171099996Y-89249999D01*
X171094219Y-89247606D01*
X171069955Y-89245217D01*
X171064927Y-89244217D01*
X170975166Y-89207039D01*
X170906466Y-89138342D01*
X170869284Y-89048584D01*
X170869281Y-88951429D01*
X170906459Y-88861668D01*
X170975156Y-88792968D01*
X171064914Y-88755786D01*
X171064927Y-88755783D01*
X171069955Y-88754783D01*
X171094218Y-88752393D01*
X171099995Y-88750000D01*
X171099997Y-88750000D01*
X171099998Y-88749999D01*
X171099998Y-88743431D01*
X171093589Y-88672894D01*
X171043017Y-88510602D01*
X171043015Y-88510597D01*
X170955074Y-88365126D01*
X170935263Y-88345315D01*
X170930170Y-88339108D01*
X170927330Y-88337382D01*
X170917928Y-88327979D01*
X170863952Y-88247197D01*
X170858180Y-88218182D01*
X170844999Y-88205001D01*
X170844999Y-88205000D01*
X170844998Y-88205000D01*
X170838243Y-88205000D01*
X170742955Y-88186046D01*
X170709426Y-88169090D01*
X170689397Y-88156982D01*
X170574420Y-88121153D01*
X170547683Y-88106600D01*
X170547662Y-88106588D01*
X170534566Y-88099461D01*
X170459931Y-88037262D01*
X170414779Y-87951236D01*
X170405985Y-87854480D01*
X170407970Y-87835777D01*
X170419215Y-87783747D01*
X170429505Y-87752697D01*
X170429505Y-87752694D01*
X170429505Y-87752693D01*
X170430449Y-87746844D01*
X170430794Y-87740077D01*
X170433034Y-87718149D01*
X170439999Y-87649981D01*
X170440000Y-87649971D01*
X170440000Y-87437501D01*
X170439999Y-87437500D01*
X170439998Y-87437500D01*
X170439997Y-87437499D01*
X170434220Y-87435106D01*
X170409956Y-87432717D01*
X170404928Y-87431717D01*
X170315167Y-87394539D01*
X170246467Y-87325842D01*
X170209285Y-87236084D01*
X170209282Y-87138929D01*
X170246460Y-87049168D01*
X170315157Y-86980468D01*
X170404915Y-86943286D01*
X170404928Y-86943283D01*
X170409956Y-86942283D01*
X170434219Y-86939893D01*
X170439996Y-86937500D01*
X170439998Y-86937500D01*
X170439999Y-86937499D01*
X170439999Y-86725032D01*
X170439998Y-86725015D01*
X170429505Y-86622300D01*
X170429504Y-86622297D01*
X170374359Y-86455880D01*
X170374358Y-86455878D01*
X170282318Y-86306658D01*
X170282315Y-86306654D01*
X170281999Y-86306338D01*
X170275266Y-86299604D01*
X170244309Y-86261883D01*
X170239811Y-86255152D01*
X170231473Y-86242672D01*
X170194293Y-86152916D01*
X170194290Y-86152903D01*
X170189783Y-86130241D01*
X170185000Y-86081671D01*
X170185000Y-85169034D01*
X170189785Y-85120456D01*
X170194293Y-85097793D01*
X170231464Y-85008047D01*
X170233430Y-85005103D01*
X170257927Y-84968440D01*
X170282712Y-84943656D01*
X170374814Y-84794334D01*
X170429999Y-84627797D01*
X170430012Y-84627662D01*
X170430368Y-84624191D01*
X170431694Y-84619874D01*
X170432845Y-84614501D01*
X170433315Y-84614601D01*
X170444057Y-84579647D01*
X170490167Y-84494134D01*
X170565487Y-84432777D01*
X170568699Y-84431075D01*
X170649188Y-84404731D01*
X170660136Y-84403127D01*
X170696216Y-84400500D01*
X172047395Y-84400500D01*
X172095967Y-84405282D01*
X172117620Y-84409589D01*
X172207378Y-84446767D01*
X172276078Y-84515465D01*
X172276098Y-84515495D01*
X172278108Y-84518504D01*
X172312480Y-84595866D01*
X172315719Y-84608696D01*
X172317086Y-84615968D01*
X172317316Y-84615917D01*
X172320000Y-84627799D01*
X172375183Y-84794330D01*
X172375185Y-84794334D01*
X172467286Y-84943655D01*
X172474733Y-84951102D01*
X172505691Y-84988825D01*
X172518524Y-85008030D01*
X172555705Y-85097789D01*
X172555706Y-85097792D01*
X172560214Y-85120454D01*
X172564999Y-85169034D01*
X172564999Y-86080964D01*
X172560214Y-86129544D01*
X172555706Y-86152206D01*
X172518525Y-86241965D01*
X172505693Y-86261169D01*
X172474734Y-86298895D01*
X172467291Y-86306338D01*
X172467283Y-86306348D01*
X172375184Y-86455664D01*
X172375181Y-86455670D01*
X172320002Y-86622191D01*
X172319998Y-86622220D01*
X172309500Y-86724968D01*
X172309499Y-86724995D01*
X172309499Y-87650009D01*
X172312599Y-87680351D01*
X172320000Y-87752800D01*
X172347497Y-87835780D01*
X172350498Y-87844836D01*
X172352766Y-87863092D01*
X172387689Y-87956926D01*
X172403162Y-88052841D01*
X172380753Y-88147374D01*
X172379245Y-88150670D01*
X172331427Y-88220568D01*
X172323725Y-88228497D01*
X172296701Y-88252546D01*
X172271724Y-88271711D01*
X172271719Y-88271716D01*
X172271707Y-88271729D01*
X172178326Y-88393426D01*
X172178324Y-88393430D01*
X172175466Y-88397155D01*
X172175464Y-88397158D01*
X172175464Y-88397159D01*
X172158858Y-88437249D01*
X172157747Y-88439929D01*
X172157724Y-88439983D01*
X172114954Y-88543240D01*
X172099500Y-88660635D01*
X172099500Y-91242877D01*
X172101143Y-91251839D01*
X172114954Y-91356760D01*
X172114955Y-91356761D01*
X172128560Y-91389606D01*
X172128559Y-91389606D01*
X172175464Y-91502842D01*
X172182013Y-91511929D01*
X172185403Y-91515794D01*
X172226318Y-91569117D01*
X172267043Y-91622190D01*
X172271718Y-91628282D01*
X172271722Y-91628285D01*
X172271723Y-91628286D01*
X172308619Y-91656597D01*
X172308639Y-91656613D01*
X172336589Y-91678059D01*
X172336590Y-91678060D01*
X172397159Y-91724536D01*
X172477846Y-91757957D01*
X172490602Y-91766481D01*
X172526222Y-91778572D01*
X172541468Y-91784311D01*
X172543238Y-91785044D01*
X172543248Y-91785045D01*
X172545044Y-91785527D01*
X172560676Y-91790268D01*
X172589560Y-91800073D01*
X172673698Y-91848651D01*
X172732842Y-91925730D01*
X172757987Y-92019574D01*
X172758549Y-92028149D01*
X172746446Y-92122747D01*
X172740003Y-92142190D01*
X172740000Y-92142205D01*
X172739948Y-92142516D01*
X172739758Y-92144575D01*
X172738306Y-92158781D01*
X172737375Y-92167900D01*
X172729500Y-92244988D01*
X172729500Y-92244991D01*
X172729500Y-93121458D01*
X172724715Y-93170039D01*
X172720408Y-93191690D01*
X172683227Y-93281449D01*
X172614531Y-93350144D01*
X172536607Y-93402211D01*
X172520192Y-93419174D01*
X172451726Y-93471710D01*
X172451719Y-93471716D01*
X172451716Y-93471719D01*
X172451707Y-93471729D01*
X172355469Y-93597150D01*
X172354073Y-93599243D01*
X172350757Y-93608521D01*
X172337468Y-93640601D01*
X172333113Y-93651117D01*
X172319017Y-93685146D01*
X172294954Y-93743239D01*
X172279500Y-93860635D01*
X172279500Y-95942877D01*
X172281143Y-95951839D01*
X172294954Y-96056757D01*
X172294954Y-96056758D01*
X172294954Y-96056760D01*
X172294955Y-96056761D01*
X172303690Y-96077848D01*
X172312967Y-96100244D01*
X172312967Y-96100245D01*
X172355460Y-96202832D01*
X172355464Y-96202842D01*
X172362013Y-96211928D01*
X172365398Y-96215788D01*
X172429247Y-96298998D01*
X172429248Y-96298999D01*
X172429247Y-96298999D01*
X172451721Y-96328287D01*
X172451750Y-96328316D01*
X172452804Y-96329116D01*
X172577156Y-96424534D01*
X172577158Y-96424536D01*
X172723235Y-96485044D01*
X172764209Y-96490437D01*
X172840639Y-96500500D01*
X174919360Y-96500499D01*
X175036762Y-96485044D01*
X175182841Y-96424536D01*
X175308282Y-96328282D01*
X175404536Y-96202841D01*
X175465044Y-96056762D01*
X175480500Y-95939361D01*
X175480499Y-94318520D01*
X175485282Y-94269951D01*
X175489352Y-94249488D01*
X175526530Y-94159734D01*
X175595228Y-94091034D01*
X175684988Y-94053854D01*
X175684991Y-94053853D01*
X175692901Y-94052279D01*
X175705455Y-94049783D01*
X175754026Y-94045000D01*
X175890966Y-94045000D01*
X175939546Y-94049785D01*
X175962208Y-94054293D01*
X176027320Y-94076979D01*
X176040060Y-94083517D01*
X176091559Y-94117927D01*
X176111344Y-94137712D01*
X176260666Y-94229814D01*
X176260669Y-94229815D01*
X176260667Y-94229815D01*
X176424310Y-94284040D01*
X176427203Y-94284999D01*
X176529991Y-94295500D01*
X177430008Y-94295499D01*
X177532797Y-94284999D01*
X177624399Y-94254644D01*
X177672015Y-94243906D01*
X177692721Y-94241333D01*
X177789618Y-94248396D01*
X177876438Y-94292002D01*
X177939921Y-94365441D01*
X177940188Y-94365911D01*
X177969503Y-94449227D01*
X177971818Y-94463575D01*
X177971819Y-94463577D01*
X177975000Y-94503253D01*
X177975000Y-94701671D01*
X177970215Y-94750251D01*
X177965707Y-94772913D01*
X177928528Y-94862670D01*
X177915695Y-94881876D01*
X177884729Y-94919609D01*
X177882684Y-94921653D01*
X177882683Y-94921655D01*
X177805919Y-95046108D01*
X177790639Y-95070880D01*
X177735496Y-95237292D01*
X177735492Y-95237319D01*
X177725001Y-95340000D01*
X177725000Y-95340013D01*
X177725000Y-95340018D01*
X177725000Y-95539999D01*
X177725001Y-95540000D01*
X177725002Y-95540000D01*
X177732341Y-95543040D01*
X177750054Y-95544785D01*
X177755081Y-95545785D01*
X177844840Y-95582966D01*
X177913538Y-95651666D01*
X177950716Y-95741426D01*
X177950715Y-95838581D01*
X177913534Y-95928340D01*
X177844834Y-95997038D01*
X177755081Y-96034215D01*
X177750054Y-96035215D01*
X177732342Y-96036959D01*
X177725003Y-96039999D01*
X177725002Y-96040000D01*
X177725001Y-96040001D01*
X177725001Y-96239984D01*
X177727144Y-96260968D01*
X177735493Y-96342697D01*
X177735494Y-96342701D01*
X177735495Y-96342702D01*
X177735634Y-96343121D01*
X177787949Y-96501000D01*
X177790640Y-96509119D01*
X177790641Y-96509121D01*
X177882681Y-96658341D01*
X177882684Y-96658345D01*
X178006654Y-96782315D01*
X178006658Y-96782318D01*
X178131107Y-96859079D01*
X178131108Y-96859080D01*
X178145412Y-96867902D01*
X178155878Y-96874358D01*
X178155879Y-96874359D01*
X178322298Y-96929504D01*
X178322305Y-96929505D01*
X178425023Y-96939999D01*
X178849999Y-96939999D01*
X178850000Y-96939999D01*
X178850000Y-96939997D01*
X178852023Y-96937974D01*
X178854783Y-96909956D01*
X178855783Y-96904928D01*
X178892961Y-96815167D01*
X178961658Y-96746467D01*
X179051416Y-96709285D01*
X179148571Y-96709282D01*
X179238332Y-96746460D01*
X179307032Y-96815157D01*
X179344214Y-96904915D01*
X179344217Y-96904928D01*
X179345217Y-96909956D01*
X179347606Y-96934219D01*
X179349999Y-96939996D01*
X179350000Y-96939997D01*
X179350000Y-96939998D01*
X179350001Y-96939999D01*
X179774957Y-96939999D01*
X179774968Y-96939999D01*
X179774984Y-96939998D01*
X179877699Y-96929505D01*
X179877702Y-96929504D01*
X180044119Y-96874359D01*
X180044121Y-96874358D01*
X180193341Y-96782318D01*
X180193345Y-96782315D01*
X180317315Y-96658345D01*
X180317318Y-96658341D01*
X180409358Y-96509121D01*
X180409359Y-96509120D01*
X180464504Y-96342701D01*
X180464505Y-96342694D01*
X180473518Y-96254481D01*
X180474994Y-96240036D01*
X180475000Y-96239977D01*
X180475000Y-96040002D01*
X180475000Y-96040001D01*
X180474999Y-96040000D01*
X180474998Y-96040000D01*
X180474997Y-96039999D01*
X180467660Y-96036960D01*
X180449956Y-96035217D01*
X180444928Y-96034217D01*
X180355167Y-95997039D01*
X180286467Y-95928342D01*
X180249285Y-95838584D01*
X180249282Y-95741429D01*
X180286460Y-95651668D01*
X180355157Y-95582968D01*
X180444915Y-95545786D01*
X180444928Y-95545783D01*
X180449956Y-95544783D01*
X180467659Y-95543039D01*
X180474996Y-95540000D01*
X180474998Y-95540000D01*
X180474999Y-95539999D01*
X180474999Y-95340032D01*
X180474998Y-95340015D01*
X180464505Y-95237300D01*
X180464504Y-95237297D01*
X180409359Y-95070880D01*
X180409358Y-95070878D01*
X180317318Y-94921658D01*
X180317315Y-94921654D01*
X180315267Y-94919606D01*
X180284306Y-94881879D01*
X180271471Y-94862670D01*
X180234291Y-94772910D01*
X180234290Y-94772903D01*
X180229783Y-94750241D01*
X180225000Y-94701671D01*
X180225000Y-93779034D01*
X180229785Y-93730456D01*
X180234293Y-93707793D01*
X180271465Y-93618044D01*
X180284300Y-93598833D01*
X180315276Y-93561090D01*
X180317712Y-93558656D01*
X180409814Y-93409334D01*
X180464999Y-93242797D01*
X180475500Y-93140009D01*
X180475499Y-92239992D01*
X180464999Y-92137203D01*
X180409814Y-91970666D01*
X180358251Y-91887070D01*
X180336827Y-91843223D01*
X180329125Y-91822530D01*
X180313649Y-91726622D01*
X180336052Y-91632090D01*
X180340583Y-91622188D01*
X180390939Y-91549716D01*
X180405472Y-91535185D01*
X180493478Y-91389606D01*
X180544086Y-91227196D01*
X180550500Y-91156616D01*
X180550500Y-90643384D01*
X180550499Y-90643369D01*
X180544087Y-90572811D01*
X180544086Y-90572808D01*
X180544086Y-90572804D01*
X180493478Y-90410394D01*
X180493477Y-90410393D01*
X180493477Y-90410391D01*
X180405471Y-90264813D01*
X180367929Y-90227271D01*
X180341472Y-90187674D01*
X180304291Y-90097915D01*
X180304289Y-90097905D01*
X180299783Y-90075248D01*
X180295000Y-90026678D01*
X180295000Y-89872615D01*
X180299783Y-89824045D01*
X180304290Y-89801383D01*
X180341467Y-89711623D01*
X180354310Y-89692401D01*
X180385268Y-89654678D01*
X180405077Y-89634870D01*
X180493016Y-89489402D01*
X180493018Y-89489397D01*
X180543591Y-89327101D01*
X180549998Y-89256591D01*
X180550000Y-89256567D01*
X180550000Y-89250001D01*
X180549999Y-89250000D01*
X180549998Y-89250000D01*
X180549997Y-89249999D01*
X180544220Y-89247606D01*
X180519956Y-89245217D01*
X180514928Y-89244217D01*
X180425167Y-89207039D01*
X180356467Y-89138342D01*
X180319285Y-89048584D01*
X180319282Y-88951429D01*
X180356460Y-88861668D01*
X180425157Y-88792968D01*
X180514915Y-88755786D01*
X180514928Y-88755783D01*
X180519956Y-88754783D01*
X180544219Y-88752393D01*
X180549996Y-88750000D01*
X180549998Y-88750000D01*
X180549999Y-88749999D01*
X180549999Y-88743431D01*
X180543590Y-88672894D01*
X180493018Y-88510602D01*
X180493016Y-88510597D01*
X180405075Y-88365126D01*
X180385264Y-88345315D01*
X180380170Y-88339107D01*
X180377330Y-88337381D01*
X180367929Y-88327979D01*
X180313953Y-88247197D01*
X180308181Y-88218182D01*
X180295000Y-88205001D01*
X180295000Y-88205000D01*
X180294999Y-88205000D01*
X180288244Y-88205000D01*
X180192956Y-88186046D01*
X180159427Y-88169090D01*
X180139398Y-88156982D01*
X180139396Y-88156981D01*
X180024421Y-88121153D01*
X179997675Y-88106596D01*
X179997670Y-88106593D01*
X179988128Y-88101400D01*
X179984566Y-88099461D01*
X179909934Y-88037267D01*
X179864780Y-87951242D01*
X179855984Y-87854490D01*
X179857970Y-87835778D01*
X179869218Y-87783741D01*
X179879505Y-87752697D01*
X179879505Y-87752694D01*
X179879505Y-87752685D01*
X179880449Y-87746844D01*
X179880794Y-87740077D01*
X179883034Y-87718149D01*
X179889999Y-87649981D01*
X179890000Y-87649971D01*
X179890000Y-87437501D01*
X179889999Y-87437500D01*
X179889998Y-87437500D01*
X179889997Y-87437499D01*
X179884220Y-87435106D01*
X179859956Y-87432717D01*
X179854928Y-87431717D01*
X179765167Y-87394539D01*
X179696467Y-87325842D01*
X179659285Y-87236084D01*
X179659282Y-87138929D01*
X179696460Y-87049168D01*
X179765157Y-86980468D01*
X179854915Y-86943286D01*
X179854928Y-86943283D01*
X179859956Y-86942283D01*
X179884219Y-86939893D01*
X179889996Y-86937500D01*
X179889998Y-86937500D01*
X179889999Y-86937499D01*
X179889999Y-86725032D01*
X179889998Y-86725015D01*
X179879505Y-86622300D01*
X179879504Y-86622297D01*
X179824359Y-86455880D01*
X179824358Y-86455878D01*
X179732318Y-86306658D01*
X179732315Y-86306654D01*
X179731999Y-86306338D01*
X179725266Y-86299604D01*
X179694309Y-86261883D01*
X179689811Y-86255152D01*
X179681473Y-86242672D01*
X179644293Y-86152916D01*
X179644290Y-86152903D01*
X179639783Y-86130241D01*
X179635000Y-86081671D01*
X179635000Y-85169034D01*
X179639785Y-85120456D01*
X179644293Y-85097793D01*
X179681464Y-85008047D01*
X179688187Y-84997983D01*
X179694297Y-84988839D01*
X179725265Y-84951102D01*
X179732712Y-84943656D01*
X179824814Y-84794334D01*
X179879999Y-84627797D01*
X179890500Y-84525009D01*
X179890499Y-83599992D01*
X179879999Y-83497203D01*
X179868144Y-83461428D01*
X179868144Y-83461427D01*
X179868144Y-83461426D01*
X179855076Y-83421992D01*
X179848543Y-83402274D01*
X179824814Y-83330666D01*
X179732712Y-83181344D01*
X179608656Y-83057288D01*
X179547317Y-83019454D01*
X179547317Y-83019453D01*
X179547309Y-83019449D01*
X179526427Y-83006568D01*
X179511819Y-82992985D01*
X179419484Y-82940546D01*
X179355830Y-82888873D01*
X179350250Y-82882556D01*
X179329833Y-82856046D01*
X179267143Y-82762223D01*
X179267141Y-82762221D01*
X179267139Y-82762218D01*
X179127782Y-82622861D01*
X178963914Y-82513368D01*
X178963911Y-82513366D01*
X178963909Y-82513365D01*
X178963907Y-82513364D01*
X178961030Y-82511956D01*
X178955755Y-82509987D01*
X178781835Y-82437949D01*
X178781830Y-82437947D01*
X178781826Y-82437946D01*
X178588549Y-82399500D01*
X178588545Y-82399500D01*
X178588541Y-82399500D01*
X176198541Y-82399500D01*
X173808540Y-82399500D01*
X169138541Y-82399500D01*
X166748541Y-82399500D01*
X164358541Y-82399500D01*
X164074027Y-82399500D01*
X164025442Y-82394714D01*
X164004984Y-82390644D01*
X163915226Y-82353462D01*
X163846529Y-82284761D01*
X163809355Y-82195015D01*
X163805285Y-82174557D01*
X163800499Y-82125981D01*
X163800499Y-81274026D01*
X163805283Y-81225454D01*
X163809352Y-81204996D01*
X163846530Y-81115235D01*
X163915228Y-81046535D01*
X164004985Y-81009354D01*
X164004988Y-81009353D01*
X164004995Y-81009353D01*
X164025453Y-81005284D01*
X164074026Y-81000500D01*
X181475973Y-81000500D01*
X181524549Y-81005284D01*
G37*
%TD.AperFunction*%
%TA.AperFunction,Conductor*%
G36*
X109230049Y-87104784D02*
G01*
X109250506Y-87108853D01*
X109340266Y-87146032D01*
X109408965Y-87214731D01*
X109446144Y-87304484D01*
X109450214Y-87324942D01*
X109455000Y-87373527D01*
X109455000Y-87388972D01*
X109450214Y-87437557D01*
X109446144Y-87458015D01*
X109408962Y-87547773D01*
X109340261Y-87616470D01*
X109250517Y-87653644D01*
X109230060Y-87657714D01*
X109181473Y-87662500D01*
X109135166Y-87662500D01*
X109086586Y-87657715D01*
X109063924Y-87653207D01*
X108974168Y-87616029D01*
X108969002Y-87612577D01*
X108950179Y-87600000D01*
X108950178Y-87600000D01*
X108301555Y-87600000D01*
X108301554Y-87600000D01*
X108251136Y-87650014D01*
X108238550Y-87662500D01*
X108200000Y-87700741D01*
X108200000Y-88308902D01*
X108208531Y-88321670D01*
X108245707Y-88411424D01*
X108250215Y-88434087D01*
X108255000Y-88482665D01*
X108255000Y-89776472D01*
X108250215Y-89825055D01*
X108246145Y-89845514D01*
X108208963Y-89935272D01*
X108140263Y-90003970D01*
X108050519Y-90041144D01*
X108035918Y-90044048D01*
X108030065Y-90045213D01*
X107981479Y-90050000D01*
X107650016Y-90050000D01*
X107547302Y-90060493D01*
X107547293Y-90060495D01*
X107546958Y-90060607D01*
X107380881Y-90115639D01*
X107380879Y-90115639D01*
X107380870Y-90115645D01*
X107231588Y-90207722D01*
X107230799Y-90208015D01*
X107214223Y-90217496D01*
X107188020Y-90230893D01*
X107094549Y-90257395D01*
X106998052Y-90246110D01*
X106913225Y-90198761D01*
X106904740Y-90191535D01*
X106853045Y-90130700D01*
X106623541Y-89750728D01*
X106611431Y-89725347D01*
X106611245Y-89725442D01*
X106607124Y-89717289D01*
X106605113Y-89712104D01*
X106602516Y-89706660D01*
X106599307Y-89697785D01*
X106599529Y-89697704D01*
X106589493Y-89671822D01*
X106588916Y-89669752D01*
X106581588Y-89572874D01*
X106611892Y-89480566D01*
X106675214Y-89406881D01*
X106761914Y-89363038D01*
X106761999Y-89363014D01*
X106763242Y-89362668D01*
X106782717Y-89359257D01*
X106782517Y-89358250D01*
X106797304Y-89355308D01*
X106797308Y-89355309D01*
X106799956Y-89354782D01*
X106803781Y-89354405D01*
X106805474Y-89353749D01*
X106809520Y-89353840D01*
X106817661Y-89353038D01*
X106824996Y-89350000D01*
X106824998Y-89350000D01*
X106824999Y-89349999D01*
X106824999Y-88900032D01*
X106824998Y-88900015D01*
X106814505Y-88797300D01*
X106814504Y-88797297D01*
X106765891Y-88650594D01*
X106755157Y-88602997D01*
X106752583Y-88582285D01*
X106759640Y-88485393D01*
X106803242Y-88398572D01*
X106876737Y-88335052D01*
X106877209Y-88334784D01*
X106960493Y-88305493D01*
X106974847Y-88303176D01*
X107014504Y-88299999D01*
X107699998Y-88299999D01*
X107699999Y-88299999D01*
X107700000Y-88299998D01*
X107700000Y-87623527D01*
X107704783Y-87574957D01*
X107709290Y-87552295D01*
X107717370Y-87532784D01*
X107720917Y-87511967D01*
X107746463Y-87462543D01*
X107746466Y-87462536D01*
X107759028Y-87443735D01*
X107790704Y-87405296D01*
X107813931Y-87382255D01*
X107823652Y-87375815D01*
X107870375Y-87326438D01*
X107873639Y-87324123D01*
X107875877Y-87320804D01*
X108012048Y-87185721D01*
X108049059Y-87155471D01*
X108062528Y-87146471D01*
X108152282Y-87109292D01*
X108158871Y-87107981D01*
X108174957Y-87104783D01*
X108223527Y-87100000D01*
X109181473Y-87100000D01*
X109230049Y-87104784D01*
G37*
%TD.AperFunction*%
%TD*%
%TA.AperFunction,Conductor*%
%TO.N,SWITCHED_SYSTEM+*%
G36*
X106146288Y-81019454D02*
G01*
X106227070Y-81073430D01*
X106281046Y-81154212D01*
X106300000Y-81249500D01*
X106300000Y-84060503D01*
X106299677Y-84073173D01*
X106299500Y-84076646D01*
X106299500Y-84623335D01*
X106299678Y-84626810D01*
X106300000Y-84639479D01*
X106300000Y-87060503D01*
X106299677Y-87073173D01*
X106299500Y-87076646D01*
X106299500Y-87623335D01*
X106299678Y-87626810D01*
X106300000Y-87639479D01*
X106300000Y-87950500D01*
X106281046Y-88045788D01*
X106227070Y-88126570D01*
X106146288Y-88180546D01*
X106051000Y-88199500D01*
X105200002Y-88199500D01*
X105199985Y-88199501D01*
X105097199Y-88210001D01*
X104930665Y-88265185D01*
X104917524Y-88271314D01*
X104916677Y-88269498D01*
X104843267Y-88296821D01*
X104803607Y-88300000D01*
X101249500Y-88300000D01*
X101154212Y-88281046D01*
X101073430Y-88227070D01*
X101019454Y-88146288D01*
X101000500Y-88051000D01*
X101000500Y-81249500D01*
X101019454Y-81154212D01*
X101073430Y-81073430D01*
X101154212Y-81019454D01*
X101249500Y-81000500D01*
X106051000Y-81000500D01*
X106146288Y-81019454D01*
G37*
%TD.AperFunction*%
%TD*%
M02*
