%TF.GenerationSoftware,KiCad,Pcbnew,10.0.6-10.0.6~ubuntu24.04.1*%
%TF.CreationDate,2026-09-23T12:11:43+05:30*%
%TF.ProjectId,EAS_ERM_Driver_tight,4541535f-4552-44d5-9f44-72697665725f,rev?*%
%TF.SameCoordinates,Original*%
%TF.FileFunction,Copper,L1,Top*%
%TF.FilePolarity,Positive*%
%FSLAX46Y46*%
G04 Gerber Fmt 4.6, Leading zero omitted, Abs format (unit mm)*
G04 Created by KiCad (PCBNEW 10.0.6-10.0.6~ubuntu24.04.1) date 2026-09-23 12:11:43*
%MOMM*%
%LPD*%
G01*
G04 APERTURE LIST*
G04 Aperture macros list*
%AMRoundRect*
0 Rectangle with rounded corners*
0 $1 Rounding radius*
0 $2 $3 $4 $5 $6 $7 $8 $9 X,Y pos of 4 corners*
0 Add a 4 corners polygon primitive as box body*
4,1,4,$2,$3,$4,$5,$6,$7,$8,$9,$2,$3,0*
0 Add four circle primitives for the rounded corners*
1,1,$1+$1,$2,$3*
1,1,$1+$1,$4,$5*
1,1,$1+$1,$6,$7*
1,1,$1+$1,$8,$9*
0 Add four rect primitives between the rounded corners*
20,1,$1+$1,$2,$3,$4,$5,0*
20,1,$1+$1,$4,$5,$6,$7,0*
20,1,$1+$1,$6,$7,$8,$9,0*
20,1,$1+$1,$8,$9,$2,$3,0*%
%AMFreePoly0*
4,1,9,3.862500,-0.866500,1.012500,-0.866500,1.012500,-0.450000,-0.737500,-0.450000,-0.737500,0.450000,1.012500,0.450000,1.012500,0.866500,3.862500,0.866500,3.862500,-0.866500,3.862500,-0.866500,$1*%
G04 Aperture macros list end*
%TA.AperFunction,SMDPad,CuDef*%
%ADD10RoundRect,0.250000X-0.650000X0.325000X-0.650000X-0.325000X0.650000X-0.325000X0.650000X0.325000X0*%
%TD*%
%TA.AperFunction,SMDPad,CuDef*%
%ADD11RoundRect,0.150000X0.587500X0.150000X-0.587500X0.150000X-0.587500X-0.150000X0.587500X-0.150000X0*%
%TD*%
%TA.AperFunction,SMDPad,CuDef*%
%ADD12R,2.500000X7.000000*%
%TD*%
%TA.AperFunction,SMDPad,CuDef*%
%ADD13R,2.000000X2.000000*%
%TD*%
%TA.AperFunction,SMDPad,CuDef*%
%ADD14RoundRect,0.225000X0.425000X0.225000X-0.425000X0.225000X-0.425000X-0.225000X0.425000X-0.225000X0*%
%TD*%
%TA.AperFunction,SMDPad,CuDef*%
%ADD15FreePoly0,180.000000*%
%TD*%
%TA.AperFunction,SMDPad,CuDef*%
%ADD16RoundRect,0.250000X-0.325000X-0.650000X0.325000X-0.650000X0.325000X0.650000X-0.325000X0.650000X0*%
%TD*%
%TA.AperFunction,SMDPad,CuDef*%
%ADD17RoundRect,0.225000X-0.375000X0.225000X-0.375000X-0.225000X0.375000X-0.225000X0.375000X0.225000X0*%
%TD*%
%TA.AperFunction,SMDPad,CuDef*%
%ADD18RoundRect,0.250000X-0.625000X0.312500X-0.625000X-0.312500X0.625000X-0.312500X0.625000X0.312500X0*%
%TD*%
%TA.AperFunction,SMDPad,CuDef*%
%ADD19RoundRect,0.250000X-0.312500X-0.625000X0.312500X-0.625000X0.312500X0.625000X-0.312500X0.625000X0*%
%TD*%
%TA.AperFunction,SMDPad,CuDef*%
%ADD20RoundRect,0.250000X1.250000X0.550000X-1.250000X0.550000X-1.250000X-0.550000X1.250000X-0.550000X0*%
%TD*%
%TA.AperFunction,SMDPad,CuDef*%
%ADD21R,3.000000X2.500000*%
%TD*%
%TA.AperFunction,SMDPad,CuDef*%
%ADD22R,2.500000X2.500000*%
%TD*%
%TA.AperFunction,Conductor*%
%ADD23C,1.000000*%
%TD*%
%TA.AperFunction,Conductor*%
%ADD24C,0.800000*%
%TD*%
%TA.AperFunction,Conductor*%
%ADD25C,0.500000*%
%TD*%
G04 APERTURE END LIST*
D10*
%TO.P,C5,1*%
%TO.N,HAPTIC_3V3_A*%
X107300000Y-81975000D03*
%TO.P,C5,2*%
%TO.N,GND*%
X107300000Y-84925000D03*
%TD*%
D11*
%TO.P,Q4,1*%
%TO.N,GATE4*%
X118287500Y-101300000D03*
%TO.P,Q4,2*%
%TO.N,GND*%
X118287500Y-99400000D03*
%TO.P,Q4,3*%
%TO.N,M4-*%
X116412500Y-100350000D03*
%TD*%
D12*
%TO.P,J11,1*%
%TO.N,HAPTIC_3V3_A*%
X109750000Y-84000000D03*
%TD*%
D10*
%TO.P,C9,1*%
%TO.N,HAPTIC_3V3_A*%
X114362500Y-81575000D03*
%TO.P,C9,2*%
%TO.N,M1-*%
X114362500Y-84525000D03*
%TD*%
D13*
%TO.P,J5,1*%
%TO.N,PWM1*%
X114050000Y-91350000D03*
%TD*%
D14*
%TO.P,U2,1*%
%TO.N,GND*%
X105450000Y-98400000D03*
D15*
%TO.P,U2,2*%
%TO.N,SWITCHED_SYSTEM+*%
X105362500Y-96900000D03*
D14*
%TO.P,U2,3*%
%TO.N,HAPTIC_3V3_B*%
X105450000Y-95400000D03*
%TD*%
D16*
%TO.P,C4,1*%
%TO.N,SWITCHED_SYSTEM+*%
X101575000Y-102300000D03*
%TO.P,C4,2*%
%TO.N,GND*%
X104525000Y-102300000D03*
%TD*%
D17*
%TO.P,D5,1*%
%TO.N,HAPTIC_3V3_B*%
X123862500Y-94900000D03*
%TO.P,D5,2*%
%TO.N,M5-*%
X123862500Y-98200000D03*
%TD*%
%TO.P,D2,1*%
%TO.N,HAPTIC_3V3_A*%
X123862500Y-81450000D03*
%TO.P,D2,2*%
%TO.N,M2-*%
X123862500Y-84750000D03*
%TD*%
D11*
%TO.P,Q1,1*%
%TO.N,GATE1*%
X118287500Y-87850000D03*
%TO.P,Q1,2*%
%TO.N,GND*%
X118287500Y-85950000D03*
%TO.P,Q1,3*%
%TO.N,M1-*%
X116412500Y-86900000D03*
%TD*%
D17*
%TO.P,D1,1*%
%TO.N,HAPTIC_3V3_A*%
X116412500Y-81450000D03*
%TO.P,D1,2*%
%TO.N,M1-*%
X116412500Y-84750000D03*
%TD*%
D18*
%TO.P,R10,1*%
%TO.N,GATE4*%
X118150000Y-102612500D03*
%TO.P,R10,2*%
%TO.N,GND*%
X118150000Y-105537500D03*
%TD*%
%TO.P,R12,1*%
%TO.N,GATE6*%
X133050000Y-102612500D03*
%TO.P,R12,2*%
%TO.N,GND*%
X133050000Y-105537500D03*
%TD*%
D16*
%TO.P,C2,1*%
%TO.N,SWITCHED_SYSTEM+*%
X101575000Y-100300000D03*
%TO.P,C2,2*%
%TO.N,GND*%
X104525000Y-100300000D03*
%TD*%
D13*
%TO.P,J7,1*%
%TO.N,PWM3*%
X128949999Y-91350000D03*
%TD*%
D10*
%TO.P,C13,1*%
%TO.N,HAPTIC_3V3_B*%
X121812500Y-95025000D03*
%TO.P,C13,2*%
%TO.N,M5-*%
X121812500Y-97975000D03*
%TD*%
D19*
%TO.P,R2,1*%
%TO.N,PWM2*%
X121037500Y-89475000D03*
%TO.P,R2,2*%
%TO.N,GATE2*%
X123962500Y-89475000D03*
%TD*%
D13*
%TO.P,J4,1*%
%TO.N,GND*%
X110400000Y-106100000D03*
%TD*%
D20*
%TO.P,C8,1*%
%TO.N,HAPTIC_3V3_B*%
X111200000Y-102100000D03*
%TO.P,C8,2*%
%TO.N,GND*%
X106800000Y-102100000D03*
%TD*%
D21*
%TO.P,J2,1*%
%TO.N,GND*%
X107600000Y-105850000D03*
%TD*%
D10*
%TO.P,C17,1*%
%TO.N,HAPTIC_3V3_A*%
X133362500Y-81575000D03*
%TO.P,C17,2*%
%TO.N,GND*%
X133362500Y-84525000D03*
%TD*%
D22*
%TO.P,J18,1*%
%TO.N,M6-*%
X129400000Y-100350000D03*
%TD*%
D11*
%TO.P,Q3,1*%
%TO.N,GATE3*%
X133187500Y-87850000D03*
%TO.P,Q3,2*%
%TO.N,GND*%
X133187500Y-85950000D03*
%TO.P,Q3,3*%
%TO.N,M3-*%
X131312500Y-86900000D03*
%TD*%
D10*
%TO.P,C15,1*%
%TO.N,HAPTIC_3V3_A*%
X118462500Y-81575000D03*
%TO.P,C15,2*%
%TO.N,GND*%
X118462500Y-84525000D03*
%TD*%
D12*
%TO.P,J15,1*%
%TO.N,HAPTIC_3V3_B*%
X109750000Y-97450000D03*
%TD*%
D22*
%TO.P,J17,1*%
%TO.N,M5-*%
X121950000Y-100350000D03*
%TD*%
D10*
%TO.P,C19,1*%
%TO.N,HAPTIC_3V3_B*%
X125912500Y-95025000D03*
%TO.P,C19,2*%
%TO.N,GND*%
X125912500Y-97975000D03*
%TD*%
D11*
%TO.P,Q2,1*%
%TO.N,GATE2*%
X125737500Y-87850000D03*
%TO.P,Q2,2*%
%TO.N,GND*%
X125737500Y-85950000D03*
%TO.P,Q2,3*%
%TO.N,M2-*%
X123862500Y-86900000D03*
%TD*%
D22*
%TO.P,J16,1*%
%TO.N,M4-*%
X114500000Y-100350000D03*
%TD*%
D14*
%TO.P,U1,1*%
%TO.N,GND*%
X105450000Y-84950000D03*
D15*
%TO.P,U1,2*%
%TO.N,SWITCHED_SYSTEM+*%
X105362500Y-83450000D03*
D14*
%TO.P,U1,3*%
%TO.N,HAPTIC_3V3_A*%
X105450000Y-81950000D03*
%TD*%
D10*
%TO.P,C11,1*%
%TO.N,HAPTIC_3V3_A*%
X129262499Y-81575000D03*
%TO.P,C11,2*%
%TO.N,M3-*%
X129262499Y-84525000D03*
%TD*%
%TO.P,C20,1*%
%TO.N,HAPTIC_3V3_B*%
X133362500Y-95025000D03*
%TO.P,C20,2*%
%TO.N,GND*%
X133362500Y-97975000D03*
%TD*%
D19*
%TO.P,R5,1*%
%TO.N,PWM5*%
X121037500Y-102925000D03*
%TO.P,R5,2*%
%TO.N,GATE5*%
X123962500Y-102925000D03*
%TD*%
%TO.P,R1,1*%
%TO.N,PWM1*%
X113587500Y-89475000D03*
%TO.P,R1,2*%
%TO.N,GATE1*%
X116512500Y-89475000D03*
%TD*%
D17*
%TO.P,D4,1*%
%TO.N,HAPTIC_3V3_B*%
X116412500Y-94900000D03*
%TO.P,D4,2*%
%TO.N,M4-*%
X116412500Y-98200000D03*
%TD*%
D10*
%TO.P,C14,1*%
%TO.N,HAPTIC_3V3_B*%
X129262499Y-95025000D03*
%TO.P,C14,2*%
%TO.N,M6-*%
X129262499Y-97975000D03*
%TD*%
D21*
%TO.P,J1,1*%
%TO.N,SWITCHED_SYSTEM+*%
X102000000Y-105850000D03*
%TD*%
D13*
%TO.P,J9,1*%
%TO.N,PWM5*%
X121500000Y-104800000D03*
%TD*%
D20*
%TO.P,C7,1*%
%TO.N,HAPTIC_3V3_A*%
X111200000Y-88650000D03*
%TO.P,C7,2*%
%TO.N,GND*%
X106800000Y-88650000D03*
%TD*%
D19*
%TO.P,R3,1*%
%TO.N,PWM3*%
X128487499Y-89475000D03*
%TO.P,R3,2*%
%TO.N,GATE3*%
X131412499Y-89475000D03*
%TD*%
D10*
%TO.P,C6,1*%
%TO.N,HAPTIC_3V3_B*%
X107300000Y-95425000D03*
%TO.P,C6,2*%
%TO.N,GND*%
X107300000Y-98375000D03*
%TD*%
D17*
%TO.P,D3,1*%
%TO.N,HAPTIC_3V3_A*%
X131312500Y-81450000D03*
%TO.P,D3,2*%
%TO.N,M3-*%
X131312500Y-84750000D03*
%TD*%
D10*
%TO.P,C16,1*%
%TO.N,HAPTIC_3V3_A*%
X125912500Y-81575000D03*
%TO.P,C16,2*%
%TO.N,GND*%
X125912500Y-84525000D03*
%TD*%
D16*
%TO.P,C3,1*%
%TO.N,SWITCHED_SYSTEM+*%
X101575000Y-88850000D03*
%TO.P,C3,2*%
%TO.N,GND*%
X104525000Y-88850000D03*
%TD*%
D13*
%TO.P,J3,1*%
%TO.N,SWITCHED_SYSTEM+*%
X104800000Y-104800000D03*
%TD*%
D22*
%TO.P,J13,1*%
%TO.N,M2-*%
X121950000Y-86900000D03*
%TD*%
D10*
%TO.P,C10,1*%
%TO.N,HAPTIC_3V3_A*%
X121812500Y-81575000D03*
%TO.P,C10,2*%
%TO.N,M2-*%
X121812500Y-84525000D03*
%TD*%
%TO.P,C18,1*%
%TO.N,HAPTIC_3V3_B*%
X118462500Y-95025000D03*
%TO.P,C18,2*%
%TO.N,GND*%
X118462500Y-97975000D03*
%TD*%
D18*
%TO.P,R11,1*%
%TO.N,GATE5*%
X125600000Y-102612500D03*
%TO.P,R11,2*%
%TO.N,GND*%
X125600000Y-105537500D03*
%TD*%
%TO.P,R9,1*%
%TO.N,GATE3*%
X133050000Y-89162500D03*
%TO.P,R9,2*%
%TO.N,GND*%
X133050000Y-92087500D03*
%TD*%
D22*
%TO.P,J12,1*%
%TO.N,M1-*%
X114500000Y-86900000D03*
%TD*%
D13*
%TO.P,J8,1*%
%TO.N,PWM4*%
X114050000Y-104800000D03*
%TD*%
D19*
%TO.P,R6,1*%
%TO.N,PWM6*%
X128487499Y-102925000D03*
%TO.P,R6,2*%
%TO.N,GATE6*%
X131412499Y-102925000D03*
%TD*%
D16*
%TO.P,C1,1*%
%TO.N,SWITCHED_SYSTEM+*%
X101575000Y-86850000D03*
%TO.P,C1,2*%
%TO.N,GND*%
X104525000Y-86850000D03*
%TD*%
D18*
%TO.P,R8,1*%
%TO.N,GATE2*%
X125600000Y-89162500D03*
%TO.P,R8,2*%
%TO.N,GND*%
X125600000Y-92087500D03*
%TD*%
D11*
%TO.P,Q6,1*%
%TO.N,GATE6*%
X133187500Y-101300000D03*
%TO.P,Q6,2*%
%TO.N,GND*%
X133187500Y-99400000D03*
%TO.P,Q6,3*%
%TO.N,M6-*%
X131312500Y-100350000D03*
%TD*%
%TO.P,Q5,1*%
%TO.N,GATE5*%
X125737500Y-101300000D03*
%TO.P,Q5,2*%
%TO.N,GND*%
X125737500Y-99400000D03*
%TO.P,Q5,3*%
%TO.N,M5-*%
X123862500Y-100350000D03*
%TD*%
D18*
%TO.P,R7,1*%
%TO.N,GATE1*%
X118150000Y-89162500D03*
%TO.P,R7,2*%
%TO.N,GND*%
X118150000Y-92087500D03*
%TD*%
D13*
%TO.P,J10,1*%
%TO.N,PWM6*%
X128949999Y-104800000D03*
%TD*%
D22*
%TO.P,J14,1*%
%TO.N,M3-*%
X129400000Y-86900000D03*
%TD*%
D13*
%TO.P,J6,1*%
%TO.N,PWM2*%
X121500000Y-91350000D03*
%TD*%
D10*
%TO.P,C12,1*%
%TO.N,HAPTIC_3V3_B*%
X114362500Y-95025000D03*
%TO.P,C12,2*%
%TO.N,M4-*%
X114362500Y-97975000D03*
%TD*%
D17*
%TO.P,D6,1*%
%TO.N,HAPTIC_3V3_B*%
X131312500Y-94900000D03*
%TO.P,D6,2*%
%TO.N,M6-*%
X131312500Y-98200000D03*
%TD*%
D19*
%TO.P,R4,1*%
%TO.N,PWM4*%
X113587500Y-102925000D03*
%TO.P,R4,2*%
%TO.N,GATE4*%
X116512500Y-102925000D03*
%TD*%
%TO.N,HAPTIC_3V3_A*%
D23*
X114362500Y-81000000D02*
X116412500Y-81000000D01*
X133362500Y-81000000D02*
X133362500Y-81575000D01*
X123862500Y-81000000D02*
X123862500Y-81450000D01*
X116412500Y-81000000D02*
X116412500Y-81450000D01*
X129262499Y-81000000D02*
X131312500Y-81000000D01*
X107300000Y-81000000D02*
X107300000Y-81975000D01*
X131312500Y-81000000D02*
X131312500Y-81450000D01*
X105450000Y-81000000D02*
X107300000Y-81000000D01*
X114362500Y-81000000D02*
X114362500Y-81575000D01*
X129262499Y-81000000D02*
X129262499Y-81575000D01*
X109750000Y-84000000D02*
X109750000Y-88650000D01*
X109750000Y-81000000D02*
X114362500Y-81000000D01*
X107300000Y-81000000D02*
X109750000Y-81000000D01*
X105450000Y-81950000D02*
X107300000Y-81950000D01*
X118462500Y-81000000D02*
X118462500Y-81575000D01*
X109750000Y-81000000D02*
X109750000Y-84000000D01*
X116412500Y-81000000D02*
X118462500Y-81000000D01*
X121812500Y-81000000D02*
X123862500Y-81000000D01*
X109750000Y-88650000D02*
X111200000Y-88650000D01*
X123862500Y-81000000D02*
X125912500Y-81000000D01*
X121812500Y-81000000D02*
X121812500Y-81575000D01*
X118462500Y-81000000D02*
X121812500Y-81000000D01*
X125912500Y-81000000D02*
X129262499Y-81000000D01*
X125912500Y-81000000D02*
X125912500Y-81575000D01*
X131312500Y-81000000D02*
X133362500Y-81000000D01*
X105450000Y-81000000D02*
X105450000Y-81950000D01*
%TO.N,GND*%
X110400000Y-106600000D02*
X118150000Y-106600000D01*
D24*
X104525000Y-86850000D02*
X104525000Y-88650000D01*
X104525000Y-100300000D02*
X104525000Y-102100000D01*
X125600000Y-105537500D02*
X125600000Y-106600000D01*
X104525000Y-88650000D02*
X106800000Y-88650000D01*
X118462500Y-85950000D02*
X118287500Y-85950000D01*
X118462500Y-99400000D02*
X118287500Y-99400000D01*
D23*
X133050000Y-93150000D02*
X134650000Y-93150000D01*
D24*
X134650000Y-85950000D02*
X134650000Y-93150000D01*
D23*
X110400000Y-106600000D02*
X110400000Y-106100000D01*
D24*
X127200000Y-99400000D02*
X127200000Y-106600000D01*
X107300000Y-98375000D02*
X107300000Y-102100000D01*
X119750000Y-99400000D02*
X119750000Y-106600000D01*
X107300000Y-84925000D02*
X107300000Y-88650000D01*
X119750000Y-85950000D02*
X119750000Y-93150000D01*
X118150000Y-105537500D02*
X118150000Y-106600000D01*
D23*
X118150000Y-106600000D02*
X119750000Y-106600000D01*
X106800000Y-88650000D02*
X106800000Y-93150000D01*
X106800000Y-93150000D02*
X118150000Y-93150000D01*
D24*
X134650000Y-99400000D02*
X134650000Y-106600000D01*
D23*
X127200000Y-93150000D02*
X133050000Y-93150000D01*
X125600000Y-106600000D02*
X127200000Y-106600000D01*
X107600000Y-106600000D02*
X110400000Y-106600000D01*
D24*
X133187500Y-99400000D02*
X134650000Y-99400000D01*
X118287500Y-85950000D02*
X119750000Y-85950000D01*
D23*
X125600000Y-93150000D02*
X127200000Y-93150000D01*
D24*
X125737500Y-99400000D02*
X127200000Y-99400000D01*
X105450000Y-98400000D02*
X107300000Y-98400000D01*
X133050000Y-92087500D02*
X133050000Y-93150000D01*
X125912500Y-84525000D02*
X125912500Y-85950000D01*
X105450000Y-84950000D02*
X107300000Y-84950000D01*
D23*
X134650000Y-93150000D02*
X135062500Y-93150000D01*
D24*
X133362500Y-85950000D02*
X133187500Y-85950000D01*
X125912500Y-85950000D02*
X125737500Y-85950000D01*
D23*
X134650000Y-106600000D02*
X135062500Y-106600000D01*
D24*
X125912500Y-99400000D02*
X125737500Y-99400000D01*
D23*
X118150000Y-93150000D02*
X119750000Y-93150000D01*
X133050000Y-106600000D02*
X134650000Y-106600000D01*
D24*
X118150000Y-92087500D02*
X118150000Y-93150000D01*
X104525000Y-102100000D02*
X104525000Y-102300000D01*
X118462500Y-84525000D02*
X118462500Y-85950000D01*
D23*
X119750000Y-93150000D02*
X125600000Y-93150000D01*
D24*
X133187500Y-85950000D02*
X134650000Y-85950000D01*
X118462500Y-97975000D02*
X118462500Y-99400000D01*
X125737500Y-85950000D02*
X127200000Y-85950000D01*
X133362500Y-84525000D02*
X133362500Y-85950000D01*
X133050000Y-105537500D02*
X133050000Y-106600000D01*
X104525000Y-102100000D02*
X106800000Y-102100000D01*
X125912500Y-97975000D02*
X125912500Y-99400000D01*
X125600000Y-92087500D02*
X125600000Y-93150000D01*
D23*
X106800000Y-106600000D02*
X107600000Y-106600000D01*
X135062500Y-93150000D02*
X135062500Y-106600000D01*
D24*
X133362500Y-97975000D02*
X133362500Y-99400000D01*
D23*
X119750000Y-106600000D02*
X125600000Y-106600000D01*
X107600000Y-106600000D02*
X107600000Y-105850000D01*
D24*
X133362500Y-99400000D02*
X133187500Y-99400000D01*
X127200000Y-85950000D02*
X127200000Y-93150000D01*
D23*
X127200000Y-106600000D02*
X133050000Y-106600000D01*
D24*
X118287500Y-99400000D02*
X119750000Y-99400000D01*
X104525000Y-88650000D02*
X104525000Y-88850000D01*
D23*
X106800000Y-102100000D02*
X106800000Y-106600000D01*
%TO.N,GATE4*%
D25*
X118287500Y-101300000D02*
X118287500Y-102612500D01*
X116512500Y-102612500D02*
X118150000Y-102612500D01*
X118287500Y-102612500D02*
X118150000Y-102612500D01*
X116512500Y-102925000D02*
X116512500Y-102612500D01*
%TO.N,M4-*%
D24*
X116412500Y-98200000D02*
X116412500Y-100350000D01*
X116412500Y-100350000D02*
X114500000Y-100350000D01*
X114362500Y-97975000D02*
X114362500Y-100350000D01*
%TO.N,M1-*%
X116412500Y-84750000D02*
X116412500Y-86900000D01*
X114362500Y-84525000D02*
X114362500Y-86900000D01*
X116412500Y-86900000D02*
X114500000Y-86900000D01*
%TO.N,PWM1*%
D25*
X113587500Y-89475000D02*
X114050000Y-91350000D01*
%TO.N,SWITCHED_SYSTEM+*%
D23*
X101000000Y-96900000D02*
X101000000Y-88850000D01*
X101000000Y-105850000D02*
X101000000Y-102300000D01*
X101000000Y-96900000D02*
X103000000Y-96900000D01*
X102000000Y-105850000D02*
X101000000Y-105850000D01*
X101000000Y-83450000D02*
X103000000Y-83450000D01*
X101000000Y-100300000D02*
X101000000Y-96900000D01*
X101000000Y-88850000D02*
X101000000Y-86850000D01*
D24*
X101000000Y-100300000D02*
X101575000Y-100300000D01*
X101000000Y-86850000D02*
X101575000Y-86850000D01*
D23*
X101000000Y-102300000D02*
X101000000Y-100300000D01*
D24*
X101000000Y-102300000D02*
X101575000Y-102300000D01*
X101000000Y-88850000D02*
X101575000Y-88850000D01*
D23*
X101000000Y-86850000D02*
X101000000Y-83450000D01*
X102000000Y-105850000D02*
X104800000Y-104800000D01*
%TO.N,HAPTIC_3V3_B*%
X125912500Y-94450000D02*
X129262499Y-94450000D01*
X116412500Y-94450000D02*
X116412500Y-94900000D01*
X121812500Y-94450000D02*
X121812500Y-95025000D01*
X116412500Y-94450000D02*
X118462500Y-94450000D01*
X121812500Y-94450000D02*
X123862500Y-94450000D01*
X105450000Y-94450000D02*
X107300000Y-94450000D01*
X107300000Y-94450000D02*
X109750000Y-94450000D01*
X125912500Y-94450000D02*
X125912500Y-95025000D01*
X118462500Y-94450000D02*
X121812500Y-94450000D01*
X131312500Y-94450000D02*
X131312500Y-94900000D01*
X123862500Y-94450000D02*
X125912500Y-94450000D01*
X109750000Y-102100000D02*
X111200000Y-102100000D01*
X131312500Y-94450000D02*
X133362500Y-94450000D01*
X129262499Y-94450000D02*
X131312500Y-94450000D01*
X109750000Y-94450000D02*
X114362500Y-94450000D01*
X105450000Y-95400000D02*
X107300000Y-95400000D01*
X133362500Y-94450000D02*
X133362500Y-95025000D01*
X114362500Y-94450000D02*
X116412500Y-94450000D01*
X114362500Y-94450000D02*
X114362500Y-95025000D01*
X105450000Y-94450000D02*
X105450000Y-95400000D01*
X109750000Y-97450000D02*
X109750000Y-102100000D01*
X129262499Y-94450000D02*
X129262499Y-95025000D01*
X107300000Y-94450000D02*
X107300000Y-95425000D01*
X123862500Y-94450000D02*
X123862500Y-94900000D01*
X109750000Y-94450000D02*
X109750000Y-97450000D01*
X118462500Y-94450000D02*
X118462500Y-95025000D01*
%TO.N,M5-*%
D24*
X123862500Y-100350000D02*
X121950000Y-100350000D01*
X121812500Y-97975000D02*
X121812500Y-100350000D01*
X123862500Y-98200000D02*
X123862500Y-100350000D01*
%TO.N,M2-*%
X123862500Y-86900000D02*
X121950000Y-86900000D01*
X123862500Y-84750000D02*
X123862500Y-86900000D01*
X121812500Y-84525000D02*
X121812500Y-86900000D01*
%TO.N,GATE1*%
D25*
X118287500Y-89162500D02*
X118150000Y-89162500D01*
X118287500Y-87850000D02*
X118287500Y-89162500D01*
X116512500Y-89162500D02*
X118150000Y-89162500D01*
X116512500Y-89475000D02*
X116512500Y-89162500D01*
%TO.N,GATE6*%
X131412500Y-102925000D02*
X131412500Y-102612500D01*
X133187500Y-101300000D02*
X133187500Y-102612500D01*
X131412500Y-102612500D02*
X133050000Y-102612500D01*
X133187500Y-102612500D02*
X133050000Y-102612500D01*
%TO.N,PWM3*%
X128487500Y-89475000D02*
X128949999Y-91350000D01*
%TO.N,PWM2*%
X121037500Y-89475000D02*
X121500000Y-91350000D01*
%TO.N,GATE2*%
X125737500Y-89162500D02*
X125600000Y-89162500D01*
X123962500Y-89162500D02*
X125600000Y-89162500D01*
X123962500Y-89475000D02*
X123962500Y-89162500D01*
X125737500Y-87850000D02*
X125737500Y-89162500D01*
%TO.N,M6-*%
D24*
X131312500Y-98200000D02*
X131312500Y-100350000D01*
X129262499Y-97975000D02*
X129262499Y-100350000D01*
X131312500Y-100350000D02*
X129400000Y-100350000D01*
%TO.N,GATE3*%
D25*
X133187500Y-89162500D02*
X133050000Y-89162500D01*
X131412500Y-89475000D02*
X131412500Y-89162500D01*
X133187500Y-87850000D02*
X133187500Y-89162500D01*
X131412500Y-89162500D02*
X133050000Y-89162500D01*
%TO.N,M3-*%
D24*
X131312500Y-84750000D02*
X131312500Y-86900000D01*
X129262499Y-84525000D02*
X129262499Y-86900000D01*
X131312500Y-86900000D02*
X129400000Y-86900000D01*
%TO.N,PWM5*%
D25*
X121037500Y-102925000D02*
X121500000Y-104800000D01*
%TO.N,GATE5*%
X123962500Y-102925000D02*
X123962500Y-102612500D01*
X125737500Y-101300000D02*
X125737500Y-102612500D01*
X125737500Y-102612500D02*
X125600000Y-102612500D01*
X123962500Y-102612500D02*
X125600000Y-102612500D01*
%TO.N,PWM4*%
X113587500Y-102925000D02*
X114050000Y-104800000D01*
%TO.N,PWM6*%
X128487500Y-102925000D02*
X128949999Y-104800000D01*
%TD*%
%TA.AperFunction,Conductor*%
%TO.N,SWITCHED_SYSTEM+*%
G36*
X104146288Y-80519454D02*
G01*
X104227070Y-80573430D01*
X104281046Y-80654212D01*
X104300000Y-80749500D01*
X104300000Y-81660503D01*
X104299677Y-81673173D01*
X104299500Y-81676646D01*
X104299500Y-82223335D01*
X104299678Y-82226810D01*
X104300000Y-82239479D01*
X104300000Y-84660503D01*
X104299677Y-84673173D01*
X104299500Y-84676647D01*
X104299500Y-85209368D01*
X104280546Y-85304656D01*
X104226570Y-85385438D01*
X104145788Y-85439414D01*
X104075809Y-85457078D01*
X104047206Y-85460000D01*
X104047199Y-85460001D01*
X103880667Y-85515185D01*
X103731346Y-85607286D01*
X103731344Y-85607287D01*
X103731344Y-85607288D01*
X103611559Y-85727072D01*
X103530781Y-85781046D01*
X103435493Y-85800000D01*
X100749500Y-85800000D01*
X100654212Y-85781046D01*
X100573430Y-85727070D01*
X100519454Y-85646288D01*
X100500500Y-85551000D01*
X100500500Y-80749500D01*
X100519454Y-80654212D01*
X100573430Y-80573430D01*
X100654212Y-80519454D01*
X100749500Y-80500500D01*
X104051000Y-80500500D01*
X104146288Y-80519454D01*
G37*
%TD.AperFunction*%
%TD*%
%TA.AperFunction,Conductor*%
%TO.N,SWITCHED_SYSTEM+*%
G36*
X104146288Y-93968954D02*
G01*
X104227070Y-94022930D01*
X104281046Y-94103712D01*
X104300000Y-94199000D01*
X104300000Y-95110503D01*
X104299677Y-95123173D01*
X104299500Y-95126646D01*
X104299500Y-95673335D01*
X104299678Y-95676810D01*
X104300000Y-95689479D01*
X104300000Y-98110503D01*
X104299677Y-98123173D01*
X104299500Y-98126647D01*
X104299500Y-98659368D01*
X104280546Y-98754656D01*
X104226570Y-98835438D01*
X104145788Y-98889414D01*
X104075809Y-98907078D01*
X104047206Y-98910000D01*
X104047199Y-98910001D01*
X103880667Y-98965185D01*
X103731346Y-99057286D01*
X103731344Y-99057287D01*
X103731344Y-99057288D01*
X103611559Y-99177072D01*
X103530781Y-99231046D01*
X103435493Y-99250000D01*
X100749500Y-99250000D01*
X100654212Y-99231046D01*
X100573430Y-99177070D01*
X100519454Y-99096288D01*
X100500500Y-99001000D01*
X100500500Y-94199000D01*
X100519454Y-94103712D01*
X100573430Y-94022930D01*
X100654212Y-93968954D01*
X100749500Y-93950000D01*
X104051000Y-93950000D01*
X104146288Y-93968954D01*
G37*
%TD.AperFunction*%
%TD*%
%TA.AperFunction,Conductor*%
%TO.N,GND*%
G36*
X135344549Y-80505284D02*
G01*
X135365006Y-80509353D01*
X135454766Y-80546532D01*
X135523465Y-80615231D01*
X135560644Y-80704984D01*
X135564714Y-80725442D01*
X135569500Y-80774027D01*
X135569500Y-106825972D01*
X135564714Y-106874557D01*
X135560644Y-106895015D01*
X135523462Y-106984773D01*
X135454761Y-107053470D01*
X135365017Y-107090644D01*
X135344560Y-107094714D01*
X135295973Y-107099500D01*
X112173527Y-107099500D01*
X112124942Y-107094714D01*
X112104484Y-107090644D01*
X112014726Y-107053462D01*
X111946029Y-106984761D01*
X111908853Y-106895003D01*
X111904784Y-106874545D01*
X111900000Y-106825972D01*
X111900000Y-106350002D01*
X111900000Y-106350001D01*
X111899999Y-106350000D01*
X111899998Y-106350000D01*
X110673527Y-106350000D01*
X110624956Y-106345217D01*
X110619928Y-106344217D01*
X110530167Y-106307039D01*
X110461467Y-106238342D01*
X110424285Y-106148584D01*
X110424282Y-106051429D01*
X110461460Y-105961668D01*
X110530157Y-105892968D01*
X110619915Y-105855786D01*
X110619928Y-105855783D01*
X110624956Y-105854783D01*
X110673527Y-105850000D01*
X111899998Y-105850000D01*
X111899999Y-105850000D01*
X111900000Y-105849999D01*
X111900000Y-105168527D01*
X111904784Y-105119954D01*
X111908853Y-105099496D01*
X111946031Y-105009735D01*
X112014729Y-104941035D01*
X112104486Y-104903854D01*
X112104489Y-104903853D01*
X112104496Y-104903853D01*
X112124954Y-104899784D01*
X112173527Y-104895000D01*
X112475973Y-104895000D01*
X112524549Y-104899784D01*
X112545006Y-104903853D01*
X112634766Y-104941032D01*
X112703465Y-105009731D01*
X112740644Y-105099484D01*
X112744714Y-105119942D01*
X112749500Y-105168527D01*
X112749500Y-105844851D01*
X112749501Y-105844872D01*
X112752414Y-105869989D01*
X112752414Y-105869991D01*
X112752415Y-105869993D01*
X112765657Y-105899984D01*
X112797791Y-105972761D01*
X112797792Y-105972762D01*
X112797793Y-105972763D01*
X112797794Y-105972765D01*
X112877235Y-106052206D01*
X112980009Y-106097585D01*
X113005135Y-106100500D01*
X115094864Y-106100499D01*
X115119991Y-106097585D01*
X115222765Y-106052206D01*
X115302206Y-105972765D01*
X115347585Y-105869991D01*
X115350500Y-105844865D01*
X115350499Y-104378465D01*
X115355281Y-104329901D01*
X115359042Y-104310993D01*
X115396218Y-104221239D01*
X115464915Y-104152538D01*
X115554674Y-104115357D01*
X115651828Y-104115354D01*
X115651833Y-104115355D01*
X115651847Y-104115358D01*
X115659763Y-104116933D01*
X115741890Y-104149217D01*
X115795134Y-104182058D01*
X115806401Y-104189007D01*
X115855902Y-104219539D01*
X115855904Y-104219541D01*
X115858657Y-104221239D01*
X115880666Y-104234814D01*
X115880667Y-104234815D01*
X116028013Y-104283640D01*
X116047203Y-104289999D01*
X116149991Y-104300500D01*
X116763172Y-104300499D01*
X116811747Y-104305283D01*
X116828318Y-104308579D01*
X116918078Y-104345758D01*
X116986778Y-104414456D01*
X117023958Y-104504215D01*
X117023959Y-104601370D01*
X116986780Y-104691130D01*
X116986774Y-104691140D01*
X116977388Y-104705186D01*
X116946431Y-104742906D01*
X116932682Y-104756655D01*
X116855919Y-104881108D01*
X116840639Y-104905880D01*
X116785496Y-105072292D01*
X116785492Y-105072319D01*
X116775001Y-105175000D01*
X116775000Y-105175013D01*
X116775000Y-105175018D01*
X116775000Y-105287499D01*
X116775001Y-105287500D01*
X116906473Y-105287500D01*
X116955054Y-105292285D01*
X116960081Y-105293285D01*
X117049840Y-105330466D01*
X117118538Y-105399166D01*
X117155716Y-105488926D01*
X117155715Y-105586081D01*
X117118534Y-105675840D01*
X117049834Y-105744538D01*
X116960081Y-105781715D01*
X116955054Y-105782715D01*
X116906473Y-105787500D01*
X116775002Y-105787500D01*
X116775001Y-105787501D01*
X116775001Y-105899984D01*
X116777144Y-105920968D01*
X116785493Y-106002697D01*
X116785494Y-106002701D01*
X116785495Y-106002702D01*
X116801899Y-106052205D01*
X116821830Y-106112356D01*
X116840640Y-106169119D01*
X116840641Y-106169121D01*
X116932681Y-106318341D01*
X116932684Y-106318345D01*
X117056654Y-106442315D01*
X117056658Y-106442318D01*
X117181107Y-106519079D01*
X117181108Y-106519080D01*
X117195412Y-106527902D01*
X117205878Y-106534358D01*
X117205879Y-106534359D01*
X117372298Y-106589504D01*
X117372305Y-106589505D01*
X117475023Y-106599999D01*
X117899999Y-106599999D01*
X117900000Y-106599999D01*
X117900000Y-106468527D01*
X117904783Y-106419956D01*
X117905783Y-106414928D01*
X117942961Y-106325167D01*
X118011658Y-106256467D01*
X118101416Y-106219285D01*
X118198571Y-106219282D01*
X118288332Y-106256460D01*
X118357032Y-106325157D01*
X118394214Y-106414915D01*
X118394217Y-106414928D01*
X118395217Y-106419956D01*
X118400000Y-106468527D01*
X118400000Y-106599998D01*
X118400001Y-106599999D01*
X118824957Y-106599999D01*
X118824968Y-106599999D01*
X118824984Y-106599998D01*
X118927699Y-106589505D01*
X118927702Y-106589504D01*
X119094119Y-106534359D01*
X119094121Y-106534358D01*
X119243341Y-106442318D01*
X119243345Y-106442315D01*
X119367315Y-106318345D01*
X119367318Y-106318341D01*
X119459358Y-106169121D01*
X119459359Y-106169120D01*
X119514504Y-106002701D01*
X119514505Y-106002694D01*
X119519355Y-105955221D01*
X119524994Y-105900036D01*
X119525000Y-105899977D01*
X119525000Y-105787502D01*
X119525000Y-105787501D01*
X119524999Y-105787500D01*
X119524998Y-105787500D01*
X119393527Y-105787500D01*
X119344956Y-105782717D01*
X119339928Y-105781717D01*
X119250167Y-105744539D01*
X119181467Y-105675842D01*
X119144285Y-105586084D01*
X119144282Y-105488929D01*
X119181460Y-105399168D01*
X119250157Y-105330468D01*
X119339915Y-105293286D01*
X119339928Y-105293283D01*
X119344956Y-105292283D01*
X119393527Y-105287500D01*
X119524997Y-105287500D01*
X119524998Y-105287500D01*
X119524999Y-105287499D01*
X119524999Y-105175032D01*
X119524998Y-105175015D01*
X119514505Y-105072300D01*
X119514504Y-105072297D01*
X119459359Y-104905880D01*
X119459358Y-104905878D01*
X119367318Y-104756658D01*
X119367312Y-104756650D01*
X119346706Y-104736044D01*
X119301678Y-104668654D01*
X119259168Y-104642440D01*
X119220311Y-104612851D01*
X119203401Y-104597128D01*
X119146524Y-104518362D01*
X119146521Y-104518356D01*
X119143038Y-104510742D01*
X119122151Y-104436037D01*
X119121680Y-104432003D01*
X119120000Y-104403127D01*
X119120000Y-103757482D01*
X119124783Y-103708912D01*
X119129290Y-103686250D01*
X119166467Y-103596490D01*
X119171129Y-103589513D01*
X119223704Y-103532553D01*
X119226897Y-103530028D01*
X119237217Y-103522802D01*
X119243648Y-103517716D01*
X119243656Y-103517712D01*
X119367712Y-103393656D01*
X119459814Y-103244334D01*
X119481427Y-103179107D01*
X119501247Y-103134505D01*
X119507421Y-103123629D01*
X119570946Y-103050124D01*
X119657767Y-103006522D01*
X119754666Y-102999464D01*
X119846889Y-103030024D01*
X119920397Y-103093551D01*
X119963990Y-103180338D01*
X119965532Y-103185927D01*
X119974500Y-103252152D01*
X119974500Y-103600006D01*
X119985001Y-103702800D01*
X120002343Y-103755133D01*
X120040185Y-103869333D01*
X120040187Y-103869336D01*
X120090988Y-103951699D01*
X120097697Y-103969724D01*
X120139129Y-104031732D01*
X120139129Y-104031733D01*
X120153030Y-104052538D01*
X120190207Y-104142293D01*
X120194715Y-104164956D01*
X120199500Y-104213534D01*
X120199500Y-105844851D01*
X120199501Y-105844872D01*
X120202414Y-105869989D01*
X120202414Y-105869991D01*
X120202415Y-105869993D01*
X120215657Y-105899984D01*
X120247791Y-105972761D01*
X120247792Y-105972762D01*
X120247793Y-105972763D01*
X120247794Y-105972765D01*
X120327235Y-106052206D01*
X120430009Y-106097585D01*
X120455135Y-106100500D01*
X122544864Y-106100499D01*
X122569991Y-106097585D01*
X122672765Y-106052206D01*
X122752206Y-105972765D01*
X122797585Y-105869991D01*
X122800500Y-105844865D01*
X122800499Y-104378465D01*
X122805281Y-104329901D01*
X122809042Y-104310993D01*
X122846218Y-104221239D01*
X122914915Y-104152538D01*
X123004674Y-104115357D01*
X123101828Y-104115354D01*
X123101833Y-104115355D01*
X123101847Y-104115358D01*
X123109763Y-104116933D01*
X123191890Y-104149217D01*
X123245134Y-104182058D01*
X123256401Y-104189007D01*
X123305902Y-104219539D01*
X123305904Y-104219541D01*
X123308657Y-104221239D01*
X123330666Y-104234814D01*
X123330667Y-104234815D01*
X123478013Y-104283640D01*
X123497203Y-104289999D01*
X123599991Y-104300500D01*
X124213172Y-104300499D01*
X124261747Y-104305283D01*
X124278318Y-104308579D01*
X124368078Y-104345758D01*
X124436778Y-104414456D01*
X124473958Y-104504215D01*
X124473959Y-104601370D01*
X124436780Y-104691130D01*
X124436774Y-104691140D01*
X124427388Y-104705186D01*
X124396431Y-104742906D01*
X124382682Y-104756655D01*
X124305919Y-104881108D01*
X124290639Y-104905880D01*
X124235496Y-105072292D01*
X124235492Y-105072319D01*
X124225001Y-105175000D01*
X124225000Y-105175013D01*
X124225000Y-105175018D01*
X124225000Y-105287499D01*
X124225001Y-105287500D01*
X124356473Y-105287500D01*
X124405054Y-105292285D01*
X124410081Y-105293285D01*
X124499840Y-105330466D01*
X124568538Y-105399166D01*
X124605716Y-105488926D01*
X124605715Y-105586081D01*
X124568534Y-105675840D01*
X124499834Y-105744538D01*
X124410081Y-105781715D01*
X124405054Y-105782715D01*
X124356473Y-105787500D01*
X124225002Y-105787500D01*
X124225001Y-105787501D01*
X124225001Y-105899984D01*
X124227144Y-105920968D01*
X124235493Y-106002697D01*
X124235494Y-106002701D01*
X124235495Y-106002702D01*
X124251899Y-106052205D01*
X124271830Y-106112356D01*
X124290640Y-106169119D01*
X124290641Y-106169121D01*
X124382681Y-106318341D01*
X124382684Y-106318345D01*
X124506654Y-106442315D01*
X124506658Y-106442318D01*
X124631107Y-106519079D01*
X124631108Y-106519080D01*
X124645412Y-106527902D01*
X124655878Y-106534358D01*
X124655879Y-106534359D01*
X124822298Y-106589504D01*
X124822305Y-106589505D01*
X124925023Y-106599999D01*
X125349999Y-106599999D01*
X125350000Y-106599999D01*
X125350000Y-106468527D01*
X125354783Y-106419956D01*
X125355783Y-106414928D01*
X125392961Y-106325167D01*
X125461658Y-106256467D01*
X125551416Y-106219285D01*
X125648571Y-106219282D01*
X125738332Y-106256460D01*
X125807032Y-106325157D01*
X125844214Y-106414915D01*
X125844217Y-106414928D01*
X125845217Y-106419956D01*
X125850000Y-106468527D01*
X125850000Y-106599998D01*
X125850001Y-106599999D01*
X126274957Y-106599999D01*
X126274968Y-106599999D01*
X126274984Y-106599998D01*
X126377699Y-106589505D01*
X126377702Y-106589504D01*
X126544119Y-106534359D01*
X126544121Y-106534358D01*
X126693341Y-106442318D01*
X126693345Y-106442315D01*
X126817315Y-106318345D01*
X126817318Y-106318341D01*
X126909358Y-106169121D01*
X126909359Y-106169120D01*
X126964504Y-106002701D01*
X126964505Y-106002694D01*
X126969355Y-105955221D01*
X126974994Y-105900036D01*
X126975000Y-105899977D01*
X126975000Y-105787502D01*
X126975000Y-105787501D01*
X126974999Y-105787500D01*
X126974998Y-105787500D01*
X126843527Y-105787500D01*
X126794956Y-105782717D01*
X126789928Y-105781717D01*
X126700167Y-105744539D01*
X126631467Y-105675842D01*
X126594285Y-105586084D01*
X126594282Y-105488929D01*
X126631460Y-105399168D01*
X126700157Y-105330468D01*
X126789915Y-105293286D01*
X126789928Y-105293283D01*
X126794956Y-105292283D01*
X126843527Y-105287500D01*
X126974997Y-105287500D01*
X126974998Y-105287500D01*
X126974999Y-105287499D01*
X126974999Y-105175032D01*
X126974998Y-105175015D01*
X126964505Y-105072300D01*
X126964504Y-105072297D01*
X126909359Y-104905880D01*
X126909358Y-104905878D01*
X126817318Y-104756658D01*
X126817312Y-104756650D01*
X126796706Y-104736044D01*
X126751678Y-104668654D01*
X126709168Y-104642440D01*
X126670311Y-104612851D01*
X126653401Y-104597128D01*
X126596524Y-104518362D01*
X126596521Y-104518356D01*
X126593038Y-104510742D01*
X126572151Y-104436037D01*
X126571680Y-104432003D01*
X126570000Y-104403127D01*
X126570000Y-103757482D01*
X126574783Y-103708912D01*
X126579290Y-103686250D01*
X126616467Y-103596490D01*
X126621129Y-103589513D01*
X126673704Y-103532553D01*
X126676897Y-103530028D01*
X126687217Y-103522802D01*
X126693648Y-103517716D01*
X126693656Y-103517712D01*
X126817712Y-103393656D01*
X126909814Y-103244334D01*
X126931426Y-103179110D01*
X126951243Y-103134513D01*
X126957420Y-103123632D01*
X127020945Y-103050127D01*
X127107766Y-103006525D01*
X127204665Y-102999467D01*
X127296888Y-103030027D01*
X127370396Y-103093554D01*
X127413989Y-103180341D01*
X127415531Y-103185930D01*
X127424499Y-103252152D01*
X127424499Y-103600006D01*
X127435000Y-103702800D01*
X127452342Y-103755133D01*
X127490184Y-103869333D01*
X127490186Y-103869336D01*
X127540987Y-103951699D01*
X127547696Y-103969724D01*
X127589128Y-104031732D01*
X127589128Y-104031733D01*
X127603029Y-104052538D01*
X127640206Y-104142293D01*
X127644714Y-104164956D01*
X127649499Y-104213534D01*
X127649499Y-105844851D01*
X127649500Y-105844872D01*
X127652413Y-105869989D01*
X127652413Y-105869991D01*
X127652414Y-105869993D01*
X127665656Y-105899984D01*
X127697790Y-105972761D01*
X127697791Y-105972762D01*
X127697792Y-105972763D01*
X127697793Y-105972765D01*
X127777234Y-106052206D01*
X127880008Y-106097585D01*
X127905134Y-106100500D01*
X129994863Y-106100499D01*
X130019990Y-106097585D01*
X130122764Y-106052206D01*
X130202205Y-105972765D01*
X130247584Y-105869991D01*
X130250499Y-105844865D01*
X130250498Y-104378465D01*
X130255280Y-104329901D01*
X130259041Y-104310993D01*
X130296217Y-104221239D01*
X130364914Y-104152538D01*
X130454673Y-104115357D01*
X130551827Y-104115354D01*
X130551832Y-104115355D01*
X130551846Y-104115358D01*
X130559762Y-104116933D01*
X130641889Y-104149217D01*
X130695133Y-104182058D01*
X130706400Y-104189007D01*
X130755901Y-104219539D01*
X130755903Y-104219541D01*
X130758656Y-104221239D01*
X130780665Y-104234814D01*
X130780666Y-104234815D01*
X130928012Y-104283640D01*
X130947202Y-104289999D01*
X131049990Y-104300500D01*
X131663172Y-104300499D01*
X131711747Y-104305283D01*
X131728318Y-104308579D01*
X131818078Y-104345758D01*
X131886778Y-104414456D01*
X131923958Y-104504215D01*
X131923959Y-104601370D01*
X131886780Y-104691130D01*
X131886774Y-104691140D01*
X131877388Y-104705186D01*
X131846431Y-104742906D01*
X131832682Y-104756655D01*
X131755919Y-104881108D01*
X131740639Y-104905880D01*
X131685496Y-105072292D01*
X131685492Y-105072319D01*
X131675001Y-105175000D01*
X131675000Y-105175013D01*
X131675000Y-105175018D01*
X131675000Y-105287499D01*
X131675001Y-105287500D01*
X131806473Y-105287500D01*
X131855054Y-105292285D01*
X131860081Y-105293285D01*
X131949840Y-105330466D01*
X132018538Y-105399166D01*
X132055716Y-105488926D01*
X132055715Y-105586081D01*
X132018534Y-105675840D01*
X131949834Y-105744538D01*
X131860081Y-105781715D01*
X131855054Y-105782715D01*
X131806473Y-105787500D01*
X131675002Y-105787500D01*
X131675001Y-105787501D01*
X131675001Y-105899984D01*
X131677144Y-105920968D01*
X131685493Y-106002697D01*
X131685494Y-106002701D01*
X131685495Y-106002702D01*
X131701899Y-106052205D01*
X131721830Y-106112356D01*
X131740640Y-106169119D01*
X131740641Y-106169121D01*
X131832681Y-106318341D01*
X131832684Y-106318345D01*
X131956654Y-106442315D01*
X131956658Y-106442318D01*
X132081107Y-106519079D01*
X132081108Y-106519080D01*
X132095412Y-106527902D01*
X132105878Y-106534358D01*
X132105879Y-106534359D01*
X132272298Y-106589504D01*
X132272305Y-106589505D01*
X132375023Y-106599999D01*
X132799999Y-106599999D01*
X132800000Y-106599999D01*
X132800000Y-106468527D01*
X132804783Y-106419956D01*
X132805783Y-106414928D01*
X132842961Y-106325167D01*
X132911658Y-106256467D01*
X133001416Y-106219285D01*
X133098571Y-106219282D01*
X133188332Y-106256460D01*
X133257032Y-106325157D01*
X133294214Y-106414915D01*
X133294217Y-106414928D01*
X133295217Y-106419956D01*
X133300000Y-106468527D01*
X133300000Y-106599998D01*
X133300001Y-106599999D01*
X133724957Y-106599999D01*
X133724968Y-106599999D01*
X133724984Y-106599998D01*
X133827699Y-106589505D01*
X133827702Y-106589504D01*
X133994119Y-106534359D01*
X133994121Y-106534358D01*
X134143341Y-106442318D01*
X134143345Y-106442315D01*
X134267315Y-106318345D01*
X134267318Y-106318341D01*
X134359358Y-106169121D01*
X134359359Y-106169120D01*
X134414504Y-106002701D01*
X134414505Y-106002694D01*
X134419355Y-105955221D01*
X134424994Y-105900036D01*
X134425000Y-105899977D01*
X134425000Y-105787502D01*
X134425000Y-105787501D01*
X134424999Y-105787500D01*
X134424998Y-105787500D01*
X134293527Y-105787500D01*
X134244956Y-105782717D01*
X134239928Y-105781717D01*
X134150167Y-105744539D01*
X134081467Y-105675842D01*
X134044285Y-105586084D01*
X134044282Y-105488929D01*
X134081460Y-105399168D01*
X134150157Y-105330468D01*
X134239915Y-105293286D01*
X134239928Y-105293283D01*
X134244956Y-105292283D01*
X134293527Y-105287500D01*
X134424997Y-105287500D01*
X134424998Y-105287500D01*
X134424999Y-105287499D01*
X134424999Y-105175032D01*
X134424998Y-105175015D01*
X134414505Y-105072300D01*
X134414504Y-105072297D01*
X134359359Y-104905880D01*
X134359358Y-104905878D01*
X134267318Y-104756658D01*
X134267312Y-104756650D01*
X134246706Y-104736044D01*
X134201678Y-104668654D01*
X134159168Y-104642440D01*
X134120311Y-104612851D01*
X134103401Y-104597128D01*
X134046524Y-104518362D01*
X134046521Y-104518356D01*
X134043038Y-104510742D01*
X134022151Y-104436037D01*
X134021680Y-104432003D01*
X134020000Y-104403127D01*
X134020000Y-103757482D01*
X134024783Y-103708912D01*
X134029290Y-103686250D01*
X134066467Y-103596490D01*
X134071129Y-103589513D01*
X134123704Y-103532553D01*
X134126897Y-103530028D01*
X134137217Y-103522802D01*
X134143648Y-103517716D01*
X134143656Y-103517712D01*
X134267712Y-103393656D01*
X134359814Y-103244334D01*
X134414999Y-103077797D01*
X134425500Y-102975009D01*
X134425499Y-102249992D01*
X134414999Y-102147203D01*
X134413638Y-102143097D01*
X134397141Y-102093312D01*
X134384765Y-102055965D01*
X134382019Y-102033863D01*
X134356768Y-101966077D01*
X134356769Y-101966077D01*
X134349222Y-101945818D01*
X134333722Y-101849932D01*
X134333865Y-101845965D01*
X134351767Y-101761825D01*
X134356389Y-101750362D01*
X134372997Y-101716733D01*
X134376743Y-101710399D01*
X134376744Y-101710398D01*
X134422598Y-101552569D01*
X134425500Y-101515694D01*
X134425500Y-101084306D01*
X134422598Y-101047431D01*
X134376744Y-100889602D01*
X134293081Y-100748135D01*
X134176865Y-100631919D01*
X134176862Y-100631917D01*
X134163350Y-100623926D01*
X134123978Y-100595082D01*
X134106764Y-100579664D01*
X134048443Y-100501987D01*
X134045332Y-100495509D01*
X134022750Y-100418896D01*
X134021958Y-100412628D01*
X134020000Y-100381455D01*
X134020000Y-100326824D01*
X134024783Y-100278254D01*
X134029290Y-100255592D01*
X134066467Y-100165832D01*
X134070468Y-100159843D01*
X134124874Y-100101448D01*
X134129880Y-100097565D01*
X134155722Y-100080003D01*
X134176553Y-100067684D01*
X134292684Y-99951553D01*
X134376283Y-99810195D01*
X134376310Y-99810150D01*
X134376783Y-99808469D01*
X134422099Y-99652492D01*
X134422296Y-99650000D01*
X134293527Y-99650000D01*
X134282348Y-99647776D01*
X134271017Y-99648980D01*
X134244956Y-99645217D01*
X134239928Y-99644217D01*
X134217266Y-99634830D01*
X134198239Y-99631046D01*
X134182111Y-99620269D01*
X134150167Y-99607039D01*
X134125714Y-99582587D01*
X134117457Y-99577070D01*
X134111941Y-99568814D01*
X134081467Y-99538342D01*
X134064968Y-99498514D01*
X134063481Y-99496288D01*
X134062958Y-99493663D01*
X134044285Y-99448584D01*
X134044282Y-99351429D01*
X134081460Y-99261668D01*
X134115967Y-99227158D01*
X134117457Y-99224930D01*
X134125984Y-99217141D01*
X134150157Y-99192968D01*
X134158211Y-99189631D01*
X134185932Y-99166523D01*
X134269000Y-99150000D01*
X134422296Y-99150000D01*
X134422296Y-99149999D01*
X134422099Y-99147507D01*
X134418959Y-99136696D01*
X134410576Y-99039903D01*
X134436616Y-98957563D01*
X134447095Y-98948829D01*
X134465367Y-98913313D01*
X134471426Y-98905245D01*
X134494460Y-98878700D01*
X134604812Y-98768349D01*
X134604818Y-98768341D01*
X134688581Y-98632541D01*
X134696725Y-98619336D01*
X134696858Y-98619121D01*
X134696859Y-98619120D01*
X134752004Y-98452701D01*
X134752005Y-98452694D01*
X134756855Y-98405221D01*
X134762494Y-98350036D01*
X134762500Y-98349977D01*
X134762500Y-98225002D01*
X134762500Y-98225001D01*
X134762499Y-98225000D01*
X134762498Y-98225000D01*
X134631027Y-98225000D01*
X134582456Y-98220217D01*
X134577428Y-98219217D01*
X134487667Y-98182039D01*
X134418967Y-98113342D01*
X134381785Y-98023584D01*
X134381782Y-97926429D01*
X134418960Y-97836668D01*
X134487657Y-97767968D01*
X134577415Y-97730786D01*
X134577428Y-97730783D01*
X134582456Y-97729783D01*
X134631027Y-97725000D01*
X134762497Y-97725000D01*
X134762498Y-97725000D01*
X134762499Y-97724999D01*
X134762499Y-97600032D01*
X134762498Y-97600015D01*
X134752005Y-97497300D01*
X134752004Y-97497297D01*
X134696859Y-97330880D01*
X134696858Y-97330878D01*
X134604818Y-97181658D01*
X134604812Y-97181650D01*
X134584206Y-97161044D01*
X134539178Y-97093654D01*
X134496668Y-97067440D01*
X134457811Y-97037851D01*
X134440901Y-97022128D01*
X134384024Y-96943362D01*
X134384021Y-96943356D01*
X134380538Y-96935742D01*
X134359651Y-96861037D01*
X134359180Y-96857003D01*
X134357500Y-96828127D01*
X134357500Y-96182482D01*
X134362283Y-96133912D01*
X134366790Y-96111250D01*
X134403967Y-96021490D01*
X134408629Y-96014513D01*
X134461204Y-95957553D01*
X134464397Y-95955028D01*
X134474717Y-95947802D01*
X134481148Y-95942716D01*
X134481156Y-95942712D01*
X134605212Y-95818656D01*
X134697314Y-95669334D01*
X134752499Y-95502797D01*
X134763000Y-95400009D01*
X134762999Y-94649992D01*
X134752499Y-94547203D01*
X134697314Y-94380666D01*
X134605212Y-94231344D01*
X134481156Y-94107288D01*
X134481153Y-94107286D01*
X134481146Y-94107281D01*
X134398933Y-94056572D01*
X134384321Y-94042986D01*
X134291984Y-93990546D01*
X134228330Y-93938873D01*
X134222750Y-93932556D01*
X134202333Y-93906046D01*
X134156767Y-93837852D01*
X134139641Y-93812221D01*
X134139639Y-93812218D01*
X134000282Y-93672861D01*
X133901233Y-93606678D01*
X133901229Y-93606675D01*
X133853564Y-93574827D01*
X133815831Y-93543861D01*
X133802206Y-93530236D01*
X133748230Y-93449454D01*
X133729276Y-93354166D01*
X133748230Y-93258878D01*
X133802150Y-93178153D01*
X133803718Y-93176584D01*
X133870528Y-93128876D01*
X133878129Y-93125162D01*
X133880185Y-93124324D01*
X133880764Y-93123894D01*
X133882005Y-93123581D01*
X133909100Y-93112531D01*
X133994119Y-93084359D01*
X133994121Y-93084358D01*
X134143341Y-92992318D01*
X134143345Y-92992315D01*
X134267315Y-92868345D01*
X134267318Y-92868341D01*
X134359358Y-92719121D01*
X134359359Y-92719120D01*
X134414504Y-92552701D01*
X134414505Y-92552694D01*
X134419355Y-92505221D01*
X134424994Y-92450036D01*
X134425000Y-92449977D01*
X134425000Y-92337502D01*
X134425000Y-92337501D01*
X134424999Y-92337500D01*
X134424998Y-92337500D01*
X134293527Y-92337500D01*
X134244956Y-92332717D01*
X134239928Y-92331717D01*
X134150167Y-92294539D01*
X134081467Y-92225842D01*
X134044285Y-92136084D01*
X134044282Y-92038929D01*
X134081460Y-91949168D01*
X134150157Y-91880468D01*
X134239915Y-91843286D01*
X134239928Y-91843283D01*
X134244956Y-91842283D01*
X134293527Y-91837500D01*
X134424997Y-91837500D01*
X134424998Y-91837500D01*
X134424999Y-91837499D01*
X134424999Y-91725032D01*
X134424998Y-91725015D01*
X134414505Y-91622300D01*
X134414504Y-91622297D01*
X134359359Y-91455880D01*
X134359358Y-91455878D01*
X134267318Y-91306658D01*
X134267312Y-91306650D01*
X134246706Y-91286044D01*
X134201678Y-91218654D01*
X134159168Y-91192440D01*
X134120311Y-91162851D01*
X134103401Y-91147128D01*
X134046524Y-91068362D01*
X134046521Y-91068356D01*
X134043038Y-91060742D01*
X134022151Y-90986037D01*
X134021680Y-90982003D01*
X134020000Y-90953127D01*
X134020000Y-90307482D01*
X134024783Y-90258912D01*
X134028643Y-90239502D01*
X134029290Y-90236248D01*
X134066467Y-90146490D01*
X134071129Y-90139513D01*
X134123704Y-90082553D01*
X134126897Y-90080028D01*
X134137217Y-90072802D01*
X134143648Y-90067716D01*
X134143656Y-90067712D01*
X134267712Y-89943656D01*
X134359814Y-89794334D01*
X134414999Y-89627797D01*
X134425500Y-89525009D01*
X134425499Y-88799992D01*
X134414999Y-88697203D01*
X134413638Y-88693097D01*
X134397141Y-88643312D01*
X134384765Y-88605965D01*
X134382019Y-88583863D01*
X134356768Y-88516077D01*
X134356769Y-88516077D01*
X134349222Y-88495818D01*
X134333722Y-88399932D01*
X134333865Y-88395965D01*
X134351767Y-88311825D01*
X134356389Y-88300362D01*
X134372997Y-88266733D01*
X134376743Y-88260399D01*
X134376744Y-88260398D01*
X134422598Y-88102569D01*
X134425500Y-88065694D01*
X134425500Y-87634306D01*
X134422598Y-87597431D01*
X134376744Y-87439602D01*
X134293081Y-87298135D01*
X134176865Y-87181919D01*
X134176862Y-87181917D01*
X134163350Y-87173926D01*
X134123978Y-87145082D01*
X134106764Y-87129664D01*
X134048443Y-87051987D01*
X134045332Y-87045509D01*
X134022750Y-86968896D01*
X134021958Y-86962628D01*
X134020000Y-86931455D01*
X134020000Y-86876824D01*
X134024783Y-86828254D01*
X134029290Y-86805592D01*
X134066467Y-86715832D01*
X134070468Y-86709843D01*
X134124874Y-86651448D01*
X134129880Y-86647565D01*
X134155722Y-86630003D01*
X134176553Y-86617684D01*
X134292684Y-86501553D01*
X134376283Y-86360195D01*
X134376310Y-86360150D01*
X134376783Y-86358469D01*
X134422099Y-86202492D01*
X134422296Y-86200000D01*
X134293527Y-86200000D01*
X134282348Y-86197776D01*
X134271017Y-86198980D01*
X134244956Y-86195217D01*
X134239928Y-86194217D01*
X134217266Y-86184830D01*
X134198239Y-86181046D01*
X134182111Y-86170269D01*
X134150167Y-86157039D01*
X134125714Y-86132587D01*
X134117457Y-86127070D01*
X134111941Y-86118814D01*
X134081467Y-86088342D01*
X134064968Y-86048514D01*
X134063481Y-86046288D01*
X134062958Y-86043663D01*
X134044285Y-85998584D01*
X134044282Y-85901429D01*
X134081460Y-85811668D01*
X134115967Y-85777158D01*
X134117457Y-85774930D01*
X134125984Y-85767141D01*
X134150157Y-85742968D01*
X134158211Y-85739631D01*
X134185932Y-85716523D01*
X134269000Y-85700000D01*
X134422296Y-85700000D01*
X134422296Y-85699999D01*
X134422099Y-85697507D01*
X134418959Y-85686696D01*
X134410576Y-85589903D01*
X134436616Y-85507563D01*
X134447095Y-85498829D01*
X134465367Y-85463313D01*
X134471426Y-85455245D01*
X134494460Y-85428700D01*
X134604812Y-85318349D01*
X134604818Y-85318341D01*
X134688581Y-85182541D01*
X134696725Y-85169336D01*
X134696858Y-85169121D01*
X134696859Y-85169120D01*
X134752004Y-85002701D01*
X134752005Y-85002694D01*
X134756855Y-84955221D01*
X134762494Y-84900036D01*
X134762500Y-84899977D01*
X134762500Y-84775002D01*
X134762500Y-84775001D01*
X134762499Y-84775000D01*
X134762498Y-84775000D01*
X134631027Y-84775000D01*
X134582456Y-84770217D01*
X134577428Y-84769217D01*
X134487667Y-84732039D01*
X134418967Y-84663342D01*
X134381785Y-84573584D01*
X134381782Y-84476429D01*
X134418960Y-84386668D01*
X134487657Y-84317968D01*
X134577415Y-84280786D01*
X134577428Y-84280783D01*
X134582456Y-84279783D01*
X134631027Y-84275000D01*
X134762497Y-84275000D01*
X134762498Y-84275000D01*
X134762499Y-84274999D01*
X134762499Y-84150032D01*
X134762498Y-84150015D01*
X134752005Y-84047300D01*
X134752004Y-84047297D01*
X134696859Y-83880880D01*
X134696858Y-83880878D01*
X134604818Y-83731658D01*
X134604812Y-83731650D01*
X134584206Y-83711044D01*
X134539178Y-83643654D01*
X134496668Y-83617440D01*
X134457811Y-83587851D01*
X134440901Y-83572128D01*
X134384024Y-83493362D01*
X134384021Y-83493356D01*
X134380538Y-83485742D01*
X134359651Y-83411037D01*
X134359180Y-83407003D01*
X134357500Y-83378127D01*
X134357500Y-82732482D01*
X134362283Y-82683912D01*
X134366790Y-82661250D01*
X134403967Y-82571490D01*
X134408629Y-82564513D01*
X134461204Y-82507553D01*
X134464397Y-82505028D01*
X134474717Y-82497802D01*
X134481148Y-82492716D01*
X134481156Y-82492712D01*
X134605212Y-82368656D01*
X134697314Y-82219334D01*
X134752499Y-82052797D01*
X134763000Y-81950009D01*
X134762999Y-81199992D01*
X134752499Y-81097203D01*
X134697314Y-80930666D01*
X134679071Y-80901089D01*
X134657643Y-80857235D01*
X134650921Y-80839176D01*
X134635444Y-80743261D01*
X134657849Y-80648725D01*
X134714727Y-80569960D01*
X134797413Y-80518958D01*
X134805001Y-80516133D01*
X134891841Y-80500500D01*
X135295973Y-80500500D01*
X135344549Y-80505284D01*
G37*
%TD.AperFunction*%
%TA.AperFunction,Conductor*%
G36*
X120249412Y-95455282D02*
G01*
X120271065Y-95459589D01*
X120360823Y-95496767D01*
X120429523Y-95565465D01*
X120429531Y-95565476D01*
X120438069Y-95578255D01*
X120467387Y-95638257D01*
X120477684Y-95669331D01*
X120477685Y-95669333D01*
X120569786Y-95818653D01*
X120569788Y-95818656D01*
X120693844Y-95942712D01*
X120693846Y-95942713D01*
X120696352Y-95945219D01*
X120713251Y-95959075D01*
X120734093Y-95978453D01*
X120790968Y-96057207D01*
X120794451Y-96064819D01*
X120815341Y-96139486D01*
X120815813Y-96143520D01*
X120817500Y-96172457D01*
X120817500Y-96817516D01*
X120812715Y-96866096D01*
X120808207Y-96888758D01*
X120771026Y-96978517D01*
X120771026Y-96978518D01*
X120766374Y-96985480D01*
X120713779Y-97042459D01*
X120709283Y-97046014D01*
X120697677Y-97054474D01*
X120697689Y-97054491D01*
X120693839Y-97057290D01*
X120693837Y-97057292D01*
X120569788Y-97181342D01*
X120477682Y-97330670D01*
X120422503Y-97497191D01*
X120422499Y-97497220D01*
X120412001Y-97599968D01*
X120412000Y-97599995D01*
X120412000Y-98350004D01*
X120422500Y-98452796D01*
X120422500Y-98452798D01*
X120422501Y-98452800D01*
X120453689Y-98546919D01*
X120453690Y-98546922D01*
X120454635Y-98554527D01*
X120467409Y-98588846D01*
X120470411Y-98597384D01*
X120477681Y-98619324D01*
X120478778Y-98621676D01*
X120486472Y-98640061D01*
X120496641Y-98667381D01*
X120512117Y-98763295D01*
X120489712Y-98857829D01*
X120484730Y-98868719D01*
X120452983Y-98918559D01*
X120453750Y-98919146D01*
X120449774Y-98924342D01*
X120447797Y-98927227D01*
X120402413Y-99030012D01*
X120399500Y-99055134D01*
X120399500Y-101455488D01*
X120394715Y-101504068D01*
X120390207Y-101526730D01*
X120353031Y-101616483D01*
X120348378Y-101623447D01*
X120295754Y-101680452D01*
X120292575Y-101682965D01*
X120268885Y-101699551D01*
X120256349Y-101707283D01*
X120132284Y-101831348D01*
X120040182Y-101980670D01*
X119994075Y-102119814D01*
X119974261Y-102164408D01*
X119965921Y-102179101D01*
X119902400Y-102252614D01*
X119815581Y-102296222D01*
X119718684Y-102303286D01*
X119626458Y-102272732D01*
X119552945Y-102209211D01*
X119552938Y-102209201D01*
X119549072Y-102204238D01*
X119509149Y-102129550D01*
X119505923Y-102119814D01*
X119498557Y-102097587D01*
X119497140Y-102093312D01*
X119484766Y-102055968D01*
X119482019Y-102033863D01*
X119456768Y-101966077D01*
X119456769Y-101966077D01*
X119449222Y-101945818D01*
X119433722Y-101849932D01*
X119433865Y-101845965D01*
X119451767Y-101761825D01*
X119456389Y-101750362D01*
X119472997Y-101716733D01*
X119476743Y-101710399D01*
X119476744Y-101710398D01*
X119522598Y-101552569D01*
X119525500Y-101515694D01*
X119525500Y-101084306D01*
X119522598Y-101047431D01*
X119476744Y-100889602D01*
X119393081Y-100748135D01*
X119276865Y-100631919D01*
X119276862Y-100631917D01*
X119263350Y-100623926D01*
X119223978Y-100595082D01*
X119206764Y-100579664D01*
X119148443Y-100501987D01*
X119145332Y-100495509D01*
X119122750Y-100418896D01*
X119121958Y-100412628D01*
X119120000Y-100381455D01*
X119120000Y-100326824D01*
X119124783Y-100278254D01*
X119129290Y-100255592D01*
X119166467Y-100165832D01*
X119170468Y-100159843D01*
X119224874Y-100101448D01*
X119229880Y-100097565D01*
X119255722Y-100080003D01*
X119276553Y-100067684D01*
X119392684Y-99951553D01*
X119476283Y-99810195D01*
X119476310Y-99810150D01*
X119476783Y-99808469D01*
X119522099Y-99652492D01*
X119522296Y-99650000D01*
X119393527Y-99650000D01*
X119382348Y-99647776D01*
X119371017Y-99648980D01*
X119344956Y-99645217D01*
X119339928Y-99644217D01*
X119317266Y-99634830D01*
X119298239Y-99631046D01*
X119282111Y-99620269D01*
X119250167Y-99607039D01*
X119225714Y-99582587D01*
X119217457Y-99577070D01*
X119211941Y-99568814D01*
X119181467Y-99538342D01*
X119164968Y-99498514D01*
X119163481Y-99496288D01*
X119162958Y-99493663D01*
X119144285Y-99448584D01*
X119144282Y-99351429D01*
X119181460Y-99261668D01*
X119215967Y-99227158D01*
X119217457Y-99224930D01*
X119225984Y-99217141D01*
X119250157Y-99192968D01*
X119258211Y-99189631D01*
X119285932Y-99166523D01*
X119369000Y-99150000D01*
X119522296Y-99150000D01*
X119522296Y-99149999D01*
X119522099Y-99147507D01*
X119518959Y-99136696D01*
X119510576Y-99039903D01*
X119536616Y-98957563D01*
X119547095Y-98948829D01*
X119565367Y-98913313D01*
X119571426Y-98905245D01*
X119594460Y-98878700D01*
X119704812Y-98768349D01*
X119704818Y-98768341D01*
X119788581Y-98632541D01*
X119796725Y-98619336D01*
X119796858Y-98619121D01*
X119796859Y-98619120D01*
X119852004Y-98452701D01*
X119852005Y-98452694D01*
X119856855Y-98405221D01*
X119862494Y-98350036D01*
X119862500Y-98349977D01*
X119862500Y-98225002D01*
X119862500Y-98225001D01*
X119862499Y-98225000D01*
X119862498Y-98225000D01*
X119731027Y-98225000D01*
X119682456Y-98220217D01*
X119677428Y-98219217D01*
X119587667Y-98182039D01*
X119518967Y-98113342D01*
X119481785Y-98023584D01*
X119481782Y-97926429D01*
X119518960Y-97836668D01*
X119587657Y-97767968D01*
X119677415Y-97730786D01*
X119677428Y-97730783D01*
X119682456Y-97729783D01*
X119731027Y-97725000D01*
X119862497Y-97725000D01*
X119862498Y-97725000D01*
X119862499Y-97724999D01*
X119862499Y-97600032D01*
X119862498Y-97600015D01*
X119852005Y-97497300D01*
X119852004Y-97497297D01*
X119796859Y-97330880D01*
X119796858Y-97330878D01*
X119704818Y-97181658D01*
X119704812Y-97181650D01*
X119684206Y-97161044D01*
X119639178Y-97093654D01*
X119596668Y-97067440D01*
X119557811Y-97037851D01*
X119540901Y-97022128D01*
X119484024Y-96943362D01*
X119484021Y-96943356D01*
X119480538Y-96935742D01*
X119459651Y-96861037D01*
X119459180Y-96857003D01*
X119457500Y-96828127D01*
X119457500Y-96182482D01*
X119462283Y-96133912D01*
X119466790Y-96111250D01*
X119503967Y-96021490D01*
X119508629Y-96014513D01*
X119561204Y-95957553D01*
X119564397Y-95955028D01*
X119574717Y-95947802D01*
X119581148Y-95942716D01*
X119581156Y-95942712D01*
X119705212Y-95818656D01*
X119797314Y-95669334D01*
X119805559Y-95644451D01*
X119825376Y-95599856D01*
X119836275Y-95580657D01*
X119899797Y-95507150D01*
X119986615Y-95463546D01*
X119988063Y-95463147D01*
X120001453Y-95459456D01*
X120067632Y-95450500D01*
X120200840Y-95450500D01*
X120249412Y-95455282D01*
G37*
%TD.AperFunction*%
%TA.AperFunction,Conductor*%
G36*
X127699411Y-95455282D02*
G01*
X127721064Y-95459589D01*
X127810822Y-95496767D01*
X127879522Y-95565465D01*
X127879530Y-95565476D01*
X127888068Y-95578255D01*
X127917386Y-95638257D01*
X127927683Y-95669331D01*
X127927684Y-95669333D01*
X128019785Y-95818653D01*
X128019787Y-95818656D01*
X128143843Y-95942712D01*
X128143845Y-95942713D01*
X128146351Y-95945219D01*
X128163250Y-95959075D01*
X128184092Y-95978453D01*
X128240967Y-96057207D01*
X128244450Y-96064819D01*
X128265340Y-96139486D01*
X128265812Y-96143520D01*
X128267499Y-96172457D01*
X128267499Y-96817516D01*
X128262714Y-96866096D01*
X128258206Y-96888758D01*
X128221025Y-96978517D01*
X128221025Y-96978518D01*
X128216373Y-96985480D01*
X128163778Y-97042459D01*
X128159282Y-97046014D01*
X128147676Y-97054474D01*
X128147688Y-97054491D01*
X128143838Y-97057290D01*
X128143836Y-97057292D01*
X128019787Y-97181342D01*
X127927681Y-97330670D01*
X127872502Y-97497191D01*
X127872498Y-97497220D01*
X127862000Y-97599968D01*
X127861999Y-97599995D01*
X127861999Y-98350004D01*
X127872499Y-98452796D01*
X127872501Y-98452804D01*
X127903688Y-98546919D01*
X127904632Y-98554520D01*
X127917405Y-98588836D01*
X127920406Y-98597371D01*
X127927683Y-98619332D01*
X127931103Y-98627610D01*
X127931055Y-98627629D01*
X127936548Y-98640268D01*
X127946643Y-98667392D01*
X127962116Y-98763306D01*
X127939707Y-98857842D01*
X127939704Y-98857846D01*
X127934723Y-98868732D01*
X127902984Y-98918562D01*
X127903748Y-98919147D01*
X127899784Y-98924327D01*
X127897798Y-98927225D01*
X127897797Y-98927226D01*
X127852413Y-99030012D01*
X127849500Y-99055134D01*
X127849500Y-101455488D01*
X127844715Y-101504068D01*
X127840207Y-101526730D01*
X127803026Y-101616489D01*
X127803026Y-101616490D01*
X127798374Y-101623452D01*
X127745785Y-101680427D01*
X127742607Y-101682940D01*
X127718883Y-101699552D01*
X127706349Y-101707283D01*
X127706347Y-101707284D01*
X127706345Y-101707286D01*
X127582285Y-101831346D01*
X127541214Y-101897932D01*
X127490182Y-101980669D01*
X127444075Y-102119813D01*
X127424255Y-102164418D01*
X127415914Y-102179111D01*
X127352389Y-102252620D01*
X127265568Y-102296224D01*
X127168670Y-102303284D01*
X127076446Y-102272725D01*
X127002937Y-102209200D01*
X127002933Y-102209195D01*
X126999068Y-102204233D01*
X126959147Y-102129544D01*
X126955922Y-102119813D01*
X126934765Y-102055965D01*
X126932019Y-102033863D01*
X126906768Y-101966077D01*
X126906769Y-101966077D01*
X126899222Y-101945818D01*
X126883722Y-101849932D01*
X126883865Y-101845965D01*
X126901767Y-101761825D01*
X126906389Y-101750362D01*
X126922997Y-101716733D01*
X126926743Y-101710399D01*
X126926744Y-101710398D01*
X126972598Y-101552569D01*
X126975500Y-101515694D01*
X126975500Y-101084306D01*
X126972598Y-101047431D01*
X126926744Y-100889602D01*
X126843081Y-100748135D01*
X126726865Y-100631919D01*
X126726862Y-100631917D01*
X126713350Y-100623926D01*
X126673978Y-100595082D01*
X126656764Y-100579664D01*
X126598443Y-100501987D01*
X126595332Y-100495509D01*
X126572750Y-100418896D01*
X126571958Y-100412628D01*
X126570000Y-100381455D01*
X126570000Y-100326824D01*
X126574783Y-100278254D01*
X126579290Y-100255592D01*
X126616467Y-100165832D01*
X126620468Y-100159843D01*
X126674874Y-100101448D01*
X126679880Y-100097565D01*
X126705722Y-100080003D01*
X126726553Y-100067684D01*
X126842684Y-99951553D01*
X126926283Y-99810195D01*
X126926310Y-99810150D01*
X126926783Y-99808469D01*
X126972099Y-99652492D01*
X126972296Y-99650000D01*
X126843527Y-99650000D01*
X126832348Y-99647776D01*
X126821017Y-99648980D01*
X126794956Y-99645217D01*
X126789928Y-99644217D01*
X126767266Y-99634830D01*
X126748239Y-99631046D01*
X126732111Y-99620269D01*
X126700167Y-99607039D01*
X126675714Y-99582587D01*
X126667457Y-99577070D01*
X126661941Y-99568814D01*
X126631467Y-99538342D01*
X126614968Y-99498514D01*
X126613481Y-99496288D01*
X126612958Y-99493663D01*
X126594285Y-99448584D01*
X126594282Y-99351429D01*
X126631460Y-99261668D01*
X126665967Y-99227158D01*
X126667457Y-99224930D01*
X126675984Y-99217141D01*
X126700157Y-99192968D01*
X126708211Y-99189631D01*
X126735932Y-99166523D01*
X126819000Y-99150000D01*
X126972296Y-99150000D01*
X126972296Y-99149999D01*
X126972099Y-99147507D01*
X126968959Y-99136696D01*
X126960576Y-99039903D01*
X126986616Y-98957563D01*
X126997095Y-98948829D01*
X127015367Y-98913313D01*
X127021426Y-98905245D01*
X127044460Y-98878700D01*
X127154812Y-98768349D01*
X127154818Y-98768341D01*
X127238581Y-98632541D01*
X127246725Y-98619336D01*
X127246858Y-98619121D01*
X127246859Y-98619120D01*
X127302004Y-98452701D01*
X127302005Y-98452694D01*
X127306855Y-98405221D01*
X127312494Y-98350036D01*
X127312500Y-98349977D01*
X127312500Y-98225002D01*
X127312500Y-98225001D01*
X127312499Y-98225000D01*
X127312498Y-98225000D01*
X127181027Y-98225000D01*
X127132456Y-98220217D01*
X127127428Y-98219217D01*
X127037667Y-98182039D01*
X126968967Y-98113342D01*
X126931785Y-98023584D01*
X126931782Y-97926429D01*
X126968960Y-97836668D01*
X127037657Y-97767968D01*
X127127415Y-97730786D01*
X127127428Y-97730783D01*
X127132456Y-97729783D01*
X127181027Y-97725000D01*
X127312497Y-97725000D01*
X127312498Y-97725000D01*
X127312499Y-97724999D01*
X127312499Y-97600032D01*
X127312498Y-97600015D01*
X127302005Y-97497300D01*
X127302004Y-97497297D01*
X127246859Y-97330880D01*
X127246858Y-97330878D01*
X127154818Y-97181658D01*
X127154812Y-97181650D01*
X127134206Y-97161044D01*
X127089178Y-97093654D01*
X127046668Y-97067440D01*
X127007811Y-97037851D01*
X126990901Y-97022128D01*
X126934024Y-96943362D01*
X126934021Y-96943356D01*
X126930538Y-96935742D01*
X126909651Y-96861037D01*
X126909180Y-96857003D01*
X126907500Y-96828127D01*
X126907500Y-96182482D01*
X126912283Y-96133912D01*
X126916790Y-96111250D01*
X126953967Y-96021490D01*
X126958629Y-96014513D01*
X127011204Y-95957553D01*
X127014397Y-95955028D01*
X127024717Y-95947802D01*
X127031148Y-95942716D01*
X127031156Y-95942712D01*
X127155212Y-95818656D01*
X127247314Y-95669334D01*
X127255559Y-95644451D01*
X127275376Y-95599856D01*
X127286275Y-95580657D01*
X127349797Y-95507150D01*
X127436615Y-95463546D01*
X127438063Y-95463147D01*
X127451453Y-95459456D01*
X127517632Y-95450500D01*
X127650839Y-95450500D01*
X127699411Y-95455282D01*
G37*
%TD.AperFunction*%
%TA.AperFunction,Conductor*%
G36*
X103416677Y-89849783D02*
G01*
X103422418Y-89850924D01*
X103439339Y-89854290D01*
X103529098Y-89891468D01*
X103533468Y-89894387D01*
X103536081Y-89896134D01*
X103593034Y-89948705D01*
X103595552Y-89951889D01*
X103602362Y-89961615D01*
X103607679Y-89968339D01*
X103607681Y-89968341D01*
X103607683Y-89968344D01*
X103731654Y-90092315D01*
X103731658Y-90092318D01*
X103825182Y-90150004D01*
X103856107Y-90169079D01*
X103856108Y-90169080D01*
X103870412Y-90177902D01*
X103880878Y-90184358D01*
X103880879Y-90184359D01*
X104047298Y-90239504D01*
X104047305Y-90239505D01*
X104150023Y-90249999D01*
X104275000Y-90249998D01*
X104275000Y-90118527D01*
X104279783Y-90069956D01*
X104280783Y-90064928D01*
X104317961Y-89975167D01*
X104386658Y-89906467D01*
X104476416Y-89869285D01*
X104573571Y-89869282D01*
X104663332Y-89906460D01*
X104732032Y-89975157D01*
X104769214Y-90064915D01*
X104769217Y-90064928D01*
X104770217Y-90069956D01*
X104775000Y-90118527D01*
X104775000Y-90249998D01*
X104775001Y-90249999D01*
X104899959Y-90249999D01*
X104899968Y-90249999D01*
X104899989Y-90249997D01*
X104906274Y-90249354D01*
X104955096Y-90249175D01*
X104975877Y-90251145D01*
X105068946Y-90279010D01*
X105144271Y-90340371D01*
X105190377Y-90425880D01*
X105194012Y-90437707D01*
X105205000Y-90510859D01*
X105205000Y-91445000D01*
X112475973Y-91445000D01*
X112524549Y-91449784D01*
X112545006Y-91453853D01*
X112634766Y-91491032D01*
X112703465Y-91559731D01*
X112740644Y-91649484D01*
X112744714Y-91669942D01*
X112749500Y-91718527D01*
X112749500Y-92394851D01*
X112749501Y-92394872D01*
X112752414Y-92419989D01*
X112752414Y-92419991D01*
X112752415Y-92419993D01*
X112765657Y-92449984D01*
X112797791Y-92522761D01*
X112797792Y-92522762D01*
X112797793Y-92522763D01*
X112797794Y-92522765D01*
X112877235Y-92602206D01*
X112980009Y-92647585D01*
X113005135Y-92650500D01*
X115094864Y-92650499D01*
X115119991Y-92647585D01*
X115222765Y-92602206D01*
X115302206Y-92522765D01*
X115347585Y-92419991D01*
X115350500Y-92394865D01*
X115350499Y-90928465D01*
X115355281Y-90879901D01*
X115359042Y-90860993D01*
X115396218Y-90771239D01*
X115464915Y-90702538D01*
X115554674Y-90665357D01*
X115651828Y-90665354D01*
X115651833Y-90665355D01*
X115651847Y-90665358D01*
X115659763Y-90666933D01*
X115741890Y-90699217D01*
X115788354Y-90727876D01*
X115806401Y-90739007D01*
X115855902Y-90769539D01*
X115855904Y-90769541D01*
X115880667Y-90784815D01*
X116044311Y-90839041D01*
X116044330Y-90839047D01*
X116045347Y-90839383D01*
X116047203Y-90839999D01*
X116149991Y-90850500D01*
X116763172Y-90850499D01*
X116811747Y-90855283D01*
X116828318Y-90858579D01*
X116918078Y-90895758D01*
X116986778Y-90964456D01*
X117023958Y-91054215D01*
X117023959Y-91151370D01*
X116986780Y-91241130D01*
X116986774Y-91241140D01*
X116977388Y-91255186D01*
X116946431Y-91292906D01*
X116932682Y-91306655D01*
X116855919Y-91431108D01*
X116840639Y-91455880D01*
X116785496Y-91622292D01*
X116785492Y-91622319D01*
X116775001Y-91725000D01*
X116775000Y-91725013D01*
X116775000Y-91725018D01*
X116775000Y-91837499D01*
X116775001Y-91837500D01*
X116906473Y-91837500D01*
X116955054Y-91842285D01*
X116960081Y-91843285D01*
X117049840Y-91880466D01*
X117118538Y-91949166D01*
X117155716Y-92038926D01*
X117155715Y-92136081D01*
X117118534Y-92225840D01*
X117049834Y-92294538D01*
X116960081Y-92331715D01*
X116955054Y-92332715D01*
X116906473Y-92337500D01*
X116775002Y-92337500D01*
X116775001Y-92337501D01*
X116775001Y-92449984D01*
X116777144Y-92470968D01*
X116785493Y-92552697D01*
X116785494Y-92552701D01*
X116785495Y-92552702D01*
X116785634Y-92553121D01*
X116840639Y-92719117D01*
X116840640Y-92719119D01*
X116840641Y-92719121D01*
X116932681Y-92868341D01*
X116932684Y-92868345D01*
X117001153Y-92936814D01*
X117011379Y-92952119D01*
X117066441Y-93003315D01*
X117066441Y-93003316D01*
X117080915Y-93016774D01*
X117137791Y-93095538D01*
X117160197Y-93190074D01*
X117144720Y-93285988D01*
X117093717Y-93368679D01*
X117015022Y-93425524D01*
X117013052Y-93426426D01*
X116938311Y-93447343D01*
X116934278Y-93447815D01*
X116905364Y-93449500D01*
X105351449Y-93449500D01*
X105158172Y-93487946D01*
X105158170Y-93487946D01*
X105158169Y-93487947D01*
X105158164Y-93487949D01*
X105147170Y-93492503D01*
X104976088Y-93563366D01*
X104976086Y-93563367D01*
X104843385Y-93652035D01*
X104753625Y-93689214D01*
X104656470Y-93689213D01*
X104566711Y-93652033D01*
X104538662Y-93630245D01*
X104507908Y-93602620D01*
X104507205Y-93602150D01*
X104427150Y-93548659D01*
X104427121Y-93548641D01*
X104380590Y-93521033D01*
X104244907Y-93473167D01*
X104244903Y-93473166D01*
X104149614Y-93454212D01*
X104051000Y-93444500D01*
X102249500Y-93444500D01*
X102154212Y-93425546D01*
X102073430Y-93371570D01*
X102019454Y-93290788D01*
X102000500Y-93195500D01*
X102000500Y-90461659D01*
X102005283Y-90413089D01*
X102009589Y-90391438D01*
X102046766Y-90301677D01*
X102115460Y-90232978D01*
X102123039Y-90227914D01*
X102128258Y-90224428D01*
X102188265Y-90195109D01*
X102195828Y-90192603D01*
X102195834Y-90192601D01*
X102219326Y-90184817D01*
X102219326Y-90184816D01*
X102219332Y-90184815D01*
X102219334Y-90184814D01*
X102368656Y-90092712D01*
X102492712Y-89968656D01*
X102492717Y-89968646D01*
X102496080Y-89964395D01*
X102509052Y-89949273D01*
X102528454Y-89928405D01*
X102607214Y-89871528D01*
X102614838Y-89868040D01*
X102689542Y-89847152D01*
X102693584Y-89846679D01*
X102722457Y-89845000D01*
X103368105Y-89845000D01*
X103416677Y-89849783D01*
G37*
%TD.AperFunction*%
%TA.AperFunction,Conductor*%
G36*
X119846889Y-89580024D02*
G01*
X119920397Y-89643551D01*
X119963990Y-89730338D01*
X119965532Y-89735927D01*
X119974500Y-89802152D01*
X119974500Y-90150006D01*
X119985001Y-90252800D01*
X120003121Y-90307482D01*
X120040185Y-90419333D01*
X120040187Y-90419336D01*
X120090988Y-90501699D01*
X120097697Y-90519724D01*
X120139129Y-90581732D01*
X120139129Y-90581733D01*
X120153030Y-90602538D01*
X120190207Y-90692293D01*
X120194715Y-90714956D01*
X120199500Y-90763534D01*
X120199500Y-92394851D01*
X120199501Y-92394872D01*
X120202414Y-92419989D01*
X120202414Y-92419991D01*
X120202415Y-92419993D01*
X120215657Y-92449984D01*
X120247791Y-92522761D01*
X120247792Y-92522762D01*
X120247793Y-92522763D01*
X120247794Y-92522765D01*
X120327235Y-92602206D01*
X120430009Y-92647585D01*
X120455135Y-92650500D01*
X122544864Y-92650499D01*
X122569991Y-92647585D01*
X122672765Y-92602206D01*
X122752206Y-92522765D01*
X122797585Y-92419991D01*
X122800500Y-92394865D01*
X122800499Y-90928465D01*
X122805281Y-90879901D01*
X122809042Y-90860993D01*
X122846218Y-90771239D01*
X122914915Y-90702538D01*
X123004674Y-90665357D01*
X123101828Y-90665354D01*
X123101833Y-90665355D01*
X123101847Y-90665358D01*
X123109763Y-90666933D01*
X123191890Y-90699217D01*
X123238354Y-90727876D01*
X123256401Y-90739007D01*
X123305902Y-90769539D01*
X123305904Y-90769541D01*
X123330667Y-90784815D01*
X123494311Y-90839041D01*
X123494330Y-90839047D01*
X123495347Y-90839383D01*
X123497203Y-90839999D01*
X123599991Y-90850500D01*
X124213172Y-90850499D01*
X124261747Y-90855283D01*
X124278318Y-90858579D01*
X124368078Y-90895758D01*
X124436778Y-90964456D01*
X124473958Y-91054215D01*
X124473959Y-91151370D01*
X124436780Y-91241130D01*
X124436774Y-91241140D01*
X124427388Y-91255186D01*
X124396431Y-91292906D01*
X124382682Y-91306655D01*
X124305919Y-91431108D01*
X124290639Y-91455880D01*
X124235496Y-91622292D01*
X124235492Y-91622319D01*
X124225001Y-91725000D01*
X124225000Y-91725013D01*
X124225000Y-91725018D01*
X124225000Y-91837499D01*
X124225001Y-91837500D01*
X124356473Y-91837500D01*
X124405054Y-91842285D01*
X124410081Y-91843285D01*
X124499840Y-91880466D01*
X124568538Y-91949166D01*
X124605716Y-92038926D01*
X124605715Y-92136081D01*
X124568534Y-92225840D01*
X124499834Y-92294538D01*
X124410081Y-92331715D01*
X124405054Y-92332715D01*
X124356473Y-92337500D01*
X124225002Y-92337500D01*
X124225001Y-92337501D01*
X124225001Y-92449984D01*
X124227144Y-92470968D01*
X124235493Y-92552697D01*
X124235494Y-92552701D01*
X124235495Y-92552702D01*
X124235634Y-92553121D01*
X124290639Y-92719117D01*
X124290640Y-92719119D01*
X124290641Y-92719121D01*
X124382681Y-92868341D01*
X124382684Y-92868345D01*
X124451153Y-92936814D01*
X124461379Y-92952119D01*
X124516441Y-93003315D01*
X124516441Y-93003316D01*
X124530915Y-93016774D01*
X124587791Y-93095538D01*
X124610197Y-93190074D01*
X124594720Y-93285988D01*
X124543717Y-93368679D01*
X124465022Y-93425524D01*
X124463052Y-93426426D01*
X124388311Y-93447343D01*
X124384278Y-93447815D01*
X124355364Y-93449500D01*
X119404662Y-93449500D01*
X119356073Y-93444713D01*
X119339502Y-93441416D01*
X119249744Y-93404232D01*
X119181048Y-93335530D01*
X119143873Y-93245769D01*
X119143878Y-93148614D01*
X119181051Y-93058873D01*
X119182258Y-93057066D01*
X119234858Y-93000080D01*
X119271759Y-92970902D01*
X119293474Y-92942185D01*
X119367315Y-92868345D01*
X119367318Y-92868341D01*
X119459358Y-92719121D01*
X119459359Y-92719120D01*
X119514504Y-92552701D01*
X119514505Y-92552694D01*
X119519355Y-92505221D01*
X119524994Y-92450036D01*
X119525000Y-92449977D01*
X119525000Y-92337502D01*
X119525000Y-92337501D01*
X119524999Y-92337500D01*
X119524998Y-92337500D01*
X119393527Y-92337500D01*
X119344956Y-92332717D01*
X119339928Y-92331717D01*
X119250167Y-92294539D01*
X119181467Y-92225842D01*
X119144285Y-92136084D01*
X119144282Y-92038929D01*
X119181460Y-91949168D01*
X119250157Y-91880468D01*
X119339915Y-91843286D01*
X119339928Y-91843283D01*
X119344956Y-91842283D01*
X119393527Y-91837500D01*
X119524997Y-91837500D01*
X119524998Y-91837500D01*
X119524999Y-91837499D01*
X119524999Y-91725032D01*
X119524998Y-91725015D01*
X119514505Y-91622300D01*
X119514504Y-91622297D01*
X119459359Y-91455880D01*
X119459358Y-91455878D01*
X119367318Y-91306658D01*
X119367312Y-91306650D01*
X119346706Y-91286044D01*
X119301678Y-91218654D01*
X119259168Y-91192440D01*
X119220311Y-91162851D01*
X119203401Y-91147128D01*
X119146524Y-91068362D01*
X119146521Y-91068356D01*
X119143038Y-91060742D01*
X119122151Y-90986037D01*
X119121680Y-90982003D01*
X119120000Y-90953127D01*
X119120000Y-90307465D01*
X119120941Y-90297901D01*
X119120718Y-90297896D01*
X119120841Y-90293086D01*
X119122861Y-90278399D01*
X119124780Y-90258911D01*
X119125417Y-90255707D01*
X119125968Y-90255816D01*
X119128367Y-90238375D01*
X119130703Y-90229144D01*
X119130704Y-90229133D01*
X119131492Y-90226024D01*
X119132216Y-90226207D01*
X119168245Y-90145153D01*
X119167633Y-90144744D01*
X119171099Y-90139556D01*
X119171106Y-90139544D01*
X119223725Y-90082536D01*
X119226932Y-90080000D01*
X119237240Y-90072783D01*
X119243648Y-90067716D01*
X119243656Y-90067712D01*
X119367712Y-89943656D01*
X119459814Y-89794334D01*
X119481427Y-89729107D01*
X119501247Y-89684505D01*
X119507421Y-89673629D01*
X119570946Y-89600124D01*
X119657767Y-89556522D01*
X119754666Y-89549464D01*
X119846889Y-89580024D01*
G37*
%TD.AperFunction*%
%TA.AperFunction,Conductor*%
G36*
X127296888Y-89580027D02*
G01*
X127370396Y-89643554D01*
X127413989Y-89730341D01*
X127415531Y-89735930D01*
X127424499Y-89802152D01*
X127424499Y-90150006D01*
X127435000Y-90252800D01*
X127453120Y-90307482D01*
X127490184Y-90419333D01*
X127490186Y-90419336D01*
X127540987Y-90501699D01*
X127547696Y-90519724D01*
X127589128Y-90581732D01*
X127589128Y-90581733D01*
X127603029Y-90602538D01*
X127640206Y-90692293D01*
X127644714Y-90714956D01*
X127649499Y-90763534D01*
X127649499Y-92394851D01*
X127649500Y-92394872D01*
X127652413Y-92419989D01*
X127652413Y-92419991D01*
X127652414Y-92419993D01*
X127665656Y-92449984D01*
X127697790Y-92522761D01*
X127697791Y-92522762D01*
X127697792Y-92522763D01*
X127697793Y-92522765D01*
X127777234Y-92602206D01*
X127880008Y-92647585D01*
X127905134Y-92650500D01*
X129994863Y-92650499D01*
X130019990Y-92647585D01*
X130122764Y-92602206D01*
X130202205Y-92522765D01*
X130247584Y-92419991D01*
X130250499Y-92394865D01*
X130250498Y-90928465D01*
X130255280Y-90879901D01*
X130259041Y-90860993D01*
X130296217Y-90771239D01*
X130364914Y-90702538D01*
X130454673Y-90665357D01*
X130551827Y-90665354D01*
X130551832Y-90665355D01*
X130551846Y-90665358D01*
X130559762Y-90666933D01*
X130641889Y-90699217D01*
X130688353Y-90727876D01*
X130706400Y-90739007D01*
X130755901Y-90769539D01*
X130755903Y-90769541D01*
X130780666Y-90784815D01*
X130944310Y-90839041D01*
X130944329Y-90839047D01*
X130945346Y-90839383D01*
X130947202Y-90839999D01*
X131049990Y-90850500D01*
X131663172Y-90850499D01*
X131711747Y-90855283D01*
X131728318Y-90858579D01*
X131818078Y-90895758D01*
X131886778Y-90964456D01*
X131923958Y-91054215D01*
X131923959Y-91151370D01*
X131886780Y-91241130D01*
X131886774Y-91241140D01*
X131877388Y-91255186D01*
X131846431Y-91292906D01*
X131832682Y-91306655D01*
X131755919Y-91431108D01*
X131740639Y-91455880D01*
X131685496Y-91622292D01*
X131685492Y-91622319D01*
X131675001Y-91725000D01*
X131675000Y-91725013D01*
X131675000Y-91725018D01*
X131675000Y-91837499D01*
X131675001Y-91837500D01*
X131806473Y-91837500D01*
X131855054Y-91842285D01*
X131860081Y-91843285D01*
X131949840Y-91880466D01*
X132018538Y-91949166D01*
X132055716Y-92038926D01*
X132055715Y-92136081D01*
X132018534Y-92225840D01*
X131949834Y-92294538D01*
X131860081Y-92331715D01*
X131855054Y-92332715D01*
X131806473Y-92337500D01*
X131675002Y-92337500D01*
X131675001Y-92337501D01*
X131675001Y-92449984D01*
X131677144Y-92470968D01*
X131685493Y-92552697D01*
X131685494Y-92552701D01*
X131685495Y-92552702D01*
X131685634Y-92553121D01*
X131740639Y-92719117D01*
X131740640Y-92719119D01*
X131740641Y-92719121D01*
X131832681Y-92868341D01*
X131832684Y-92868345D01*
X131901153Y-92936814D01*
X131911379Y-92952119D01*
X131966441Y-93003315D01*
X131966441Y-93003316D01*
X131980915Y-93016774D01*
X132037791Y-93095538D01*
X132060197Y-93190074D01*
X132044720Y-93285988D01*
X131993717Y-93368679D01*
X131915022Y-93425524D01*
X131913052Y-93426426D01*
X131838311Y-93447343D01*
X131834278Y-93447815D01*
X131805364Y-93449500D01*
X126854662Y-93449500D01*
X126806073Y-93444713D01*
X126789502Y-93441416D01*
X126699744Y-93404232D01*
X126631048Y-93335530D01*
X126593873Y-93245769D01*
X126593878Y-93148614D01*
X126631051Y-93058873D01*
X126632258Y-93057066D01*
X126684858Y-93000080D01*
X126721759Y-92970902D01*
X126743474Y-92942185D01*
X126817315Y-92868345D01*
X126817318Y-92868341D01*
X126909358Y-92719121D01*
X126909359Y-92719120D01*
X126964504Y-92552701D01*
X126964505Y-92552694D01*
X126969355Y-92505221D01*
X126974994Y-92450036D01*
X126975000Y-92449977D01*
X126975000Y-92337502D01*
X126975000Y-92337501D01*
X126974999Y-92337500D01*
X126974998Y-92337500D01*
X126843527Y-92337500D01*
X126794956Y-92332717D01*
X126789928Y-92331717D01*
X126700167Y-92294539D01*
X126631467Y-92225842D01*
X126594285Y-92136084D01*
X126594282Y-92038929D01*
X126631460Y-91949168D01*
X126700157Y-91880468D01*
X126789915Y-91843286D01*
X126789928Y-91843283D01*
X126794956Y-91842283D01*
X126843527Y-91837500D01*
X126974997Y-91837500D01*
X126974998Y-91837500D01*
X126974999Y-91837499D01*
X126974999Y-91725032D01*
X126974998Y-91725015D01*
X126964505Y-91622300D01*
X126964504Y-91622297D01*
X126909359Y-91455880D01*
X126909358Y-91455878D01*
X126817318Y-91306658D01*
X126817312Y-91306650D01*
X126796706Y-91286044D01*
X126751678Y-91218654D01*
X126709168Y-91192440D01*
X126670311Y-91162851D01*
X126653401Y-91147128D01*
X126596524Y-91068362D01*
X126596521Y-91068356D01*
X126593038Y-91060742D01*
X126572151Y-90986037D01*
X126571680Y-90982003D01*
X126570000Y-90953127D01*
X126570000Y-90307465D01*
X126570941Y-90297897D01*
X126570718Y-90297892D01*
X126570841Y-90293085D01*
X126572861Y-90278402D01*
X126574780Y-90258911D01*
X126575417Y-90255707D01*
X126575968Y-90255816D01*
X126578368Y-90238372D01*
X126580703Y-90229146D01*
X126580704Y-90229139D01*
X126581493Y-90226023D01*
X126582234Y-90226210D01*
X126618224Y-90145157D01*
X126617625Y-90144757D01*
X126619429Y-90142056D01*
X126621101Y-90139552D01*
X126673734Y-90082528D01*
X126676937Y-90079996D01*
X126687243Y-90072781D01*
X126693648Y-90067716D01*
X126693656Y-90067712D01*
X126817712Y-89943656D01*
X126909814Y-89794334D01*
X126931426Y-89729110D01*
X126951243Y-89684513D01*
X126957420Y-89673632D01*
X127020945Y-89600127D01*
X127107766Y-89556525D01*
X127204665Y-89549467D01*
X127296888Y-89580027D01*
G37*
%TD.AperFunction*%
%TA.AperFunction,Conductor*%
G36*
X120249412Y-82005282D02*
G01*
X120271065Y-82009589D01*
X120360823Y-82046767D01*
X120429523Y-82115465D01*
X120429526Y-82115469D01*
X120438064Y-82128247D01*
X120467390Y-82188265D01*
X120471766Y-82201471D01*
X120477686Y-82219334D01*
X120569788Y-82368656D01*
X120693844Y-82492712D01*
X120693846Y-82492713D01*
X120696352Y-82495219D01*
X120713251Y-82509075D01*
X120734093Y-82528453D01*
X120790968Y-82607207D01*
X120794451Y-82614819D01*
X120815341Y-82689486D01*
X120815813Y-82693520D01*
X120817500Y-82722457D01*
X120817500Y-83367516D01*
X120812715Y-83416096D01*
X120808207Y-83438758D01*
X120771026Y-83528517D01*
X120771026Y-83528518D01*
X120766374Y-83535480D01*
X120713779Y-83592459D01*
X120709283Y-83596014D01*
X120697677Y-83604474D01*
X120697689Y-83604491D01*
X120693839Y-83607290D01*
X120693837Y-83607292D01*
X120569788Y-83731342D01*
X120477682Y-83880670D01*
X120422503Y-84047191D01*
X120422499Y-84047220D01*
X120412001Y-84149968D01*
X120412000Y-84149995D01*
X120412000Y-84900004D01*
X120422500Y-85002796D01*
X120422500Y-85002798D01*
X120422501Y-85002800D01*
X120453689Y-85096919D01*
X120453690Y-85096922D01*
X120454635Y-85104527D01*
X120467409Y-85138846D01*
X120470411Y-85147384D01*
X120477681Y-85169324D01*
X120478778Y-85171676D01*
X120486472Y-85190061D01*
X120496641Y-85217381D01*
X120512117Y-85313295D01*
X120489712Y-85407829D01*
X120484730Y-85418719D01*
X120452983Y-85468559D01*
X120453750Y-85469146D01*
X120449774Y-85474342D01*
X120447797Y-85477227D01*
X120402413Y-85580012D01*
X120399500Y-85605134D01*
X120399500Y-88005488D01*
X120394715Y-88054068D01*
X120390207Y-88076730D01*
X120353031Y-88166483D01*
X120348378Y-88173447D01*
X120295754Y-88230452D01*
X120292575Y-88232965D01*
X120268885Y-88249551D01*
X120256349Y-88257283D01*
X120132284Y-88381348D01*
X120040182Y-88530670D01*
X119994075Y-88669814D01*
X119974261Y-88714408D01*
X119965921Y-88729101D01*
X119902400Y-88802614D01*
X119815581Y-88846222D01*
X119718684Y-88853286D01*
X119626458Y-88822732D01*
X119552945Y-88759211D01*
X119552938Y-88759201D01*
X119549072Y-88754238D01*
X119509149Y-88679550D01*
X119505923Y-88669814D01*
X119498557Y-88647587D01*
X119497140Y-88643312D01*
X119484766Y-88605968D01*
X119482019Y-88583863D01*
X119456768Y-88516077D01*
X119456769Y-88516077D01*
X119449222Y-88495818D01*
X119433722Y-88399932D01*
X119433865Y-88395965D01*
X119451767Y-88311825D01*
X119456389Y-88300362D01*
X119472997Y-88266733D01*
X119476743Y-88260399D01*
X119476744Y-88260398D01*
X119522598Y-88102569D01*
X119525500Y-88065694D01*
X119525500Y-87634306D01*
X119522598Y-87597431D01*
X119476744Y-87439602D01*
X119393081Y-87298135D01*
X119276865Y-87181919D01*
X119276862Y-87181917D01*
X119263350Y-87173926D01*
X119223978Y-87145082D01*
X119206764Y-87129664D01*
X119148443Y-87051987D01*
X119145332Y-87045509D01*
X119122750Y-86968896D01*
X119121958Y-86962628D01*
X119120000Y-86931455D01*
X119120000Y-86876824D01*
X119124783Y-86828254D01*
X119129290Y-86805592D01*
X119166467Y-86715832D01*
X119170468Y-86709843D01*
X119224874Y-86651448D01*
X119229880Y-86647565D01*
X119255722Y-86630003D01*
X119276553Y-86617684D01*
X119392684Y-86501553D01*
X119476283Y-86360195D01*
X119476310Y-86360150D01*
X119476783Y-86358469D01*
X119522099Y-86202492D01*
X119522296Y-86200000D01*
X119393527Y-86200000D01*
X119382348Y-86197776D01*
X119371017Y-86198980D01*
X119344956Y-86195217D01*
X119339928Y-86194217D01*
X119317266Y-86184830D01*
X119298239Y-86181046D01*
X119282111Y-86170269D01*
X119250167Y-86157039D01*
X119225714Y-86132587D01*
X119217457Y-86127070D01*
X119211941Y-86118814D01*
X119181467Y-86088342D01*
X119164968Y-86048514D01*
X119163481Y-86046288D01*
X119162958Y-86043663D01*
X119144285Y-85998584D01*
X119144282Y-85901429D01*
X119181460Y-85811668D01*
X119215967Y-85777158D01*
X119217457Y-85774930D01*
X119225984Y-85767141D01*
X119250157Y-85742968D01*
X119258211Y-85739631D01*
X119285932Y-85716523D01*
X119369000Y-85700000D01*
X119522296Y-85700000D01*
X119522296Y-85699999D01*
X119522099Y-85697507D01*
X119518959Y-85686696D01*
X119510576Y-85589903D01*
X119536616Y-85507563D01*
X119547095Y-85498829D01*
X119565367Y-85463313D01*
X119571426Y-85455245D01*
X119594460Y-85428700D01*
X119704812Y-85318349D01*
X119704818Y-85318341D01*
X119788581Y-85182541D01*
X119796725Y-85169336D01*
X119796858Y-85169121D01*
X119796859Y-85169120D01*
X119852004Y-85002701D01*
X119852005Y-85002694D01*
X119856855Y-84955221D01*
X119862494Y-84900036D01*
X119862500Y-84899977D01*
X119862500Y-84775002D01*
X119862500Y-84775001D01*
X119862499Y-84775000D01*
X119862498Y-84775000D01*
X119731027Y-84775000D01*
X119682456Y-84770217D01*
X119677428Y-84769217D01*
X119587667Y-84732039D01*
X119518967Y-84663342D01*
X119481785Y-84573584D01*
X119481782Y-84476429D01*
X119518960Y-84386668D01*
X119587657Y-84317968D01*
X119677415Y-84280786D01*
X119677428Y-84280783D01*
X119682456Y-84279783D01*
X119731027Y-84275000D01*
X119862497Y-84275000D01*
X119862498Y-84275000D01*
X119862499Y-84274999D01*
X119862499Y-84150032D01*
X119862498Y-84150015D01*
X119852005Y-84047300D01*
X119852004Y-84047297D01*
X119796859Y-83880880D01*
X119796858Y-83880878D01*
X119704818Y-83731658D01*
X119704812Y-83731650D01*
X119684206Y-83711044D01*
X119639178Y-83643654D01*
X119596668Y-83617440D01*
X119557811Y-83587851D01*
X119540901Y-83572128D01*
X119484024Y-83493362D01*
X119484021Y-83493356D01*
X119480538Y-83485742D01*
X119459651Y-83411037D01*
X119459180Y-83407003D01*
X119457500Y-83378127D01*
X119457500Y-82732482D01*
X119462283Y-82683912D01*
X119466790Y-82661250D01*
X119503967Y-82571490D01*
X119508629Y-82564513D01*
X119561204Y-82507553D01*
X119564397Y-82505028D01*
X119574717Y-82497802D01*
X119581148Y-82492716D01*
X119581156Y-82492712D01*
X119705212Y-82368656D01*
X119797314Y-82219334D01*
X119805559Y-82194451D01*
X119825376Y-82149856D01*
X119836275Y-82130657D01*
X119899797Y-82057150D01*
X119986615Y-82013546D01*
X119988063Y-82013147D01*
X120001453Y-82009456D01*
X120067632Y-82000500D01*
X120200840Y-82000500D01*
X120249412Y-82005282D01*
G37*
%TD.AperFunction*%
%TA.AperFunction,Conductor*%
G36*
X127699411Y-82005282D02*
G01*
X127721064Y-82009589D01*
X127810822Y-82046767D01*
X127879522Y-82115465D01*
X127879525Y-82115469D01*
X127888063Y-82128247D01*
X127917389Y-82188265D01*
X127921765Y-82201471D01*
X127927685Y-82219334D01*
X128019787Y-82368656D01*
X128143843Y-82492712D01*
X128143845Y-82492713D01*
X128146351Y-82495219D01*
X128163250Y-82509075D01*
X128184092Y-82528453D01*
X128240967Y-82607207D01*
X128244450Y-82614819D01*
X128265340Y-82689486D01*
X128265812Y-82693520D01*
X128267499Y-82722457D01*
X128267499Y-83367516D01*
X128262714Y-83416096D01*
X128258206Y-83438758D01*
X128221025Y-83528517D01*
X128221025Y-83528518D01*
X128216373Y-83535480D01*
X128163778Y-83592459D01*
X128159282Y-83596014D01*
X128147676Y-83604474D01*
X128147688Y-83604491D01*
X128143838Y-83607290D01*
X128143836Y-83607292D01*
X128019787Y-83731342D01*
X127927681Y-83880670D01*
X127872502Y-84047191D01*
X127872498Y-84047220D01*
X127862000Y-84149968D01*
X127861999Y-84149995D01*
X127861999Y-84900004D01*
X127872499Y-85002796D01*
X127872501Y-85002804D01*
X127903688Y-85096919D01*
X127904632Y-85104520D01*
X127917405Y-85138836D01*
X127920406Y-85147371D01*
X127927683Y-85169332D01*
X127931103Y-85177610D01*
X127931055Y-85177629D01*
X127936548Y-85190268D01*
X127946643Y-85217392D01*
X127962116Y-85313306D01*
X127939707Y-85407842D01*
X127939704Y-85407846D01*
X127934723Y-85418732D01*
X127902984Y-85468562D01*
X127903748Y-85469147D01*
X127899784Y-85474327D01*
X127897798Y-85477225D01*
X127897797Y-85477226D01*
X127852413Y-85580012D01*
X127849500Y-85605134D01*
X127849500Y-88005488D01*
X127844715Y-88054068D01*
X127840207Y-88076730D01*
X127803026Y-88166489D01*
X127803026Y-88166490D01*
X127798374Y-88173452D01*
X127745785Y-88230427D01*
X127742607Y-88232940D01*
X127718883Y-88249552D01*
X127706349Y-88257283D01*
X127706347Y-88257284D01*
X127706345Y-88257286D01*
X127582285Y-88381346D01*
X127541214Y-88447932D01*
X127490182Y-88530669D01*
X127444075Y-88669813D01*
X127424255Y-88714418D01*
X127415914Y-88729111D01*
X127352389Y-88802620D01*
X127265568Y-88846224D01*
X127168670Y-88853284D01*
X127076446Y-88822725D01*
X127002937Y-88759200D01*
X127002933Y-88759195D01*
X126999068Y-88754233D01*
X126959147Y-88679544D01*
X126955922Y-88669813D01*
X126934765Y-88605965D01*
X126932019Y-88583863D01*
X126906768Y-88516077D01*
X126906769Y-88516077D01*
X126899222Y-88495818D01*
X126883722Y-88399932D01*
X126883865Y-88395965D01*
X126901767Y-88311825D01*
X126906389Y-88300362D01*
X126922997Y-88266733D01*
X126926743Y-88260399D01*
X126926744Y-88260398D01*
X126972598Y-88102569D01*
X126975500Y-88065694D01*
X126975500Y-87634306D01*
X126972598Y-87597431D01*
X126926744Y-87439602D01*
X126843081Y-87298135D01*
X126726865Y-87181919D01*
X126726862Y-87181917D01*
X126713350Y-87173926D01*
X126673978Y-87145082D01*
X126656764Y-87129664D01*
X126598443Y-87051987D01*
X126595332Y-87045509D01*
X126572750Y-86968896D01*
X126571958Y-86962628D01*
X126570000Y-86931455D01*
X126570000Y-86876824D01*
X126574783Y-86828254D01*
X126579290Y-86805592D01*
X126616467Y-86715832D01*
X126620468Y-86709843D01*
X126674874Y-86651448D01*
X126679880Y-86647565D01*
X126705722Y-86630003D01*
X126726553Y-86617684D01*
X126842684Y-86501553D01*
X126926283Y-86360195D01*
X126926310Y-86360150D01*
X126926783Y-86358469D01*
X126972099Y-86202492D01*
X126972296Y-86200000D01*
X126843527Y-86200000D01*
X126832348Y-86197776D01*
X126821017Y-86198980D01*
X126794956Y-86195217D01*
X126789928Y-86194217D01*
X126767266Y-86184830D01*
X126748239Y-86181046D01*
X126732111Y-86170269D01*
X126700167Y-86157039D01*
X126675714Y-86132587D01*
X126667457Y-86127070D01*
X126661941Y-86118814D01*
X126631467Y-86088342D01*
X126614968Y-86048514D01*
X126613481Y-86046288D01*
X126612958Y-86043663D01*
X126594285Y-85998584D01*
X126594282Y-85901429D01*
X126631460Y-85811668D01*
X126665967Y-85777158D01*
X126667457Y-85774930D01*
X126675984Y-85767141D01*
X126700157Y-85742968D01*
X126708211Y-85739631D01*
X126735932Y-85716523D01*
X126819000Y-85700000D01*
X126972296Y-85700000D01*
X126972296Y-85699999D01*
X126972099Y-85697507D01*
X126968959Y-85686696D01*
X126960576Y-85589903D01*
X126986616Y-85507563D01*
X126997095Y-85498829D01*
X127015367Y-85463313D01*
X127021426Y-85455245D01*
X127044460Y-85428700D01*
X127154812Y-85318349D01*
X127154818Y-85318341D01*
X127238581Y-85182541D01*
X127246725Y-85169336D01*
X127246858Y-85169121D01*
X127246859Y-85169120D01*
X127302004Y-85002701D01*
X127302005Y-85002694D01*
X127306855Y-84955221D01*
X127312494Y-84900036D01*
X127312500Y-84899977D01*
X127312500Y-84775002D01*
X127312500Y-84775001D01*
X127312499Y-84775000D01*
X127312498Y-84775000D01*
X127181027Y-84775000D01*
X127132456Y-84770217D01*
X127127428Y-84769217D01*
X127037667Y-84732039D01*
X126968967Y-84663342D01*
X126931785Y-84573584D01*
X126931782Y-84476429D01*
X126968960Y-84386668D01*
X127037657Y-84317968D01*
X127127415Y-84280786D01*
X127127428Y-84280783D01*
X127132456Y-84279783D01*
X127181027Y-84275000D01*
X127312497Y-84275000D01*
X127312498Y-84275000D01*
X127312499Y-84274999D01*
X127312499Y-84150032D01*
X127312498Y-84150015D01*
X127302005Y-84047300D01*
X127302004Y-84047297D01*
X127246859Y-83880880D01*
X127246858Y-83880878D01*
X127154818Y-83731658D01*
X127154812Y-83731650D01*
X127134206Y-83711044D01*
X127089178Y-83643654D01*
X127046668Y-83617440D01*
X127007811Y-83587851D01*
X126990901Y-83572128D01*
X126934024Y-83493362D01*
X126934021Y-83493356D01*
X126930538Y-83485742D01*
X126909651Y-83411037D01*
X126909180Y-83407003D01*
X126907500Y-83378127D01*
X126907500Y-82732482D01*
X126912283Y-82683912D01*
X126916790Y-82661250D01*
X126953967Y-82571490D01*
X126958629Y-82564513D01*
X127011204Y-82507553D01*
X127014397Y-82505028D01*
X127024717Y-82497802D01*
X127031148Y-82492716D01*
X127031156Y-82492712D01*
X127155212Y-82368656D01*
X127247314Y-82219334D01*
X127255559Y-82194451D01*
X127275376Y-82149856D01*
X127286275Y-82130657D01*
X127349797Y-82057150D01*
X127436615Y-82013546D01*
X127438063Y-82013147D01*
X127451453Y-82009456D01*
X127517632Y-82000500D01*
X127650839Y-82000500D01*
X127699411Y-82005282D01*
G37*
%TD.AperFunction*%
%TD*%
M02*
